G04 #@! TF.FileFunction,Copper,L4,Bot,Signal*
%FSLAX46Y46*%
G04 Gerber Fmt 4.6, Leading zero omitted, Abs format (unit mm)*
G04 Created by KiCad (PCBNEW 4.0.1-stable) date Monday, February 15, 2016 'PMt' 09:43:10 PM*
%MOMM*%
G01*
G04 APERTURE LIST*
%ADD10C,0.100000*%
%ADD11C,3.500120*%
%ADD12R,0.508000X1.143000*%
%ADD13R,1.200000X0.750000*%
%ADD14R,1.600000X2.000000*%
%ADD15R,0.900000X1.200000*%
%ADD16R,3.657600X2.032000*%
%ADD17R,1.016000X2.032000*%
%ADD18R,2.999740X2.999740*%
%ADD19C,2.999740*%
%ADD20O,1.473200X0.609600*%
%ADD21R,1.200000X0.900000*%
%ADD22R,1.050000X1.400000*%
%ADD23R,0.750000X1.200000*%
%ADD24R,1.800860X1.399540*%
%ADD25R,1.727200X1.727200*%
%ADD26O,1.727200X1.727200*%
%ADD27R,1.500000X1.250000*%
%ADD28R,1.250000X1.500000*%
%ADD29C,0.700000*%
%ADD30C,0.870000*%
%ADD31C,0.300000*%
%ADD32C,0.200000*%
%ADD33C,0.600000*%
%ADD34C,0.254000*%
%ADD35C,0.250000*%
G04 APERTURE END LIST*
D10*
D11*
X134366000Y-93726000D03*
X134366000Y-98806000D03*
D12*
X117284500Y-85979000D03*
X118554500Y-85979000D03*
X119824500Y-85979000D03*
X121094500Y-85979000D03*
X121094500Y-79629000D03*
X119824500Y-79629000D03*
X118554500Y-79629000D03*
X117284500Y-79629000D03*
D13*
X125730000Y-77597000D03*
X127630000Y-77597000D03*
X123759000Y-77597000D03*
X121859000Y-77597000D03*
D14*
X128524000Y-91980000D03*
X128524000Y-95980000D03*
D15*
X128270000Y-101260000D03*
X128270000Y-99060000D03*
X125984000Y-101260000D03*
X125984000Y-99060000D03*
X131064000Y-93810000D03*
X131064000Y-91610000D03*
D16*
X133096000Y-82042000D03*
D17*
X133096000Y-88646000D03*
X130810000Y-88646000D03*
X135382000Y-88646000D03*
D18*
X121412000Y-68072000D03*
D19*
X126492000Y-68072000D03*
X131572000Y-68072000D03*
D20*
X123190000Y-72263000D03*
X123190000Y-73533000D03*
X123190000Y-74803000D03*
X123190000Y-76073000D03*
X117602000Y-76073000D03*
X117602000Y-74803000D03*
X117602000Y-73533000D03*
X117602000Y-72263000D03*
D21*
X127508000Y-72644000D03*
X125308000Y-72644000D03*
X127508000Y-75184000D03*
X125308000Y-75184000D03*
D15*
X129603500Y-75905000D03*
X129603500Y-78105000D03*
X131572000Y-75882500D03*
X131572000Y-78082500D03*
D22*
X134149000Y-74952000D03*
X134149000Y-71352000D03*
X135599000Y-74952000D03*
X135599000Y-71352000D03*
D23*
X128397000Y-86299000D03*
X128397000Y-88199000D03*
D21*
X124249000Y-88392000D03*
X126449000Y-88392000D03*
D24*
X123022360Y-79573120D03*
X127421640Y-79573120D03*
X127421640Y-81970880D03*
X123022360Y-81970880D03*
D21*
X133563000Y-78105000D03*
X135763000Y-78105000D03*
D15*
X123444000Y-96944000D03*
X123444000Y-99144000D03*
D25*
X120650000Y-99060000D03*
D26*
X118110000Y-99060000D03*
X120650000Y-96520000D03*
X118110000Y-96520000D03*
X120650000Y-93980000D03*
X118110000Y-93980000D03*
D27*
X123738000Y-84328000D03*
X126238000Y-84328000D03*
D28*
X118110000Y-88285000D03*
X118110000Y-90785000D03*
D13*
X124272000Y-86614000D03*
X126172000Y-86614000D03*
D23*
X120904000Y-88582500D03*
X120904000Y-90482500D03*
D28*
X130810000Y-96032000D03*
X130810000Y-98532000D03*
D23*
X122936000Y-92776000D03*
X122936000Y-94676000D03*
D15*
X126365000Y-94445000D03*
X126365000Y-92245000D03*
X124587000Y-92245000D03*
X124587000Y-94445000D03*
D29*
X133096000Y-82042000D03*
X122863621Y-90227048D03*
X125835352Y-76432418D03*
X127658877Y-85003515D03*
X134302500Y-76517500D03*
X131953000Y-85344000D03*
X133096000Y-80264000D03*
D30*
X123190000Y-102425500D03*
D29*
X127000000Y-98552000D03*
X125730000Y-102870000D03*
X128270000Y-102870000D03*
X124606919Y-81721775D03*
X123022360Y-79573120D03*
X135128000Y-79692500D03*
X125107773Y-83305582D03*
X118110000Y-88285000D03*
X119231507Y-76665014D03*
X133096000Y-79363997D03*
X134323002Y-85140009D03*
X134288378Y-83805369D03*
X130810000Y-90170000D03*
X129674137Y-80191118D03*
X125984000Y-97790000D03*
X120509661Y-73972773D03*
X120283739Y-82986390D03*
X125843717Y-82072420D03*
X135128000Y-73533000D03*
X124972209Y-73907800D03*
X127202229Y-89486612D03*
X127471998Y-86719998D03*
X126492000Y-73914000D03*
X130601999Y-80170155D03*
X127508000Y-97790000D03*
X118403780Y-82975135D03*
X118196027Y-84335750D03*
X117294191Y-84490279D03*
X122302808Y-87469595D03*
D30*
X124998250Y-96940462D03*
D29*
X121475756Y-73958354D03*
X119634000Y-77470000D03*
X128583381Y-76207274D03*
X128994579Y-90205134D03*
X129032000Y-85090000D03*
X130952147Y-74314698D03*
X128100559Y-84219334D03*
X129894021Y-90173131D03*
X126103481Y-89465246D03*
X124714000Y-95758000D03*
X119327437Y-82986399D03*
X123234049Y-91524188D03*
X128826402Y-83687193D03*
X128677466Y-97739310D03*
X130810000Y-102997000D03*
X124714000Y-98552000D03*
X124645392Y-89714760D03*
D31*
X133096000Y-88646000D02*
X133096000Y-86487000D01*
X133096000Y-86487000D02*
X131953000Y-85344000D01*
D32*
X122936000Y-94676000D02*
X122936000Y-95476000D01*
X122936000Y-95476000D02*
X122693999Y-95718001D01*
X122755001Y-101990501D02*
X123190000Y-102425500D01*
X122693999Y-95718001D02*
X122693999Y-101929499D01*
X122693999Y-101929499D02*
X122755001Y-101990501D01*
X118554500Y-85979000D02*
X118554500Y-86750500D01*
X118554500Y-86750500D02*
X118310000Y-86995000D01*
X118310000Y-86995000D02*
X116967000Y-86995000D01*
X116967000Y-86995000D02*
X116967000Y-89517000D01*
X116967000Y-89517000D02*
X118110000Y-90660000D01*
X118110000Y-90660000D02*
X118110000Y-90785000D01*
D31*
X122936000Y-94676000D02*
X124356000Y-94676000D01*
X124356000Y-94676000D02*
X124587000Y-94445000D01*
X128524000Y-95980000D02*
X128524000Y-96180000D01*
X128524000Y-96180000D02*
X130810000Y-98466000D01*
X130810000Y-98466000D02*
X130810000Y-98532000D01*
X130810000Y-98532000D02*
X130810000Y-98407000D01*
X125459808Y-76807962D02*
X125485353Y-76782417D01*
X124758941Y-76807962D02*
X125459808Y-76807962D01*
X125485353Y-76782417D02*
X125835352Y-76432418D01*
X125730000Y-77597000D02*
X125505000Y-77597000D01*
X124758941Y-76850941D02*
X124758941Y-76807962D01*
X123759000Y-77597000D02*
X123984000Y-77597000D01*
X124758941Y-76822059D02*
X124758941Y-76807962D01*
X125505000Y-77597000D02*
X124758941Y-76850941D01*
X123984000Y-77597000D02*
X124758941Y-76822059D01*
X127658877Y-85335877D02*
X127658877Y-85003515D01*
X125583000Y-84328000D02*
X126258515Y-85003515D01*
X128397000Y-86299000D02*
X128397000Y-86074000D01*
X127163903Y-85003515D02*
X127658877Y-85003515D01*
X126258515Y-85003515D02*
X127163903Y-85003515D01*
X128397000Y-86074000D02*
X127658877Y-85335877D01*
D33*
X133096000Y-82042000D02*
X133096000Y-80264000D01*
X133096000Y-82042000D02*
X133096000Y-84201000D01*
D32*
X125984000Y-101260000D02*
X125984000Y-102616000D01*
X125984000Y-102616000D02*
X125730000Y-102870000D01*
X131064000Y-93810000D02*
X131064000Y-93960000D01*
X131064000Y-93960000D02*
X131735001Y-94631001D01*
X131735001Y-94631001D02*
X131735001Y-99522001D01*
X131735001Y-99522001D02*
X129997002Y-101260000D01*
X129997002Y-101260000D02*
X128920000Y-101260000D01*
X128920000Y-101260000D02*
X128270000Y-101260000D01*
D31*
X130810000Y-93640000D02*
X130810000Y-93790000D01*
D32*
X128270000Y-102870000D02*
X128270000Y-101260000D01*
X124606919Y-81721775D02*
X126755574Y-79573120D01*
X126755574Y-79573120D02*
X127421640Y-79573120D01*
X127630000Y-77597000D02*
X127630000Y-79364760D01*
X127630000Y-79364760D02*
X127421640Y-79573120D01*
X121859000Y-77597000D02*
X121859000Y-78610420D01*
X121859000Y-78610420D02*
X122821700Y-79573120D01*
X122821700Y-79573120D02*
X123022360Y-79573120D01*
X129603500Y-78105000D02*
X131549500Y-78105000D01*
X131549500Y-78105000D02*
X131572000Y-78082500D01*
X131572000Y-78082500D02*
X131572000Y-77932500D01*
X131572000Y-77932500D02*
X132149501Y-77354999D01*
X134862999Y-77354999D02*
X135613000Y-78105000D01*
X132149501Y-77354999D02*
X134862999Y-77354999D01*
X135613000Y-78105000D02*
X135763000Y-78105000D01*
X135763000Y-78105000D02*
X135763000Y-79057500D01*
X135763000Y-79057500D02*
X135128000Y-79692500D01*
D31*
X123738000Y-84328000D02*
X123863000Y-84328000D01*
X123863000Y-84328000D02*
X124885418Y-83305582D01*
X124885418Y-83305582D02*
X125107773Y-83305582D01*
D32*
X118110000Y-88285000D02*
X120606500Y-88285000D01*
X120606500Y-88285000D02*
X120904000Y-88582500D01*
X124249000Y-88392000D02*
X124249000Y-86637000D01*
X124249000Y-86637000D02*
X124272000Y-86614000D01*
D31*
X128524000Y-91980000D02*
X130694000Y-91980000D01*
X130694000Y-91980000D02*
X131064000Y-91610000D01*
D32*
X131064000Y-91610000D02*
X131064000Y-90424000D01*
X131064000Y-90424000D02*
X130810000Y-90170000D01*
D31*
X123738000Y-84328000D02*
X124229614Y-84819614D01*
X124229614Y-84819614D02*
X124229614Y-86571614D01*
X124229614Y-86571614D02*
X124272000Y-86614000D01*
D32*
X119824500Y-86296500D02*
X119824500Y-85979000D01*
X134288378Y-83805369D02*
X134288378Y-85105385D01*
X134288378Y-85105385D02*
X134323002Y-85140009D01*
D33*
X130810000Y-88646000D02*
X130810000Y-90170000D01*
D32*
X125984000Y-99060000D02*
X125984000Y-97790000D01*
X134149000Y-74952000D02*
X134149000Y-74052000D01*
X134149000Y-74052000D02*
X134668000Y-73533000D01*
X134668000Y-73533000D02*
X135128000Y-73533000D01*
X134149000Y-71352000D02*
X134149000Y-74952000D01*
X128270000Y-99060000D02*
X128270000Y-98552000D01*
X128270000Y-98552000D02*
X127508000Y-97790000D01*
X128270000Y-99060000D02*
X128270000Y-99210000D01*
X121094500Y-79629000D02*
X121094500Y-83393783D01*
X121094500Y-83393783D02*
X120851883Y-83636400D01*
X118753779Y-83325134D02*
X118403780Y-82975135D01*
X120851883Y-83636400D02*
X119015436Y-83636400D01*
X119015436Y-83636400D02*
X118753779Y-83374743D01*
X118753779Y-83374743D02*
X118753779Y-83325134D01*
X118110000Y-96520000D02*
X119486399Y-95143601D01*
X119486399Y-95143601D02*
X121208529Y-95143601D01*
X121208529Y-95143601D02*
X121813601Y-94538529D01*
X121813601Y-94538529D02*
X121813601Y-87942390D01*
X121813601Y-87942390D02*
X121652807Y-87781596D01*
X121652807Y-87781596D02*
X121652807Y-85171805D01*
X121652807Y-85171805D02*
X121166751Y-84685749D01*
X121166751Y-84685749D02*
X118546026Y-84685749D01*
X118546026Y-84685749D02*
X118196027Y-84335750D01*
X117284500Y-83424223D02*
X117846028Y-83985751D01*
X117846028Y-83985751D02*
X118196027Y-84335750D01*
X117284500Y-79629000D02*
X117284500Y-83424223D01*
X120650000Y-99060000D02*
X120650000Y-97996400D01*
X120650000Y-97996400D02*
X120337201Y-97683601D01*
X120337201Y-97683601D02*
X117551471Y-97683601D01*
X117551471Y-97683601D02*
X116506854Y-96638984D01*
X116506854Y-96638984D02*
X116506854Y-86689144D01*
X116506854Y-86689144D02*
X117216998Y-85979000D01*
X117216998Y-85979000D02*
X117284500Y-85979000D01*
X117284500Y-85979000D02*
X117284500Y-84499970D01*
X117284500Y-84499970D02*
X117294191Y-84490279D01*
X122302808Y-86974621D02*
X122302808Y-87469595D01*
X117753778Y-83287137D02*
X118131337Y-83664696D01*
X117753778Y-80747222D02*
X117753778Y-83287137D01*
X118131337Y-83664696D02*
X118444240Y-83664696D01*
X118444240Y-83664696D02*
X118894804Y-84115260D01*
X118554500Y-79946500D02*
X117753778Y-80747222D01*
X118554500Y-79629000D02*
X118554500Y-79946500D01*
X118894804Y-84115260D02*
X121183911Y-84115260D01*
X121183911Y-84115260D02*
X122287988Y-85219337D01*
X122287988Y-86959801D02*
X122302808Y-86974621D01*
X122287988Y-85219337D02*
X122287988Y-86959801D01*
X120650000Y-96520000D02*
X122213611Y-94956389D01*
X122213611Y-94956389D02*
X122213611Y-88053766D01*
X122213611Y-88053766D02*
X122302808Y-87964569D01*
X122302808Y-87964569D02*
X122302808Y-87469595D01*
D31*
X130810000Y-96032000D02*
X130810000Y-95907000D01*
X130263999Y-92929999D02*
X130333999Y-92859999D01*
X130810000Y-95907000D02*
X130263999Y-95360999D01*
X130263999Y-95360999D02*
X130263999Y-92929999D01*
X130333999Y-92859999D02*
X133499999Y-92859999D01*
X133499999Y-92859999D02*
X134366000Y-93726000D01*
D33*
X135382000Y-88646000D02*
X135382000Y-92710000D01*
X135382000Y-92710000D02*
X134366000Y-93726000D01*
D31*
X130810000Y-96032000D02*
X130810000Y-95835998D01*
X130810000Y-95835998D02*
X129419002Y-94445000D01*
X129419002Y-94445000D02*
X127115000Y-94445000D01*
X127115000Y-94445000D02*
X126365000Y-94445000D01*
X126365000Y-95345000D02*
X126365000Y-95573712D01*
X126365000Y-95573712D02*
X124998250Y-96940462D01*
X126365000Y-94445000D02*
X126365000Y-95345000D01*
D33*
X117602000Y-72263000D02*
X117763848Y-72263000D01*
X117763848Y-72263000D02*
X121412000Y-68614848D01*
X121412000Y-68614848D02*
X121412000Y-68072000D01*
X117602000Y-73533000D02*
X117602000Y-72263000D01*
X117602000Y-74803000D02*
X118021205Y-74803000D01*
X118872000Y-73952205D02*
X118872000Y-72390000D01*
X118872000Y-72390000D02*
X121190129Y-70071871D01*
X118021205Y-74803000D02*
X118872000Y-73952205D01*
X124492129Y-70071871D02*
X126492000Y-68072000D01*
X121190129Y-70071871D02*
X124492129Y-70071871D01*
X117602000Y-76073000D02*
X117602000Y-74803000D01*
D32*
X121901110Y-73533000D02*
X121825755Y-73608355D01*
X123190000Y-73533000D02*
X121901110Y-73533000D01*
X121825755Y-73608355D02*
X121475756Y-73958354D01*
X125308000Y-72644000D02*
X124508000Y-72644000D01*
X124508000Y-72644000D02*
X123619000Y-73533000D01*
X123619000Y-73533000D02*
X123190000Y-73533000D01*
X125308000Y-75184000D02*
X125158000Y-75184000D01*
X125158000Y-75184000D02*
X124269000Y-76073000D01*
X124269000Y-76073000D02*
X124126600Y-76073000D01*
X124126600Y-76073000D02*
X123190000Y-76073000D01*
X123190000Y-76073000D02*
X121031000Y-76073000D01*
X121031000Y-76073000D02*
X119634000Y-77470000D01*
X129603500Y-75905000D02*
X128882500Y-75905000D01*
X128882500Y-75905000D02*
X128524000Y-76263500D01*
X129381999Y-89273430D02*
X128994579Y-89660850D01*
X129032000Y-85090000D02*
X129381999Y-85439999D01*
X128994579Y-89660850D02*
X128994579Y-89710160D01*
X129381999Y-85439999D02*
X129381999Y-89273430D01*
X128994579Y-89710160D02*
X128994579Y-90205134D01*
X131572000Y-75882500D02*
X131572000Y-74934551D01*
X131572000Y-74934551D02*
X130952147Y-74314698D01*
X129344001Y-84439999D02*
X129894021Y-84990019D01*
X128321224Y-84439999D02*
X129344001Y-84439999D01*
X129894021Y-84990019D02*
X129894021Y-89678157D01*
X129894021Y-89678157D02*
X129894021Y-90173131D01*
X128100559Y-84219334D02*
X128321224Y-84439999D01*
X126449000Y-88392000D02*
X126449000Y-89119727D01*
X126449000Y-89119727D02*
X126103481Y-89465246D01*
D31*
X128397000Y-88199000D02*
X126642000Y-88199000D01*
X126642000Y-88199000D02*
X126449000Y-88392000D01*
D32*
X123444000Y-96944000D02*
X123528000Y-96944000D01*
X123528000Y-96944000D02*
X124714000Y-95758000D01*
X119824500Y-82489336D02*
X119677436Y-82636400D01*
X119824500Y-79629000D02*
X119824500Y-82489336D01*
X119677436Y-82636400D02*
X119327437Y-82986399D01*
X133413000Y-78105000D02*
X133563000Y-78105000D01*
X129787989Y-82725606D02*
X129787989Y-81965209D01*
X128826402Y-83687193D02*
X129787989Y-82725606D01*
X129787989Y-81965209D02*
X132445999Y-79307199D01*
X132445999Y-79072001D02*
X133413000Y-78105000D01*
X132445999Y-79307199D02*
X132445999Y-79072001D01*
X126101389Y-83337194D02*
X128476403Y-83337194D01*
X123234049Y-90818622D02*
X123513622Y-90539049D01*
X122687999Y-85193001D02*
X122687999Y-83776721D01*
X124714847Y-82655580D02*
X125419775Y-82655580D01*
X123315696Y-85820698D02*
X122687999Y-85193001D01*
X123234049Y-91524188D02*
X123234049Y-90818622D01*
X123315696Y-89408000D02*
X123315696Y-85820698D01*
X123513622Y-90539049D02*
X123513622Y-89605926D01*
X124234705Y-83135722D02*
X124714847Y-82655580D01*
X125419775Y-82655580D02*
X126101389Y-83337194D01*
X128476403Y-83337194D02*
X128826402Y-83687193D01*
X122047000Y-83135722D02*
X124234705Y-83135722D01*
X122687999Y-83776721D02*
X122047000Y-83135722D01*
X123513622Y-89605926D02*
X123315696Y-89408000D01*
X124714000Y-98552000D02*
X124036000Y-98552000D01*
X124036000Y-98552000D02*
X123444000Y-99144000D01*
X124587000Y-92245000D02*
X124587000Y-89773152D01*
X124587000Y-89773152D02*
X124645392Y-89714760D01*
X124587000Y-92245000D02*
X126365000Y-92245000D01*
X124587000Y-92245000D02*
X124587000Y-92075000D01*
X122936000Y-92776000D02*
X124056000Y-92776000D01*
X124056000Y-92776000D02*
X124587000Y-92245000D01*
D34*
G36*
X122808998Y-95896217D02*
X122654887Y-95995385D01*
X122545973Y-96154785D01*
X122507656Y-96344000D01*
X122507656Y-97544000D01*
X122540917Y-97720765D01*
X122645385Y-97883113D01*
X122804785Y-97992027D01*
X122994000Y-98030344D01*
X123798097Y-98030344D01*
X123757222Y-98057656D01*
X122994000Y-98057656D01*
X122817235Y-98090917D01*
X122654887Y-98195385D01*
X122545973Y-98354785D01*
X122507656Y-98544000D01*
X122507656Y-99744000D01*
X122540917Y-99920765D01*
X122645385Y-100083113D01*
X122804785Y-100192027D01*
X122994000Y-100230344D01*
X123894000Y-100230344D01*
X124070765Y-100197083D01*
X124233113Y-100092615D01*
X124342027Y-99933215D01*
X124380344Y-99744000D01*
X124380344Y-99308916D01*
X124548778Y-99378856D01*
X124877779Y-99379143D01*
X125047656Y-99308951D01*
X125047656Y-99660000D01*
X125080917Y-99836765D01*
X125185385Y-99999113D01*
X125344785Y-100108027D01*
X125534000Y-100146344D01*
X126434000Y-100146344D01*
X126610765Y-100113083D01*
X126773113Y-100008615D01*
X126882027Y-99849215D01*
X126920344Y-99660000D01*
X126920344Y-98460000D01*
X126899915Y-98351429D01*
X127038930Y-98490688D01*
X127333656Y-98613068D01*
X127333656Y-99660000D01*
X127366917Y-99836765D01*
X127471385Y-99999113D01*
X127630785Y-100108027D01*
X127820000Y-100146344D01*
X128720000Y-100146344D01*
X128896765Y-100113083D01*
X129059113Y-100008615D01*
X129168027Y-99849215D01*
X129206344Y-99660000D01*
X129206344Y-98460000D01*
X129193654Y-98392558D01*
X129378154Y-98208380D01*
X129504322Y-97904532D01*
X129504594Y-97592515D01*
X129590992Y-97556728D01*
X129550000Y-97655691D01*
X129550000Y-98246250D01*
X129708750Y-98405000D01*
X130683000Y-98405000D01*
X130683000Y-98385000D01*
X130937000Y-98385000D01*
X130937000Y-98405000D01*
X130957000Y-98405000D01*
X130957000Y-98659000D01*
X130937000Y-98659000D01*
X130937000Y-98679000D01*
X130683000Y-98679000D01*
X130683000Y-98659000D01*
X129708750Y-98659000D01*
X129550000Y-98817750D01*
X129550000Y-99408309D01*
X129646673Y-99641698D01*
X129825301Y-99820327D01*
X130058690Y-99917000D01*
X130524001Y-99917000D01*
X129758000Y-100683000D01*
X129206344Y-100683000D01*
X129206344Y-100660000D01*
X129173083Y-100483235D01*
X129068615Y-100320887D01*
X128909215Y-100211973D01*
X128720000Y-100173656D01*
X127820000Y-100173656D01*
X127643235Y-100206917D01*
X127480887Y-100311385D01*
X127371973Y-100470785D01*
X127333656Y-100660000D01*
X127333656Y-101860000D01*
X127366917Y-102036765D01*
X127471385Y-102199113D01*
X127630785Y-102308027D01*
X127657050Y-102313346D01*
X127569312Y-102400930D01*
X127443144Y-102704778D01*
X127442857Y-103033779D01*
X127568495Y-103337846D01*
X127800930Y-103570688D01*
X127948587Y-103632000D01*
X126051437Y-103632000D01*
X126197846Y-103571505D01*
X126430688Y-103339070D01*
X126556856Y-103035222D01*
X126557143Y-102706221D01*
X126547632Y-102683203D01*
X126561000Y-102616000D01*
X126561000Y-102322447D01*
X126610765Y-102313083D01*
X126773113Y-102208615D01*
X126882027Y-102049215D01*
X126920344Y-101860000D01*
X126920344Y-100660000D01*
X126887083Y-100483235D01*
X126782615Y-100320887D01*
X126623215Y-100211973D01*
X126434000Y-100173656D01*
X125534000Y-100173656D01*
X125357235Y-100206917D01*
X125194887Y-100311385D01*
X125085973Y-100470785D01*
X125047656Y-100660000D01*
X125047656Y-101860000D01*
X125080917Y-102036765D01*
X125185385Y-102199113D01*
X125212751Y-102217812D01*
X125029312Y-102400930D01*
X124903144Y-102704778D01*
X124902857Y-103033779D01*
X125028495Y-103337846D01*
X125260930Y-103570688D01*
X125408587Y-103632000D01*
X121456000Y-103632000D01*
X121456000Y-101092000D01*
X121413982Y-100880759D01*
X121294323Y-100701677D01*
X121115241Y-100582018D01*
X120904000Y-100540000D01*
X116884000Y-100540000D01*
X116884000Y-99631119D01*
X117135789Y-100007947D01*
X117570711Y-100298553D01*
X118083736Y-100400600D01*
X118136264Y-100400600D01*
X118649289Y-100298553D01*
X119084211Y-100007947D01*
X119300056Y-99684913D01*
X119300056Y-99923600D01*
X119333317Y-100100365D01*
X119437785Y-100262713D01*
X119597185Y-100371627D01*
X119786400Y-100409944D01*
X121513600Y-100409944D01*
X121690365Y-100376683D01*
X121852713Y-100272215D01*
X121961627Y-100112815D01*
X121999944Y-99923600D01*
X121999944Y-98196400D01*
X121966683Y-98019635D01*
X121862215Y-97857287D01*
X121702815Y-97748373D01*
X121513600Y-97710056D01*
X121261870Y-97710056D01*
X121624211Y-97467947D01*
X121914817Y-97033025D01*
X122016864Y-96520000D01*
X121925470Y-96060532D01*
X122186488Y-95799514D01*
X122201301Y-95814327D01*
X122434690Y-95911000D01*
X122650250Y-95911000D01*
X122808998Y-95752252D01*
X122808998Y-95896217D01*
X122808998Y-95896217D01*
G37*
X122808998Y-95896217D02*
X122654887Y-95995385D01*
X122545973Y-96154785D01*
X122507656Y-96344000D01*
X122507656Y-97544000D01*
X122540917Y-97720765D01*
X122645385Y-97883113D01*
X122804785Y-97992027D01*
X122994000Y-98030344D01*
X123798097Y-98030344D01*
X123757222Y-98057656D01*
X122994000Y-98057656D01*
X122817235Y-98090917D01*
X122654887Y-98195385D01*
X122545973Y-98354785D01*
X122507656Y-98544000D01*
X122507656Y-99744000D01*
X122540917Y-99920765D01*
X122645385Y-100083113D01*
X122804785Y-100192027D01*
X122994000Y-100230344D01*
X123894000Y-100230344D01*
X124070765Y-100197083D01*
X124233113Y-100092615D01*
X124342027Y-99933215D01*
X124380344Y-99744000D01*
X124380344Y-99308916D01*
X124548778Y-99378856D01*
X124877779Y-99379143D01*
X125047656Y-99308951D01*
X125047656Y-99660000D01*
X125080917Y-99836765D01*
X125185385Y-99999113D01*
X125344785Y-100108027D01*
X125534000Y-100146344D01*
X126434000Y-100146344D01*
X126610765Y-100113083D01*
X126773113Y-100008615D01*
X126882027Y-99849215D01*
X126920344Y-99660000D01*
X126920344Y-98460000D01*
X126899915Y-98351429D01*
X127038930Y-98490688D01*
X127333656Y-98613068D01*
X127333656Y-99660000D01*
X127366917Y-99836765D01*
X127471385Y-99999113D01*
X127630785Y-100108027D01*
X127820000Y-100146344D01*
X128720000Y-100146344D01*
X128896765Y-100113083D01*
X129059113Y-100008615D01*
X129168027Y-99849215D01*
X129206344Y-99660000D01*
X129206344Y-98460000D01*
X129193654Y-98392558D01*
X129378154Y-98208380D01*
X129504322Y-97904532D01*
X129504594Y-97592515D01*
X129590992Y-97556728D01*
X129550000Y-97655691D01*
X129550000Y-98246250D01*
X129708750Y-98405000D01*
X130683000Y-98405000D01*
X130683000Y-98385000D01*
X130937000Y-98385000D01*
X130937000Y-98405000D01*
X130957000Y-98405000D01*
X130957000Y-98659000D01*
X130937000Y-98659000D01*
X130937000Y-98679000D01*
X130683000Y-98679000D01*
X130683000Y-98659000D01*
X129708750Y-98659000D01*
X129550000Y-98817750D01*
X129550000Y-99408309D01*
X129646673Y-99641698D01*
X129825301Y-99820327D01*
X130058690Y-99917000D01*
X130524001Y-99917000D01*
X129758000Y-100683000D01*
X129206344Y-100683000D01*
X129206344Y-100660000D01*
X129173083Y-100483235D01*
X129068615Y-100320887D01*
X128909215Y-100211973D01*
X128720000Y-100173656D01*
X127820000Y-100173656D01*
X127643235Y-100206917D01*
X127480887Y-100311385D01*
X127371973Y-100470785D01*
X127333656Y-100660000D01*
X127333656Y-101860000D01*
X127366917Y-102036765D01*
X127471385Y-102199113D01*
X127630785Y-102308027D01*
X127657050Y-102313346D01*
X127569312Y-102400930D01*
X127443144Y-102704778D01*
X127442857Y-103033779D01*
X127568495Y-103337846D01*
X127800930Y-103570688D01*
X127948587Y-103632000D01*
X126051437Y-103632000D01*
X126197846Y-103571505D01*
X126430688Y-103339070D01*
X126556856Y-103035222D01*
X126557143Y-102706221D01*
X126547632Y-102683203D01*
X126561000Y-102616000D01*
X126561000Y-102322447D01*
X126610765Y-102313083D01*
X126773113Y-102208615D01*
X126882027Y-102049215D01*
X126920344Y-101860000D01*
X126920344Y-100660000D01*
X126887083Y-100483235D01*
X126782615Y-100320887D01*
X126623215Y-100211973D01*
X126434000Y-100173656D01*
X125534000Y-100173656D01*
X125357235Y-100206917D01*
X125194887Y-100311385D01*
X125085973Y-100470785D01*
X125047656Y-100660000D01*
X125047656Y-101860000D01*
X125080917Y-102036765D01*
X125185385Y-102199113D01*
X125212751Y-102217812D01*
X125029312Y-102400930D01*
X124903144Y-102704778D01*
X124902857Y-103033779D01*
X125028495Y-103337846D01*
X125260930Y-103570688D01*
X125408587Y-103632000D01*
X121456000Y-103632000D01*
X121456000Y-101092000D01*
X121413982Y-100880759D01*
X121294323Y-100701677D01*
X121115241Y-100582018D01*
X120904000Y-100540000D01*
X116884000Y-100540000D01*
X116884000Y-99631119D01*
X117135789Y-100007947D01*
X117570711Y-100298553D01*
X118083736Y-100400600D01*
X118136264Y-100400600D01*
X118649289Y-100298553D01*
X119084211Y-100007947D01*
X119300056Y-99684913D01*
X119300056Y-99923600D01*
X119333317Y-100100365D01*
X119437785Y-100262713D01*
X119597185Y-100371627D01*
X119786400Y-100409944D01*
X121513600Y-100409944D01*
X121690365Y-100376683D01*
X121852713Y-100272215D01*
X121961627Y-100112815D01*
X121999944Y-99923600D01*
X121999944Y-98196400D01*
X121966683Y-98019635D01*
X121862215Y-97857287D01*
X121702815Y-97748373D01*
X121513600Y-97710056D01*
X121261870Y-97710056D01*
X121624211Y-97467947D01*
X121914817Y-97033025D01*
X122016864Y-96520000D01*
X121925470Y-96060532D01*
X122186488Y-95799514D01*
X122201301Y-95814327D01*
X122434690Y-95911000D01*
X122650250Y-95911000D01*
X122808998Y-95752252D01*
X122808998Y-95896217D01*
G36*
X132476889Y-94985880D02*
X133102825Y-95612909D01*
X133921067Y-95952673D01*
X134807046Y-95953446D01*
X135625880Y-95615111D01*
X136100000Y-95141817D01*
X136100000Y-97312798D01*
X136060571Y-97291034D01*
X134545605Y-98806000D01*
X136060571Y-100320966D01*
X136100000Y-100299202D01*
X136100000Y-100540000D01*
X135859202Y-100540000D01*
X135880966Y-100500571D01*
X134366000Y-98985605D01*
X132851034Y-100500571D01*
X132894880Y-100580005D01*
X132884759Y-100582018D01*
X132705677Y-100701677D01*
X132586018Y-100880759D01*
X132544000Y-101092000D01*
X132544000Y-103632000D01*
X131344467Y-103632000D01*
X131510688Y-103466070D01*
X131636856Y-103162222D01*
X131637143Y-102833221D01*
X131511505Y-102529154D01*
X131279070Y-102296312D01*
X130975222Y-102170144D01*
X130646221Y-102169857D01*
X130342154Y-102295495D01*
X130109312Y-102527930D01*
X129983144Y-102831778D01*
X129982857Y-103160779D01*
X130108495Y-103464846D01*
X130275357Y-103632000D01*
X128591437Y-103632000D01*
X128737846Y-103571505D01*
X128970688Y-103339070D01*
X129096856Y-103035222D01*
X129097143Y-102706221D01*
X128971505Y-102402154D01*
X128884831Y-102315329D01*
X128896765Y-102313083D01*
X129059113Y-102208615D01*
X129168027Y-102049215D01*
X129206344Y-101860000D01*
X129206344Y-101837000D01*
X129996997Y-101837000D01*
X129997002Y-101837001D01*
X130217810Y-101793078D01*
X130405003Y-101668001D01*
X132142999Y-99930004D01*
X132143002Y-99930002D01*
X132205078Y-99837097D01*
X132326681Y-100130672D01*
X132671429Y-100320966D01*
X134186395Y-98806000D01*
X132671429Y-97291034D01*
X132326681Y-97481328D01*
X132312001Y-97518112D01*
X132312001Y-97111429D01*
X132851034Y-97111429D01*
X134366000Y-98626395D01*
X135880966Y-97111429D01*
X135690672Y-96766681D01*
X134809424Y-96414985D01*
X133860668Y-96427299D01*
X133041328Y-96766681D01*
X132851034Y-97111429D01*
X132312001Y-97111429D01*
X132312001Y-94631006D01*
X132312002Y-94631001D01*
X132295056Y-94545810D01*
X132476889Y-94985880D01*
X132476889Y-94985880D01*
G37*
X132476889Y-94985880D02*
X133102825Y-95612909D01*
X133921067Y-95952673D01*
X134807046Y-95953446D01*
X135625880Y-95615111D01*
X136100000Y-95141817D01*
X136100000Y-97312798D01*
X136060571Y-97291034D01*
X134545605Y-98806000D01*
X136060571Y-100320966D01*
X136100000Y-100299202D01*
X136100000Y-100540000D01*
X135859202Y-100540000D01*
X135880966Y-100500571D01*
X134366000Y-98985605D01*
X132851034Y-100500571D01*
X132894880Y-100580005D01*
X132884759Y-100582018D01*
X132705677Y-100701677D01*
X132586018Y-100880759D01*
X132544000Y-101092000D01*
X132544000Y-103632000D01*
X131344467Y-103632000D01*
X131510688Y-103466070D01*
X131636856Y-103162222D01*
X131637143Y-102833221D01*
X131511505Y-102529154D01*
X131279070Y-102296312D01*
X130975222Y-102170144D01*
X130646221Y-102169857D01*
X130342154Y-102295495D01*
X130109312Y-102527930D01*
X129983144Y-102831778D01*
X129982857Y-103160779D01*
X130108495Y-103464846D01*
X130275357Y-103632000D01*
X128591437Y-103632000D01*
X128737846Y-103571505D01*
X128970688Y-103339070D01*
X129096856Y-103035222D01*
X129097143Y-102706221D01*
X128971505Y-102402154D01*
X128884831Y-102315329D01*
X128896765Y-102313083D01*
X129059113Y-102208615D01*
X129168027Y-102049215D01*
X129206344Y-101860000D01*
X129206344Y-101837000D01*
X129996997Y-101837000D01*
X129997002Y-101837001D01*
X130217810Y-101793078D01*
X130405003Y-101668001D01*
X132142999Y-99930004D01*
X132143002Y-99930002D01*
X132205078Y-99837097D01*
X132326681Y-100130672D01*
X132671429Y-100320966D01*
X134186395Y-98806000D01*
X132671429Y-97291034D01*
X132326681Y-97481328D01*
X132312001Y-97518112D01*
X132312001Y-97111429D01*
X132851034Y-97111429D01*
X134366000Y-98626395D01*
X135880966Y-97111429D01*
X135690672Y-96766681D01*
X134809424Y-96414985D01*
X133860668Y-96427299D01*
X133041328Y-96766681D01*
X132851034Y-97111429D01*
X132312001Y-97111429D01*
X132312001Y-94631006D01*
X132312002Y-94631001D01*
X132295056Y-94545810D01*
X132476889Y-94985880D01*
G36*
X127089000Y-95694250D02*
X127247750Y-95853000D01*
X128397000Y-95853000D01*
X128397000Y-95833000D01*
X128651000Y-95833000D01*
X128651000Y-95853000D01*
X128671000Y-95853000D01*
X128671000Y-96107000D01*
X128651000Y-96107000D01*
X128651000Y-96127000D01*
X128397000Y-96127000D01*
X128397000Y-96107000D01*
X127247750Y-96107000D01*
X127089000Y-96265750D01*
X127089000Y-97068312D01*
X127040154Y-97088495D01*
X126807312Y-97320930D01*
X126746005Y-97468575D01*
X126685505Y-97322154D01*
X126453070Y-97089312D01*
X126149222Y-96963144D01*
X125910231Y-96962936D01*
X125910272Y-96915152D01*
X126808356Y-96017068D01*
X126870360Y-95924272D01*
X126944272Y-95813655D01*
X126992000Y-95573712D01*
X126992000Y-95497932D01*
X127089000Y-95435514D01*
X127089000Y-95694250D01*
X127089000Y-95694250D01*
G37*
X127089000Y-95694250D02*
X127247750Y-95853000D01*
X128397000Y-95853000D01*
X128397000Y-95833000D01*
X128651000Y-95833000D01*
X128651000Y-95853000D01*
X128671000Y-95853000D01*
X128671000Y-96107000D01*
X128651000Y-96107000D01*
X128651000Y-96127000D01*
X128397000Y-96127000D01*
X128397000Y-96107000D01*
X127247750Y-96107000D01*
X127089000Y-96265750D01*
X127089000Y-97068312D01*
X127040154Y-97088495D01*
X126807312Y-97320930D01*
X126746005Y-97468575D01*
X126685505Y-97322154D01*
X126453070Y-97089312D01*
X126149222Y-96963144D01*
X125910231Y-96962936D01*
X125910272Y-96915152D01*
X126808356Y-96017068D01*
X126870360Y-95924272D01*
X126944272Y-95813655D01*
X126992000Y-95573712D01*
X126992000Y-95497932D01*
X127089000Y-95435514D01*
X127089000Y-95694250D01*
G36*
X123063000Y-94549000D02*
X123083000Y-94549000D01*
X123083000Y-94803000D01*
X123063000Y-94803000D01*
X123063000Y-94823000D01*
X122809000Y-94823000D01*
X122809000Y-94803000D01*
X122790611Y-94803000D01*
X122790611Y-94549000D01*
X122809000Y-94549000D01*
X122809000Y-94529000D01*
X123063000Y-94529000D01*
X123063000Y-94549000D01*
X123063000Y-94549000D01*
G37*
X123063000Y-94549000D02*
X123083000Y-94549000D01*
X123083000Y-94803000D01*
X123063000Y-94803000D01*
X123063000Y-94823000D01*
X122809000Y-94823000D01*
X122809000Y-94803000D01*
X122790611Y-94803000D01*
X122790611Y-94549000D01*
X122809000Y-94549000D01*
X122809000Y-94529000D01*
X123063000Y-94529000D01*
X123063000Y-94549000D01*
G36*
X124714000Y-94318000D02*
X124734000Y-94318000D01*
X124734000Y-94572000D01*
X124714000Y-94572000D01*
X124714000Y-94592000D01*
X124460000Y-94592000D01*
X124460000Y-94572000D01*
X124440000Y-94572000D01*
X124440000Y-94318000D01*
X124460000Y-94318000D01*
X124460000Y-94298000D01*
X124714000Y-94298000D01*
X124714000Y-94318000D01*
X124714000Y-94318000D01*
G37*
X124714000Y-94318000D02*
X124734000Y-94318000D01*
X124734000Y-94572000D01*
X124714000Y-94572000D01*
X124714000Y-94592000D01*
X124460000Y-94592000D01*
X124460000Y-94572000D01*
X124440000Y-94572000D01*
X124440000Y-94318000D01*
X124460000Y-94318000D01*
X124460000Y-94298000D01*
X124714000Y-94298000D01*
X124714000Y-94318000D01*
G36*
X119894000Y-89944500D02*
X119894000Y-90196750D01*
X120052750Y-90355500D01*
X120777000Y-90355500D01*
X120777000Y-90335500D01*
X121031000Y-90335500D01*
X121031000Y-90355500D01*
X121051000Y-90355500D01*
X121051000Y-90609500D01*
X121031000Y-90609500D01*
X121031000Y-91558750D01*
X121189750Y-91717500D01*
X121236601Y-91717500D01*
X121236601Y-92773060D01*
X121189289Y-92741447D01*
X120676264Y-92639400D01*
X120623736Y-92639400D01*
X120110711Y-92741447D01*
X119675789Y-93032053D01*
X119456787Y-93359812D01*
X119392688Y-93205053D01*
X118998490Y-92773179D01*
X118469027Y-92525032D01*
X118237000Y-92645531D01*
X118237000Y-93853000D01*
X118257000Y-93853000D01*
X118257000Y-94107000D01*
X118237000Y-94107000D01*
X118237000Y-94127000D01*
X117983000Y-94127000D01*
X117983000Y-94107000D01*
X117963000Y-94107000D01*
X117963000Y-93853000D01*
X117983000Y-93853000D01*
X117983000Y-92645531D01*
X117750973Y-92525032D01*
X117221510Y-92773179D01*
X117083854Y-92923992D01*
X117083854Y-92031880D01*
X117125301Y-92073327D01*
X117358690Y-92170000D01*
X117824250Y-92170000D01*
X117983000Y-92011250D01*
X117983000Y-90912000D01*
X118237000Y-90912000D01*
X118237000Y-92011250D01*
X118395750Y-92170000D01*
X118861310Y-92170000D01*
X119094699Y-92073327D01*
X119273327Y-91894698D01*
X119370000Y-91661309D01*
X119370000Y-91070750D01*
X119211250Y-90912000D01*
X118237000Y-90912000D01*
X117983000Y-90912000D01*
X117963000Y-90912000D01*
X117963000Y-90768250D01*
X119894000Y-90768250D01*
X119894000Y-91208809D01*
X119990673Y-91442198D01*
X120169301Y-91620827D01*
X120402690Y-91717500D01*
X120618250Y-91717500D01*
X120777000Y-91558750D01*
X120777000Y-90609500D01*
X120052750Y-90609500D01*
X119894000Y-90768250D01*
X117963000Y-90768250D01*
X117963000Y-90658000D01*
X117983000Y-90658000D01*
X117983000Y-90638000D01*
X118237000Y-90638000D01*
X118237000Y-90658000D01*
X119211250Y-90658000D01*
X119370000Y-90499250D01*
X119370000Y-89940308D01*
X119894000Y-89944500D01*
X119894000Y-89944500D01*
G37*
X119894000Y-89944500D02*
X119894000Y-90196750D01*
X120052750Y-90355500D01*
X120777000Y-90355500D01*
X120777000Y-90335500D01*
X121031000Y-90335500D01*
X121031000Y-90355500D01*
X121051000Y-90355500D01*
X121051000Y-90609500D01*
X121031000Y-90609500D01*
X121031000Y-91558750D01*
X121189750Y-91717500D01*
X121236601Y-91717500D01*
X121236601Y-92773060D01*
X121189289Y-92741447D01*
X120676264Y-92639400D01*
X120623736Y-92639400D01*
X120110711Y-92741447D01*
X119675789Y-93032053D01*
X119456787Y-93359812D01*
X119392688Y-93205053D01*
X118998490Y-92773179D01*
X118469027Y-92525032D01*
X118237000Y-92645531D01*
X118237000Y-93853000D01*
X118257000Y-93853000D01*
X118257000Y-94107000D01*
X118237000Y-94107000D01*
X118237000Y-94127000D01*
X117983000Y-94127000D01*
X117983000Y-94107000D01*
X117963000Y-94107000D01*
X117963000Y-93853000D01*
X117983000Y-93853000D01*
X117983000Y-92645531D01*
X117750973Y-92525032D01*
X117221510Y-92773179D01*
X117083854Y-92923992D01*
X117083854Y-92031880D01*
X117125301Y-92073327D01*
X117358690Y-92170000D01*
X117824250Y-92170000D01*
X117983000Y-92011250D01*
X117983000Y-90912000D01*
X118237000Y-90912000D01*
X118237000Y-92011250D01*
X118395750Y-92170000D01*
X118861310Y-92170000D01*
X119094699Y-92073327D01*
X119273327Y-91894698D01*
X119370000Y-91661309D01*
X119370000Y-91070750D01*
X119211250Y-90912000D01*
X118237000Y-90912000D01*
X117983000Y-90912000D01*
X117963000Y-90912000D01*
X117963000Y-90768250D01*
X119894000Y-90768250D01*
X119894000Y-91208809D01*
X119990673Y-91442198D01*
X120169301Y-91620827D01*
X120402690Y-91717500D01*
X120618250Y-91717500D01*
X120777000Y-91558750D01*
X120777000Y-90609500D01*
X120052750Y-90609500D01*
X119894000Y-90768250D01*
X117963000Y-90768250D01*
X117963000Y-90658000D01*
X117983000Y-90658000D01*
X117983000Y-90638000D01*
X118237000Y-90638000D01*
X118237000Y-90658000D01*
X119211250Y-90658000D01*
X119370000Y-90499250D01*
X119370000Y-89940308D01*
X119894000Y-89944500D01*
G36*
X136100000Y-87122000D02*
X134239000Y-87122000D01*
X134189590Y-87132006D01*
X134147965Y-87160447D01*
X134120685Y-87202841D01*
X134113429Y-87241403D01*
X133963698Y-87091673D01*
X133730309Y-86995000D01*
X133381750Y-86995000D01*
X133223000Y-87153750D01*
X133223000Y-88519000D01*
X133243000Y-88519000D01*
X133243000Y-88773000D01*
X133223000Y-88773000D01*
X133223000Y-90138250D01*
X133381750Y-90297000D01*
X133730309Y-90297000D01*
X133963698Y-90200327D01*
X134142327Y-90021699D01*
X134149173Y-90005171D01*
X134150447Y-90007035D01*
X134192841Y-90034315D01*
X134239000Y-90043000D01*
X134586688Y-90043000D01*
X134605000Y-90055512D01*
X134605000Y-91499147D01*
X133924954Y-91498554D01*
X133106120Y-91836889D01*
X132709318Y-92232999D01*
X131995687Y-92232999D01*
X132000344Y-92210000D01*
X132000344Y-91010000D01*
X131967083Y-90833235D01*
X131862615Y-90670887D01*
X131703215Y-90561973D01*
X131641000Y-90549374D01*
X131641000Y-90424000D01*
X131627718Y-90357229D01*
X131636856Y-90335222D01*
X131637115Y-90038445D01*
X132069881Y-90041907D01*
X132228302Y-90200327D01*
X132461691Y-90297000D01*
X132810250Y-90297000D01*
X132969000Y-90138250D01*
X132969000Y-88773000D01*
X132949000Y-88773000D01*
X132949000Y-88519000D01*
X132969000Y-88519000D01*
X132969000Y-87153750D01*
X132810250Y-86995000D01*
X132461691Y-86995000D01*
X132228302Y-87091673D01*
X132070974Y-87249000D01*
X131605312Y-87249000D01*
X131507215Y-87181973D01*
X131318000Y-87143656D01*
X131318000Y-83693000D01*
X132810250Y-83693000D01*
X132969000Y-83534250D01*
X132969000Y-82169000D01*
X133223000Y-82169000D01*
X133223000Y-83534250D01*
X133381750Y-83693000D01*
X133461476Y-83693000D01*
X133461235Y-83969148D01*
X133586873Y-84273215D01*
X133711378Y-84397938D01*
X133711378Y-84582031D01*
X133622314Y-84670939D01*
X133496146Y-84974787D01*
X133495859Y-85303788D01*
X133621497Y-85607855D01*
X133853932Y-85840697D01*
X134157780Y-85966865D01*
X134486781Y-85967152D01*
X134790848Y-85841514D01*
X135023690Y-85609079D01*
X135149858Y-85305231D01*
X135150145Y-84976230D01*
X135024507Y-84672163D01*
X134865378Y-84512755D01*
X134865378Y-84397911D01*
X134989066Y-84274439D01*
X135115234Y-83970591D01*
X135115499Y-83666329D01*
X135284498Y-83596327D01*
X135463127Y-83417699D01*
X135559800Y-83184310D01*
X135559800Y-82327750D01*
X135401050Y-82169000D01*
X133223000Y-82169000D01*
X132969000Y-82169000D01*
X132949000Y-82169000D01*
X132949000Y-81915000D01*
X132969000Y-81915000D01*
X132969000Y-81895000D01*
X133223000Y-81895000D01*
X133223000Y-81915000D01*
X135401050Y-81915000D01*
X135559800Y-81756250D01*
X135559800Y-80899690D01*
X135559514Y-80899000D01*
X136100000Y-80899000D01*
X136100000Y-87122000D01*
X136100000Y-87122000D01*
G37*
X136100000Y-87122000D02*
X134239000Y-87122000D01*
X134189590Y-87132006D01*
X134147965Y-87160447D01*
X134120685Y-87202841D01*
X134113429Y-87241403D01*
X133963698Y-87091673D01*
X133730309Y-86995000D01*
X133381750Y-86995000D01*
X133223000Y-87153750D01*
X133223000Y-88519000D01*
X133243000Y-88519000D01*
X133243000Y-88773000D01*
X133223000Y-88773000D01*
X133223000Y-90138250D01*
X133381750Y-90297000D01*
X133730309Y-90297000D01*
X133963698Y-90200327D01*
X134142327Y-90021699D01*
X134149173Y-90005171D01*
X134150447Y-90007035D01*
X134192841Y-90034315D01*
X134239000Y-90043000D01*
X134586688Y-90043000D01*
X134605000Y-90055512D01*
X134605000Y-91499147D01*
X133924954Y-91498554D01*
X133106120Y-91836889D01*
X132709318Y-92232999D01*
X131995687Y-92232999D01*
X132000344Y-92210000D01*
X132000344Y-91010000D01*
X131967083Y-90833235D01*
X131862615Y-90670887D01*
X131703215Y-90561973D01*
X131641000Y-90549374D01*
X131641000Y-90424000D01*
X131627718Y-90357229D01*
X131636856Y-90335222D01*
X131637115Y-90038445D01*
X132069881Y-90041907D01*
X132228302Y-90200327D01*
X132461691Y-90297000D01*
X132810250Y-90297000D01*
X132969000Y-90138250D01*
X132969000Y-88773000D01*
X132949000Y-88773000D01*
X132949000Y-88519000D01*
X132969000Y-88519000D01*
X132969000Y-87153750D01*
X132810250Y-86995000D01*
X132461691Y-86995000D01*
X132228302Y-87091673D01*
X132070974Y-87249000D01*
X131605312Y-87249000D01*
X131507215Y-87181973D01*
X131318000Y-87143656D01*
X131318000Y-83693000D01*
X132810250Y-83693000D01*
X132969000Y-83534250D01*
X132969000Y-82169000D01*
X133223000Y-82169000D01*
X133223000Y-83534250D01*
X133381750Y-83693000D01*
X133461476Y-83693000D01*
X133461235Y-83969148D01*
X133586873Y-84273215D01*
X133711378Y-84397938D01*
X133711378Y-84582031D01*
X133622314Y-84670939D01*
X133496146Y-84974787D01*
X133495859Y-85303788D01*
X133621497Y-85607855D01*
X133853932Y-85840697D01*
X134157780Y-85966865D01*
X134486781Y-85967152D01*
X134790848Y-85841514D01*
X135023690Y-85609079D01*
X135149858Y-85305231D01*
X135150145Y-84976230D01*
X135024507Y-84672163D01*
X134865378Y-84512755D01*
X134865378Y-84397911D01*
X134989066Y-84274439D01*
X135115234Y-83970591D01*
X135115499Y-83666329D01*
X135284498Y-83596327D01*
X135463127Y-83417699D01*
X135559800Y-83184310D01*
X135559800Y-82327750D01*
X135401050Y-82169000D01*
X133223000Y-82169000D01*
X132969000Y-82169000D01*
X132949000Y-82169000D01*
X132949000Y-81915000D01*
X132969000Y-81915000D01*
X132969000Y-81895000D01*
X133223000Y-81895000D01*
X133223000Y-81915000D01*
X135401050Y-81915000D01*
X135559800Y-81756250D01*
X135559800Y-80899690D01*
X135559514Y-80899000D01*
X136100000Y-80899000D01*
X136100000Y-87122000D01*
G36*
X122936622Y-89968841D02*
X122936622Y-90300047D01*
X122826048Y-90410621D01*
X122790611Y-90463657D01*
X122790611Y-89967673D01*
X122936622Y-89968841D01*
X122936622Y-89968841D01*
G37*
X122936622Y-89968841D02*
X122936622Y-90300047D01*
X122826048Y-90410621D01*
X122790611Y-90463657D01*
X122790611Y-89967673D01*
X122936622Y-89968841D01*
G36*
X126365000Y-84201000D02*
X126385000Y-84201000D01*
X126385000Y-84455000D01*
X126365000Y-84455000D01*
X126365000Y-85429250D01*
X126523750Y-85588000D01*
X127114309Y-85588000D01*
X127347698Y-85491327D01*
X127472323Y-85366702D01*
X127387000Y-85572691D01*
X127387000Y-85892924D01*
X127315944Y-85892862D01*
X127310327Y-85879301D01*
X127131698Y-85700673D01*
X126898309Y-85604000D01*
X126457750Y-85604000D01*
X126299000Y-85762750D01*
X126299000Y-86487000D01*
X126319000Y-86487000D01*
X126319000Y-86741000D01*
X126299000Y-86741000D01*
X126299000Y-86761000D01*
X126045000Y-86761000D01*
X126045000Y-86741000D01*
X126025000Y-86741000D01*
X126025000Y-86487000D01*
X126045000Y-86487000D01*
X126045000Y-85762750D01*
X125886250Y-85604000D01*
X125476000Y-85604000D01*
X125476000Y-85588000D01*
X125952250Y-85588000D01*
X126111000Y-85429250D01*
X126111000Y-84455000D01*
X126091000Y-84455000D01*
X126091000Y-84201000D01*
X126111000Y-84201000D01*
X126111000Y-84181000D01*
X126365000Y-84181000D01*
X126365000Y-84201000D01*
X126365000Y-84201000D01*
G37*
X126365000Y-84201000D02*
X126385000Y-84201000D01*
X126385000Y-84455000D01*
X126365000Y-84455000D01*
X126365000Y-85429250D01*
X126523750Y-85588000D01*
X127114309Y-85588000D01*
X127347698Y-85491327D01*
X127472323Y-85366702D01*
X127387000Y-85572691D01*
X127387000Y-85892924D01*
X127315944Y-85892862D01*
X127310327Y-85879301D01*
X127131698Y-85700673D01*
X126898309Y-85604000D01*
X126457750Y-85604000D01*
X126299000Y-85762750D01*
X126299000Y-86487000D01*
X126319000Y-86487000D01*
X126319000Y-86741000D01*
X126299000Y-86741000D01*
X126299000Y-86761000D01*
X126045000Y-86761000D01*
X126045000Y-86741000D01*
X126025000Y-86741000D01*
X126025000Y-86487000D01*
X126045000Y-86487000D01*
X126045000Y-85762750D01*
X125886250Y-85604000D01*
X125476000Y-85604000D01*
X125476000Y-85588000D01*
X125952250Y-85588000D01*
X126111000Y-85429250D01*
X126111000Y-84455000D01*
X126091000Y-84455000D01*
X126091000Y-84201000D01*
X126111000Y-84201000D01*
X126111000Y-84181000D01*
X126365000Y-84181000D01*
X126365000Y-84201000D01*
G36*
X128524000Y-86446000D02*
X128270000Y-86446000D01*
X128270000Y-86426000D01*
X128250000Y-86426000D01*
X128250000Y-86172000D01*
X128270000Y-86172000D01*
X128270000Y-86152000D01*
X128524000Y-86152000D01*
X128524000Y-86446000D01*
X128524000Y-86446000D01*
G37*
X128524000Y-86446000D02*
X128270000Y-86446000D01*
X128270000Y-86426000D01*
X128250000Y-86426000D01*
X128250000Y-86172000D01*
X128270000Y-86172000D01*
X128270000Y-86152000D01*
X128524000Y-86152000D01*
X128524000Y-86446000D01*
G36*
X127631489Y-84920022D02*
X127935337Y-85046190D01*
X128205038Y-85046425D01*
X128204941Y-85157691D01*
X128111250Y-85064000D01*
X127895690Y-85064000D01*
X127662301Y-85160673D01*
X127537677Y-85285298D01*
X127623000Y-85079310D01*
X127623000Y-84911518D01*
X127631489Y-84920022D01*
X127631489Y-84920022D01*
G37*
X127631489Y-84920022D02*
X127935337Y-85046190D01*
X128205038Y-85046425D01*
X128204941Y-85157691D01*
X128111250Y-85064000D01*
X127895690Y-85064000D01*
X127662301Y-85160673D01*
X127537677Y-85285298D01*
X127623000Y-85079310D01*
X127623000Y-84911518D01*
X127631489Y-84920022D01*
D32*
G36*
X120503000Y-85904000D02*
X121019500Y-85904000D01*
X121019500Y-85884000D01*
X121102807Y-85884000D01*
X121102807Y-87532500D01*
X121091500Y-87532500D01*
X120979000Y-87645000D01*
X120979000Y-88507500D01*
X120999000Y-88507500D01*
X120999000Y-88657500D01*
X120979000Y-88657500D01*
X120979000Y-88677500D01*
X120829000Y-88677500D01*
X120829000Y-88657500D01*
X120191500Y-88657500D01*
X120079000Y-88770000D01*
X120079000Y-89272011D01*
X120093907Y-89308000D01*
X119098396Y-89308000D01*
X119116491Y-89289905D01*
X119185000Y-89124511D01*
X119185000Y-88472500D01*
X119072500Y-88360000D01*
X118464000Y-88360000D01*
X118464000Y-88210000D01*
X119072500Y-88210000D01*
X119185000Y-88097500D01*
X119185000Y-87892989D01*
X120079000Y-87892989D01*
X120079000Y-88395000D01*
X120191500Y-88507500D01*
X120829000Y-88507500D01*
X120829000Y-87645000D01*
X120716500Y-87532500D01*
X120439490Y-87532500D01*
X120274096Y-87601008D01*
X120147509Y-87727595D01*
X120079000Y-87892989D01*
X119185000Y-87892989D01*
X119185000Y-87730000D01*
X119380000Y-87730000D01*
X119418906Y-87722121D01*
X119451681Y-87699727D01*
X119473161Y-87666346D01*
X119480000Y-87630000D01*
X119480000Y-87000090D01*
X119480989Y-87000500D01*
X119637000Y-87000500D01*
X119749500Y-86888000D01*
X119749500Y-86054000D01*
X119899500Y-86054000D01*
X119899500Y-86888000D01*
X120012000Y-87000500D01*
X120168011Y-87000500D01*
X120333405Y-86931991D01*
X120459500Y-86805896D01*
X120585595Y-86931991D01*
X120750989Y-87000500D01*
X120907000Y-87000500D01*
X121019500Y-86888000D01*
X121019500Y-86054000D01*
X120503000Y-86054000D01*
X120459500Y-86097500D01*
X120416000Y-86054000D01*
X119899500Y-86054000D01*
X119749500Y-86054000D01*
X119729500Y-86054000D01*
X119729500Y-85904000D01*
X119749500Y-85904000D01*
X119749500Y-85884000D01*
X119899500Y-85884000D01*
X119899500Y-85904000D01*
X120416000Y-85904000D01*
X120459500Y-85860500D01*
X120503000Y-85904000D01*
X120503000Y-85904000D01*
G37*
X120503000Y-85904000D02*
X121019500Y-85904000D01*
X121019500Y-85884000D01*
X121102807Y-85884000D01*
X121102807Y-87532500D01*
X121091500Y-87532500D01*
X120979000Y-87645000D01*
X120979000Y-88507500D01*
X120999000Y-88507500D01*
X120999000Y-88657500D01*
X120979000Y-88657500D01*
X120979000Y-88677500D01*
X120829000Y-88677500D01*
X120829000Y-88657500D01*
X120191500Y-88657500D01*
X120079000Y-88770000D01*
X120079000Y-89272011D01*
X120093907Y-89308000D01*
X119098396Y-89308000D01*
X119116491Y-89289905D01*
X119185000Y-89124511D01*
X119185000Y-88472500D01*
X119072500Y-88360000D01*
X118464000Y-88360000D01*
X118464000Y-88210000D01*
X119072500Y-88210000D01*
X119185000Y-88097500D01*
X119185000Y-87892989D01*
X120079000Y-87892989D01*
X120079000Y-88395000D01*
X120191500Y-88507500D01*
X120829000Y-88507500D01*
X120829000Y-87645000D01*
X120716500Y-87532500D01*
X120439490Y-87532500D01*
X120274096Y-87601008D01*
X120147509Y-87727595D01*
X120079000Y-87892989D01*
X119185000Y-87892989D01*
X119185000Y-87730000D01*
X119380000Y-87730000D01*
X119418906Y-87722121D01*
X119451681Y-87699727D01*
X119473161Y-87666346D01*
X119480000Y-87630000D01*
X119480000Y-87000090D01*
X119480989Y-87000500D01*
X119637000Y-87000500D01*
X119749500Y-86888000D01*
X119749500Y-86054000D01*
X119899500Y-86054000D01*
X119899500Y-86888000D01*
X120012000Y-87000500D01*
X120168011Y-87000500D01*
X120333405Y-86931991D01*
X120459500Y-86805896D01*
X120585595Y-86931991D01*
X120750989Y-87000500D01*
X120907000Y-87000500D01*
X121019500Y-86888000D01*
X121019500Y-86054000D01*
X120503000Y-86054000D01*
X120459500Y-86097500D01*
X120416000Y-86054000D01*
X119899500Y-86054000D01*
X119749500Y-86054000D01*
X119729500Y-86054000D01*
X119729500Y-85904000D01*
X119749500Y-85904000D01*
X119749500Y-85884000D01*
X119899500Y-85884000D01*
X119899500Y-85904000D01*
X120416000Y-85904000D01*
X120459500Y-85860500D01*
X120503000Y-85904000D01*
D35*
G36*
X136202000Y-70278412D02*
X136198592Y-70277000D01*
X135697750Y-70277000D01*
X135604000Y-70370750D01*
X135604000Y-71347000D01*
X135624000Y-71347000D01*
X135624000Y-71357000D01*
X135604000Y-71357000D01*
X135604000Y-72333250D01*
X135697750Y-72427000D01*
X136198592Y-72427000D01*
X136202000Y-72425588D01*
X136202000Y-73878412D01*
X136198592Y-73877000D01*
X135770177Y-73877000D01*
X135852874Y-73677844D01*
X135853126Y-73389421D01*
X135742984Y-73122857D01*
X135539216Y-72918733D01*
X135272844Y-72808126D01*
X134984421Y-72807874D01*
X134717857Y-72918016D01*
X134624000Y-73011709D01*
X134624000Y-72434346D01*
X134674000Y-72434346D01*
X134812966Y-72408198D01*
X134868203Y-72372654D01*
X134999408Y-72427000D01*
X135500250Y-72427000D01*
X135594000Y-72333250D01*
X135594000Y-71357000D01*
X135574000Y-71357000D01*
X135574000Y-71347000D01*
X135594000Y-71347000D01*
X135594000Y-70370750D01*
X135500250Y-70277000D01*
X134999408Y-70277000D01*
X134868673Y-70331152D01*
X134822754Y-70299777D01*
X134674000Y-70269654D01*
X133624000Y-70269654D01*
X133485034Y-70295802D01*
X133357401Y-70377931D01*
X133271777Y-70503246D01*
X133241654Y-70652000D01*
X133241654Y-72052000D01*
X133267802Y-72190966D01*
X133349931Y-72318599D01*
X133475246Y-72404223D01*
X133624000Y-72434346D01*
X133674000Y-72434346D01*
X133674000Y-73869654D01*
X133624000Y-73869654D01*
X133485034Y-73895802D01*
X133357401Y-73977931D01*
X133271777Y-74103246D01*
X133241654Y-74252000D01*
X133241654Y-75652000D01*
X133267802Y-75790966D01*
X133349931Y-75918599D01*
X133475246Y-76004223D01*
X133624000Y-76034346D01*
X134674000Y-76034346D01*
X134812966Y-76008198D01*
X134868203Y-75972654D01*
X134999408Y-76027000D01*
X135500250Y-76027000D01*
X135594000Y-75933250D01*
X135594000Y-74957000D01*
X135574000Y-74957000D01*
X135574000Y-74947000D01*
X135594000Y-74947000D01*
X135594000Y-74927000D01*
X135604000Y-74927000D01*
X135604000Y-74947000D01*
X135624000Y-74947000D01*
X135624000Y-74957000D01*
X135604000Y-74957000D01*
X135604000Y-75933250D01*
X135697750Y-76027000D01*
X136198592Y-76027000D01*
X136202000Y-76025588D01*
X136202000Y-76837000D01*
X132163605Y-76837000D01*
X132288599Y-76756569D01*
X132374223Y-76631254D01*
X132404346Y-76482500D01*
X132404346Y-75282500D01*
X132378198Y-75143534D01*
X132296069Y-75015901D01*
X132170754Y-74930277D01*
X132040921Y-74903986D01*
X132010844Y-74752777D01*
X131964541Y-74683480D01*
X131907876Y-74598675D01*
X131907873Y-74598673D01*
X131677101Y-74367901D01*
X131677273Y-74171119D01*
X131567131Y-73904555D01*
X131363363Y-73700431D01*
X131096991Y-73589824D01*
X130808568Y-73589572D01*
X130542004Y-73699714D01*
X130337880Y-73903482D01*
X130227273Y-74169854D01*
X130227021Y-74458277D01*
X130337163Y-74724841D01*
X130540931Y-74928965D01*
X130807303Y-75039572D01*
X130834107Y-75039595D01*
X130769777Y-75133746D01*
X130739654Y-75282500D01*
X130739654Y-76482500D01*
X130765802Y-76621466D01*
X130847931Y-76749099D01*
X130973246Y-76834723D01*
X130984490Y-76837000D01*
X130230071Y-76837000D01*
X130320099Y-76779069D01*
X130405723Y-76653754D01*
X130435846Y-76505000D01*
X130435846Y-75305000D01*
X130409698Y-75166034D01*
X130327569Y-75038401D01*
X130202254Y-74952777D01*
X130053500Y-74922654D01*
X129153500Y-74922654D01*
X129014534Y-74948802D01*
X128886901Y-75030931D01*
X128801277Y-75156246D01*
X128771154Y-75305000D01*
X128771154Y-75452147D01*
X128700726Y-75466156D01*
X128676483Y-75482355D01*
X128483000Y-75482186D01*
X128483000Y-75282750D01*
X128389250Y-75189000D01*
X127513000Y-75189000D01*
X127513000Y-75915250D01*
X127606750Y-76009000D01*
X127880693Y-76009000D01*
X127858507Y-76062430D01*
X127858255Y-76350853D01*
X127968397Y-76617417D01*
X128172165Y-76821541D01*
X128209394Y-76837000D01*
X120938751Y-76837000D01*
X121227751Y-76548000D01*
X122251928Y-76548000D01*
X122255731Y-76553691D01*
X122476274Y-76701053D01*
X122736422Y-76752800D01*
X123643578Y-76752800D01*
X123903726Y-76701053D01*
X124124269Y-76553691D01*
X124128072Y-76548000D01*
X124269000Y-76548000D01*
X124450775Y-76511843D01*
X124604876Y-76408876D01*
X124997406Y-76016346D01*
X125908000Y-76016346D01*
X126046966Y-75990198D01*
X126174599Y-75908069D01*
X126260223Y-75782754D01*
X126290346Y-75634000D01*
X126290346Y-75282750D01*
X126533000Y-75282750D01*
X126533000Y-75708592D01*
X126590090Y-75846421D01*
X126695580Y-75951910D01*
X126833408Y-76009000D01*
X127409250Y-76009000D01*
X127503000Y-75915250D01*
X127503000Y-75189000D01*
X126626750Y-75189000D01*
X126533000Y-75282750D01*
X126290346Y-75282750D01*
X126290346Y-74734000D01*
X126266115Y-74605223D01*
X126347156Y-74638874D01*
X126541435Y-74639044D01*
X126533000Y-74659408D01*
X126533000Y-75085250D01*
X126626750Y-75179000D01*
X127503000Y-75179000D01*
X127503000Y-74452750D01*
X127513000Y-74452750D01*
X127513000Y-75179000D01*
X128389250Y-75179000D01*
X128483000Y-75085250D01*
X128483000Y-74659408D01*
X128425910Y-74521579D01*
X128320420Y-74416090D01*
X128182592Y-74359000D01*
X127606750Y-74359000D01*
X127513000Y-74452750D01*
X127503000Y-74452750D01*
X127409250Y-74359000D01*
X127072424Y-74359000D01*
X127106267Y-74325216D01*
X127216874Y-74058844D01*
X127217126Y-73770421D01*
X127106984Y-73503857D01*
X127072188Y-73469000D01*
X127409250Y-73469000D01*
X127503000Y-73375250D01*
X127503000Y-72649000D01*
X127513000Y-72649000D01*
X127513000Y-73375250D01*
X127606750Y-73469000D01*
X128182592Y-73469000D01*
X128320420Y-73411910D01*
X128425910Y-73306421D01*
X128483000Y-73168592D01*
X128483000Y-72742750D01*
X128389250Y-72649000D01*
X127513000Y-72649000D01*
X127503000Y-72649000D01*
X126626750Y-72649000D01*
X126533000Y-72742750D01*
X126533000Y-73168592D01*
X126541471Y-73189043D01*
X126348421Y-73188874D01*
X126264077Y-73223724D01*
X126290346Y-73094000D01*
X126290346Y-72194000D01*
X126276311Y-72119408D01*
X126533000Y-72119408D01*
X126533000Y-72545250D01*
X126626750Y-72639000D01*
X127503000Y-72639000D01*
X127503000Y-71912750D01*
X127513000Y-71912750D01*
X127513000Y-72639000D01*
X128389250Y-72639000D01*
X128483000Y-72545250D01*
X128483000Y-72119408D01*
X128425910Y-71981579D01*
X128320420Y-71876090D01*
X128182592Y-71819000D01*
X127606750Y-71819000D01*
X127513000Y-71912750D01*
X127503000Y-71912750D01*
X127409250Y-71819000D01*
X126833408Y-71819000D01*
X126695580Y-71876090D01*
X126590090Y-71981579D01*
X126533000Y-72119408D01*
X126276311Y-72119408D01*
X126264198Y-72055034D01*
X126182069Y-71927401D01*
X126056754Y-71841777D01*
X125908000Y-71811654D01*
X124708000Y-71811654D01*
X124569034Y-71837802D01*
X124441401Y-71919931D01*
X124355777Y-72045246D01*
X124325654Y-72194000D01*
X124325654Y-72205539D01*
X124247143Y-72257998D01*
X124207831Y-72257998D01*
X124292431Y-72151720D01*
X124251767Y-72007471D01*
X124106027Y-71785844D01*
X123886568Y-71636860D01*
X123626800Y-71583200D01*
X123195000Y-71583200D01*
X123195000Y-72258000D01*
X123215000Y-72258000D01*
X123215000Y-72268000D01*
X123195000Y-72268000D01*
X123195000Y-72288000D01*
X123185000Y-72288000D01*
X123185000Y-72268000D01*
X122172171Y-72268000D01*
X122087569Y-72374280D01*
X122128233Y-72518529D01*
X122273973Y-72740156D01*
X122493432Y-72889140D01*
X122523998Y-72895454D01*
X122476274Y-72904947D01*
X122255731Y-73052309D01*
X122251928Y-73058000D01*
X121901110Y-73058000D01*
X121719335Y-73094157D01*
X121565234Y-73197124D01*
X121528958Y-73233400D01*
X121332177Y-73233228D01*
X121065613Y-73343370D01*
X120985551Y-73423293D01*
X120920877Y-73358506D01*
X120654505Y-73247899D01*
X120366082Y-73247647D01*
X120099518Y-73357789D01*
X119895394Y-73561557D01*
X119784787Y-73827929D01*
X119784535Y-74116352D01*
X119894677Y-74382916D01*
X120098445Y-74587040D01*
X120364817Y-74697647D01*
X120653240Y-74697899D01*
X120919804Y-74587757D01*
X120999866Y-74507834D01*
X121064540Y-74572621D01*
X121330912Y-74683228D01*
X121619335Y-74683480D01*
X121885899Y-74573338D01*
X122090023Y-74369570D01*
X122200630Y-74103198D01*
X122200713Y-74008000D01*
X122251928Y-74008000D01*
X122255731Y-74013691D01*
X122476274Y-74161053D01*
X122523998Y-74170546D01*
X122493432Y-74176860D01*
X122273973Y-74325844D01*
X122128233Y-74547471D01*
X122087569Y-74691720D01*
X122172171Y-74798000D01*
X123185000Y-74798000D01*
X123185000Y-74778000D01*
X123195000Y-74778000D01*
X123195000Y-74798000D01*
X124207829Y-74798000D01*
X124292431Y-74691720D01*
X124251767Y-74547471D01*
X124106027Y-74325844D01*
X123886568Y-74176860D01*
X123856002Y-74170546D01*
X123903726Y-74161053D01*
X124124269Y-74013691D01*
X124247277Y-73829597D01*
X124247083Y-74051379D01*
X124357225Y-74317943D01*
X124476451Y-74437377D01*
X124441401Y-74459931D01*
X124355777Y-74585246D01*
X124325654Y-74734000D01*
X124325654Y-75344594D01*
X124096496Y-75573752D01*
X123903726Y-75444947D01*
X123856002Y-75435454D01*
X123886568Y-75429140D01*
X124106027Y-75280156D01*
X124251767Y-75058529D01*
X124292431Y-74914280D01*
X124207829Y-74808000D01*
X123195000Y-74808000D01*
X123195000Y-74828000D01*
X123185000Y-74828000D01*
X123185000Y-74808000D01*
X122172171Y-74808000D01*
X122087569Y-74914280D01*
X122128233Y-75058529D01*
X122273973Y-75280156D01*
X122493432Y-75429140D01*
X122523998Y-75435454D01*
X122476274Y-75444947D01*
X122255731Y-75592309D01*
X122251928Y-75598000D01*
X121031000Y-75598000D01*
X120849225Y-75634157D01*
X120695124Y-75737124D01*
X120695122Y-75737127D01*
X119943236Y-76489012D01*
X119846491Y-76254871D01*
X119642723Y-76050747D01*
X119376351Y-75940140D01*
X119087928Y-75939888D01*
X118821364Y-76050030D01*
X118719775Y-76151442D01*
X118735378Y-76073000D01*
X118683631Y-75812852D01*
X118536269Y-75592309D01*
X118315726Y-75444947D01*
X118280801Y-75438000D01*
X118315726Y-75431053D01*
X118536269Y-75283691D01*
X118619153Y-75159646D01*
X119349297Y-74429502D01*
X119495619Y-74210517D01*
X119547000Y-73952205D01*
X119547000Y-72669594D01*
X120064874Y-72151720D01*
X122087569Y-72151720D01*
X122172171Y-72258000D01*
X123185000Y-72258000D01*
X123185000Y-71583200D01*
X122753200Y-71583200D01*
X122493432Y-71636860D01*
X122273973Y-71785844D01*
X122128233Y-72007471D01*
X122087569Y-72151720D01*
X120064874Y-72151720D01*
X121469723Y-70746871D01*
X124492129Y-70746871D01*
X124750441Y-70695490D01*
X124969426Y-70549168D01*
X125732066Y-69786528D01*
X126117429Y-69946544D01*
X126863299Y-69947195D01*
X127552641Y-69662364D01*
X127854586Y-69360945D01*
X130290126Y-69360945D01*
X130452439Y-69621451D01*
X131130610Y-69931944D01*
X131875978Y-69959276D01*
X132575069Y-69699289D01*
X132691561Y-69621451D01*
X132853874Y-69360945D01*
X131572000Y-68079071D01*
X130290126Y-69360945D01*
X127854586Y-69360945D01*
X128080511Y-69135415D01*
X128366544Y-68446571D01*
X128366605Y-68375978D01*
X129684724Y-68375978D01*
X129944711Y-69075069D01*
X130022549Y-69191561D01*
X130283055Y-69353874D01*
X131564929Y-68072000D01*
X131579071Y-68072000D01*
X132860945Y-69353874D01*
X133121451Y-69191561D01*
X133431944Y-68513390D01*
X133459276Y-67768022D01*
X133199289Y-67068931D01*
X133121451Y-66952439D01*
X132860945Y-66790126D01*
X131579071Y-68072000D01*
X131564929Y-68072000D01*
X130283055Y-66790126D01*
X130022549Y-66952439D01*
X129712056Y-67630610D01*
X129684724Y-68375978D01*
X128366605Y-68375978D01*
X128367195Y-67700701D01*
X128082364Y-67011359D01*
X127854459Y-66783055D01*
X130290126Y-66783055D01*
X131572000Y-68064929D01*
X132853874Y-66783055D01*
X132691561Y-66522549D01*
X132013390Y-66212056D01*
X131268022Y-66184724D01*
X130568931Y-66444711D01*
X130452439Y-66522549D01*
X130290126Y-66783055D01*
X127854459Y-66783055D01*
X127555415Y-66483489D01*
X126866571Y-66197456D01*
X126120701Y-66196805D01*
X125431359Y-66481636D01*
X124903489Y-67008585D01*
X124617456Y-67697429D01*
X124616805Y-68443299D01*
X124777411Y-68831995D01*
X124212535Y-69396871D01*
X123294216Y-69396871D01*
X123294216Y-66572130D01*
X123268068Y-66433164D01*
X123185939Y-66305531D01*
X123060624Y-66219907D01*
X122911870Y-66189784D01*
X119912130Y-66189784D01*
X119773164Y-66215932D01*
X119645531Y-66298061D01*
X119559907Y-66423376D01*
X119529784Y-66572130D01*
X119529784Y-69542470D01*
X117489054Y-71583200D01*
X117148422Y-71583200D01*
X116888274Y-71634947D01*
X116782000Y-71705957D01*
X116782000Y-65728000D01*
X136202000Y-65728000D01*
X136202000Y-70278412D01*
X136202000Y-70278412D01*
G37*
X136202000Y-70278412D02*
X136198592Y-70277000D01*
X135697750Y-70277000D01*
X135604000Y-70370750D01*
X135604000Y-71347000D01*
X135624000Y-71347000D01*
X135624000Y-71357000D01*
X135604000Y-71357000D01*
X135604000Y-72333250D01*
X135697750Y-72427000D01*
X136198592Y-72427000D01*
X136202000Y-72425588D01*
X136202000Y-73878412D01*
X136198592Y-73877000D01*
X135770177Y-73877000D01*
X135852874Y-73677844D01*
X135853126Y-73389421D01*
X135742984Y-73122857D01*
X135539216Y-72918733D01*
X135272844Y-72808126D01*
X134984421Y-72807874D01*
X134717857Y-72918016D01*
X134624000Y-73011709D01*
X134624000Y-72434346D01*
X134674000Y-72434346D01*
X134812966Y-72408198D01*
X134868203Y-72372654D01*
X134999408Y-72427000D01*
X135500250Y-72427000D01*
X135594000Y-72333250D01*
X135594000Y-71357000D01*
X135574000Y-71357000D01*
X135574000Y-71347000D01*
X135594000Y-71347000D01*
X135594000Y-70370750D01*
X135500250Y-70277000D01*
X134999408Y-70277000D01*
X134868673Y-70331152D01*
X134822754Y-70299777D01*
X134674000Y-70269654D01*
X133624000Y-70269654D01*
X133485034Y-70295802D01*
X133357401Y-70377931D01*
X133271777Y-70503246D01*
X133241654Y-70652000D01*
X133241654Y-72052000D01*
X133267802Y-72190966D01*
X133349931Y-72318599D01*
X133475246Y-72404223D01*
X133624000Y-72434346D01*
X133674000Y-72434346D01*
X133674000Y-73869654D01*
X133624000Y-73869654D01*
X133485034Y-73895802D01*
X133357401Y-73977931D01*
X133271777Y-74103246D01*
X133241654Y-74252000D01*
X133241654Y-75652000D01*
X133267802Y-75790966D01*
X133349931Y-75918599D01*
X133475246Y-76004223D01*
X133624000Y-76034346D01*
X134674000Y-76034346D01*
X134812966Y-76008198D01*
X134868203Y-75972654D01*
X134999408Y-76027000D01*
X135500250Y-76027000D01*
X135594000Y-75933250D01*
X135594000Y-74957000D01*
X135574000Y-74957000D01*
X135574000Y-74947000D01*
X135594000Y-74947000D01*
X135594000Y-74927000D01*
X135604000Y-74927000D01*
X135604000Y-74947000D01*
X135624000Y-74947000D01*
X135624000Y-74957000D01*
X135604000Y-74957000D01*
X135604000Y-75933250D01*
X135697750Y-76027000D01*
X136198592Y-76027000D01*
X136202000Y-76025588D01*
X136202000Y-76837000D01*
X132163605Y-76837000D01*
X132288599Y-76756569D01*
X132374223Y-76631254D01*
X132404346Y-76482500D01*
X132404346Y-75282500D01*
X132378198Y-75143534D01*
X132296069Y-75015901D01*
X132170754Y-74930277D01*
X132040921Y-74903986D01*
X132010844Y-74752777D01*
X131964541Y-74683480D01*
X131907876Y-74598675D01*
X131907873Y-74598673D01*
X131677101Y-74367901D01*
X131677273Y-74171119D01*
X131567131Y-73904555D01*
X131363363Y-73700431D01*
X131096991Y-73589824D01*
X130808568Y-73589572D01*
X130542004Y-73699714D01*
X130337880Y-73903482D01*
X130227273Y-74169854D01*
X130227021Y-74458277D01*
X130337163Y-74724841D01*
X130540931Y-74928965D01*
X130807303Y-75039572D01*
X130834107Y-75039595D01*
X130769777Y-75133746D01*
X130739654Y-75282500D01*
X130739654Y-76482500D01*
X130765802Y-76621466D01*
X130847931Y-76749099D01*
X130973246Y-76834723D01*
X130984490Y-76837000D01*
X130230071Y-76837000D01*
X130320099Y-76779069D01*
X130405723Y-76653754D01*
X130435846Y-76505000D01*
X130435846Y-75305000D01*
X130409698Y-75166034D01*
X130327569Y-75038401D01*
X130202254Y-74952777D01*
X130053500Y-74922654D01*
X129153500Y-74922654D01*
X129014534Y-74948802D01*
X128886901Y-75030931D01*
X128801277Y-75156246D01*
X128771154Y-75305000D01*
X128771154Y-75452147D01*
X128700726Y-75466156D01*
X128676483Y-75482355D01*
X128483000Y-75482186D01*
X128483000Y-75282750D01*
X128389250Y-75189000D01*
X127513000Y-75189000D01*
X127513000Y-75915250D01*
X127606750Y-76009000D01*
X127880693Y-76009000D01*
X127858507Y-76062430D01*
X127858255Y-76350853D01*
X127968397Y-76617417D01*
X128172165Y-76821541D01*
X128209394Y-76837000D01*
X120938751Y-76837000D01*
X121227751Y-76548000D01*
X122251928Y-76548000D01*
X122255731Y-76553691D01*
X122476274Y-76701053D01*
X122736422Y-76752800D01*
X123643578Y-76752800D01*
X123903726Y-76701053D01*
X124124269Y-76553691D01*
X124128072Y-76548000D01*
X124269000Y-76548000D01*
X124450775Y-76511843D01*
X124604876Y-76408876D01*
X124997406Y-76016346D01*
X125908000Y-76016346D01*
X126046966Y-75990198D01*
X126174599Y-75908069D01*
X126260223Y-75782754D01*
X126290346Y-75634000D01*
X126290346Y-75282750D01*
X126533000Y-75282750D01*
X126533000Y-75708592D01*
X126590090Y-75846421D01*
X126695580Y-75951910D01*
X126833408Y-76009000D01*
X127409250Y-76009000D01*
X127503000Y-75915250D01*
X127503000Y-75189000D01*
X126626750Y-75189000D01*
X126533000Y-75282750D01*
X126290346Y-75282750D01*
X126290346Y-74734000D01*
X126266115Y-74605223D01*
X126347156Y-74638874D01*
X126541435Y-74639044D01*
X126533000Y-74659408D01*
X126533000Y-75085250D01*
X126626750Y-75179000D01*
X127503000Y-75179000D01*
X127503000Y-74452750D01*
X127513000Y-74452750D01*
X127513000Y-75179000D01*
X128389250Y-75179000D01*
X128483000Y-75085250D01*
X128483000Y-74659408D01*
X128425910Y-74521579D01*
X128320420Y-74416090D01*
X128182592Y-74359000D01*
X127606750Y-74359000D01*
X127513000Y-74452750D01*
X127503000Y-74452750D01*
X127409250Y-74359000D01*
X127072424Y-74359000D01*
X127106267Y-74325216D01*
X127216874Y-74058844D01*
X127217126Y-73770421D01*
X127106984Y-73503857D01*
X127072188Y-73469000D01*
X127409250Y-73469000D01*
X127503000Y-73375250D01*
X127503000Y-72649000D01*
X127513000Y-72649000D01*
X127513000Y-73375250D01*
X127606750Y-73469000D01*
X128182592Y-73469000D01*
X128320420Y-73411910D01*
X128425910Y-73306421D01*
X128483000Y-73168592D01*
X128483000Y-72742750D01*
X128389250Y-72649000D01*
X127513000Y-72649000D01*
X127503000Y-72649000D01*
X126626750Y-72649000D01*
X126533000Y-72742750D01*
X126533000Y-73168592D01*
X126541471Y-73189043D01*
X126348421Y-73188874D01*
X126264077Y-73223724D01*
X126290346Y-73094000D01*
X126290346Y-72194000D01*
X126276311Y-72119408D01*
X126533000Y-72119408D01*
X126533000Y-72545250D01*
X126626750Y-72639000D01*
X127503000Y-72639000D01*
X127503000Y-71912750D01*
X127513000Y-71912750D01*
X127513000Y-72639000D01*
X128389250Y-72639000D01*
X128483000Y-72545250D01*
X128483000Y-72119408D01*
X128425910Y-71981579D01*
X128320420Y-71876090D01*
X128182592Y-71819000D01*
X127606750Y-71819000D01*
X127513000Y-71912750D01*
X127503000Y-71912750D01*
X127409250Y-71819000D01*
X126833408Y-71819000D01*
X126695580Y-71876090D01*
X126590090Y-71981579D01*
X126533000Y-72119408D01*
X126276311Y-72119408D01*
X126264198Y-72055034D01*
X126182069Y-71927401D01*
X126056754Y-71841777D01*
X125908000Y-71811654D01*
X124708000Y-71811654D01*
X124569034Y-71837802D01*
X124441401Y-71919931D01*
X124355777Y-72045246D01*
X124325654Y-72194000D01*
X124325654Y-72205539D01*
X124247143Y-72257998D01*
X124207831Y-72257998D01*
X124292431Y-72151720D01*
X124251767Y-72007471D01*
X124106027Y-71785844D01*
X123886568Y-71636860D01*
X123626800Y-71583200D01*
X123195000Y-71583200D01*
X123195000Y-72258000D01*
X123215000Y-72258000D01*
X123215000Y-72268000D01*
X123195000Y-72268000D01*
X123195000Y-72288000D01*
X123185000Y-72288000D01*
X123185000Y-72268000D01*
X122172171Y-72268000D01*
X122087569Y-72374280D01*
X122128233Y-72518529D01*
X122273973Y-72740156D01*
X122493432Y-72889140D01*
X122523998Y-72895454D01*
X122476274Y-72904947D01*
X122255731Y-73052309D01*
X122251928Y-73058000D01*
X121901110Y-73058000D01*
X121719335Y-73094157D01*
X121565234Y-73197124D01*
X121528958Y-73233400D01*
X121332177Y-73233228D01*
X121065613Y-73343370D01*
X120985551Y-73423293D01*
X120920877Y-73358506D01*
X120654505Y-73247899D01*
X120366082Y-73247647D01*
X120099518Y-73357789D01*
X119895394Y-73561557D01*
X119784787Y-73827929D01*
X119784535Y-74116352D01*
X119894677Y-74382916D01*
X120098445Y-74587040D01*
X120364817Y-74697647D01*
X120653240Y-74697899D01*
X120919804Y-74587757D01*
X120999866Y-74507834D01*
X121064540Y-74572621D01*
X121330912Y-74683228D01*
X121619335Y-74683480D01*
X121885899Y-74573338D01*
X122090023Y-74369570D01*
X122200630Y-74103198D01*
X122200713Y-74008000D01*
X122251928Y-74008000D01*
X122255731Y-74013691D01*
X122476274Y-74161053D01*
X122523998Y-74170546D01*
X122493432Y-74176860D01*
X122273973Y-74325844D01*
X122128233Y-74547471D01*
X122087569Y-74691720D01*
X122172171Y-74798000D01*
X123185000Y-74798000D01*
X123185000Y-74778000D01*
X123195000Y-74778000D01*
X123195000Y-74798000D01*
X124207829Y-74798000D01*
X124292431Y-74691720D01*
X124251767Y-74547471D01*
X124106027Y-74325844D01*
X123886568Y-74176860D01*
X123856002Y-74170546D01*
X123903726Y-74161053D01*
X124124269Y-74013691D01*
X124247277Y-73829597D01*
X124247083Y-74051379D01*
X124357225Y-74317943D01*
X124476451Y-74437377D01*
X124441401Y-74459931D01*
X124355777Y-74585246D01*
X124325654Y-74734000D01*
X124325654Y-75344594D01*
X124096496Y-75573752D01*
X123903726Y-75444947D01*
X123856002Y-75435454D01*
X123886568Y-75429140D01*
X124106027Y-75280156D01*
X124251767Y-75058529D01*
X124292431Y-74914280D01*
X124207829Y-74808000D01*
X123195000Y-74808000D01*
X123195000Y-74828000D01*
X123185000Y-74828000D01*
X123185000Y-74808000D01*
X122172171Y-74808000D01*
X122087569Y-74914280D01*
X122128233Y-75058529D01*
X122273973Y-75280156D01*
X122493432Y-75429140D01*
X122523998Y-75435454D01*
X122476274Y-75444947D01*
X122255731Y-75592309D01*
X122251928Y-75598000D01*
X121031000Y-75598000D01*
X120849225Y-75634157D01*
X120695124Y-75737124D01*
X120695122Y-75737127D01*
X119943236Y-76489012D01*
X119846491Y-76254871D01*
X119642723Y-76050747D01*
X119376351Y-75940140D01*
X119087928Y-75939888D01*
X118821364Y-76050030D01*
X118719775Y-76151442D01*
X118735378Y-76073000D01*
X118683631Y-75812852D01*
X118536269Y-75592309D01*
X118315726Y-75444947D01*
X118280801Y-75438000D01*
X118315726Y-75431053D01*
X118536269Y-75283691D01*
X118619153Y-75159646D01*
X119349297Y-74429502D01*
X119495619Y-74210517D01*
X119547000Y-73952205D01*
X119547000Y-72669594D01*
X120064874Y-72151720D01*
X122087569Y-72151720D01*
X122172171Y-72258000D01*
X123185000Y-72258000D01*
X123185000Y-71583200D01*
X122753200Y-71583200D01*
X122493432Y-71636860D01*
X122273973Y-71785844D01*
X122128233Y-72007471D01*
X122087569Y-72151720D01*
X120064874Y-72151720D01*
X121469723Y-70746871D01*
X124492129Y-70746871D01*
X124750441Y-70695490D01*
X124969426Y-70549168D01*
X125732066Y-69786528D01*
X126117429Y-69946544D01*
X126863299Y-69947195D01*
X127552641Y-69662364D01*
X127854586Y-69360945D01*
X130290126Y-69360945D01*
X130452439Y-69621451D01*
X131130610Y-69931944D01*
X131875978Y-69959276D01*
X132575069Y-69699289D01*
X132691561Y-69621451D01*
X132853874Y-69360945D01*
X131572000Y-68079071D01*
X130290126Y-69360945D01*
X127854586Y-69360945D01*
X128080511Y-69135415D01*
X128366544Y-68446571D01*
X128366605Y-68375978D01*
X129684724Y-68375978D01*
X129944711Y-69075069D01*
X130022549Y-69191561D01*
X130283055Y-69353874D01*
X131564929Y-68072000D01*
X131579071Y-68072000D01*
X132860945Y-69353874D01*
X133121451Y-69191561D01*
X133431944Y-68513390D01*
X133459276Y-67768022D01*
X133199289Y-67068931D01*
X133121451Y-66952439D01*
X132860945Y-66790126D01*
X131579071Y-68072000D01*
X131564929Y-68072000D01*
X130283055Y-66790126D01*
X130022549Y-66952439D01*
X129712056Y-67630610D01*
X129684724Y-68375978D01*
X128366605Y-68375978D01*
X128367195Y-67700701D01*
X128082364Y-67011359D01*
X127854459Y-66783055D01*
X130290126Y-66783055D01*
X131572000Y-68064929D01*
X132853874Y-66783055D01*
X132691561Y-66522549D01*
X132013390Y-66212056D01*
X131268022Y-66184724D01*
X130568931Y-66444711D01*
X130452439Y-66522549D01*
X130290126Y-66783055D01*
X127854459Y-66783055D01*
X127555415Y-66483489D01*
X126866571Y-66197456D01*
X126120701Y-66196805D01*
X125431359Y-66481636D01*
X124903489Y-67008585D01*
X124617456Y-67697429D01*
X124616805Y-68443299D01*
X124777411Y-68831995D01*
X124212535Y-69396871D01*
X123294216Y-69396871D01*
X123294216Y-66572130D01*
X123268068Y-66433164D01*
X123185939Y-66305531D01*
X123060624Y-66219907D01*
X122911870Y-66189784D01*
X119912130Y-66189784D01*
X119773164Y-66215932D01*
X119645531Y-66298061D01*
X119559907Y-66423376D01*
X119529784Y-66572130D01*
X119529784Y-69542470D01*
X117489054Y-71583200D01*
X117148422Y-71583200D01*
X116888274Y-71634947D01*
X116782000Y-71705957D01*
X116782000Y-65728000D01*
X136202000Y-65728000D01*
X136202000Y-70278412D01*
M02*
