G04 #@! TF.FileFunction,Soldermask,Top*
%FSLAX46Y46*%
G04 Gerber Fmt 4.6, Leading zero omitted, Abs format (unit mm)*
G04 Created by KiCad (PCBNEW 4.0.1-stable) date Monday, February 15, 2016 'PMt' 09:43:10 PM*
%MOMM*%
G01*
G04 APERTURE LIST*
%ADD10C,0.100000*%
%ADD11C,3.900120*%
%ADD12R,2.300000X8.400000*%
%ADD13R,2.400000X7.900000*%
%ADD14R,0.908000X1.543000*%
%ADD15R,0.950000X2.000000*%
%ADD16R,2.000000X0.950000*%
%ADD17R,3.399740X3.399740*%
%ADD18C,3.399740*%
%ADD19R,1.600000X1.300000*%
%ADD20R,1.500000X1.000000*%
%ADD21R,1.450000X1.800000*%
%ADD22R,0.650000X1.250000*%
%ADD23R,1.250000X0.650000*%
%ADD24R,0.800000X1.000000*%
%ADD25R,1.300000X1.600000*%
%ADD26R,1.197560X1.197560*%
%ADD27R,2.127200X2.127200*%
%ADD28O,2.127200X2.127200*%
%ADD29R,1.900000X1.650000*%
%ADD30R,1.600000X1.150000*%
%ADD31R,1.150000X1.600000*%
%ADD32R,1.650000X1.900000*%
G04 APERTURE END LIST*
D10*
D11*
X134366000Y-93726000D03*
X134366000Y-98806000D03*
D12*
X130810000Y-107950000D03*
X123190000Y-107950000D03*
D13*
X125700000Y-107700000D03*
X128300000Y-107700000D03*
D14*
X125095000Y-93345000D03*
X126365000Y-93345000D03*
X127635000Y-93345000D03*
X128905000Y-93345000D03*
X128905000Y-99695000D03*
X127635000Y-99695000D03*
X126365000Y-99695000D03*
X125095000Y-99695000D03*
D15*
X129038000Y-79570000D03*
X128238000Y-79570000D03*
X127438000Y-79570000D03*
X126638000Y-79570000D03*
X125838000Y-79570000D03*
X125038000Y-79570000D03*
X124238000Y-79570000D03*
X123438000Y-79570000D03*
D16*
X121988000Y-81020000D03*
X121988000Y-81820000D03*
X121988000Y-82620000D03*
X121988000Y-83420000D03*
X121988000Y-84220000D03*
X121988000Y-85020000D03*
X121988000Y-85820000D03*
X121988000Y-86620000D03*
D15*
X123438000Y-88070000D03*
X124238000Y-88070000D03*
X125038000Y-88070000D03*
X125838000Y-88070000D03*
X126638000Y-88070000D03*
X127438000Y-88070000D03*
X128238000Y-88070000D03*
X129038000Y-88070000D03*
D16*
X130488000Y-86620000D03*
X130488000Y-85820000D03*
X130488000Y-85020000D03*
X130488000Y-84220000D03*
X130488000Y-83420000D03*
X130488000Y-82620000D03*
X130488000Y-81820000D03*
X130488000Y-81020000D03*
D17*
X121412000Y-68072000D03*
D18*
X126492000Y-68072000D03*
X131572000Y-68072000D03*
D19*
X123274000Y-75692000D03*
X121074000Y-75692000D03*
X123274000Y-77470000D03*
X121074000Y-77470000D03*
D20*
X135423000Y-86340000D03*
X135423000Y-85090000D03*
X135423000Y-83840000D03*
X135423000Y-82590000D03*
X133223000Y-82590000D03*
X133223000Y-83840000D03*
X133223000Y-85090000D03*
X133223000Y-86340000D03*
D21*
X118835000Y-74952000D03*
X118835000Y-71352000D03*
X117385000Y-74952000D03*
X117385000Y-71352000D03*
D22*
X119078500Y-91073500D03*
X119578500Y-91073500D03*
X120078500Y-91073500D03*
X120578500Y-91073500D03*
X121078500Y-91073500D03*
D23*
X121553500Y-90098500D03*
X121553500Y-89598500D03*
X121553500Y-89098500D03*
D22*
X121078500Y-88123500D03*
X120578500Y-88123500D03*
X120078500Y-88123500D03*
X119578500Y-88123500D03*
X119078500Y-88123500D03*
D23*
X118603500Y-89098500D03*
X118603500Y-89598500D03*
X118603500Y-90098500D03*
D24*
X118281000Y-76999000D03*
X117431000Y-76999000D03*
X117431000Y-78449000D03*
X118281000Y-78449000D03*
D25*
X127889000Y-75100000D03*
X127889000Y-77300000D03*
D19*
X117688000Y-80010000D03*
X119888000Y-80010000D03*
X117688000Y-81788000D03*
X119888000Y-81788000D03*
D26*
X123444000Y-94996000D03*
X123444000Y-93497400D03*
D27*
X120650000Y-99060000D03*
D28*
X118110000Y-99060000D03*
X120650000Y-96520000D03*
X118110000Y-96520000D03*
X120650000Y-93980000D03*
X118110000Y-93980000D03*
D29*
X132882000Y-88392000D03*
X135382000Y-88392000D03*
D30*
X132146000Y-90170000D03*
X134046000Y-90170000D03*
D31*
X134302500Y-77848500D03*
X134302500Y-79748500D03*
X133667500Y-73091000D03*
X133667500Y-74991000D03*
X135890000Y-78864500D03*
X135890000Y-76964500D03*
D22*
X132445000Y-75487000D03*
X131945000Y-75487000D03*
X131445000Y-75487000D03*
X130945000Y-75487000D03*
X130445000Y-75487000D03*
D23*
X129970000Y-76462000D03*
X129970000Y-76962000D03*
X129970000Y-77462000D03*
D22*
X130445000Y-78437000D03*
X130945000Y-78437000D03*
X131445000Y-78437000D03*
X131945000Y-78437000D03*
X132445000Y-78437000D03*
D23*
X132920000Y-77462000D03*
X132920000Y-76962000D03*
X132920000Y-76462000D03*
D32*
X130810000Y-98512000D03*
X130810000Y-96012000D03*
D26*
X122174000Y-71120000D03*
X120675400Y-71120000D03*
X132334000Y-71120000D03*
X130835400Y-71120000D03*
M02*
