G04 #@! TF.FileFunction,Legend,Bot*
%FSLAX46Y46*%
G04 Gerber Fmt 4.6, Leading zero omitted, Abs format (unit mm)*
G04 Created by KiCad (PCBNEW 4.0.1-stable) date Monday, February 15, 2016 'PMt' 09:43:10 PM*
%MOMM*%
G01*
G04 APERTURE LIST*
%ADD10C,0.100000*%
%ADD11C,0.150000*%
G04 APERTURE END LIST*
D10*
D11*
X116649500Y-85090000D02*
X121729500Y-85090000D01*
X121729500Y-85090000D02*
X121729500Y-80518000D01*
X121729500Y-80518000D02*
X116649500Y-80518000D01*
X116649500Y-80518000D02*
X116649500Y-85090000D01*
X116649500Y-83566000D02*
X117157500Y-83566000D01*
X117157500Y-83566000D02*
X117157500Y-82296000D01*
X117157500Y-82296000D02*
X116649500Y-82296000D01*
X126330000Y-78197000D02*
X127030000Y-78197000D01*
X127030000Y-76997000D02*
X126330000Y-76997000D01*
X123159000Y-76997000D02*
X122459000Y-76997000D01*
X122459000Y-78197000D02*
X123159000Y-78197000D01*
X127499000Y-94980000D02*
X127499000Y-92980000D01*
X129549000Y-92980000D02*
X129549000Y-94980000D01*
X127595000Y-99660000D02*
X127595000Y-100660000D01*
X128945000Y-100660000D02*
X128945000Y-99660000D01*
X125309000Y-99660000D02*
X125309000Y-100660000D01*
X126659000Y-100660000D02*
X126659000Y-99660000D01*
X130389000Y-92210000D02*
X130389000Y-93210000D01*
X131739000Y-93210000D02*
X131739000Y-92210000D01*
X136652000Y-86868000D02*
X136652000Y-89916000D01*
X136652000Y-89916000D02*
X129540000Y-89916000D01*
X129540000Y-89916000D02*
X129540000Y-86868000D01*
X136652000Y-83820000D02*
X136652000Y-83058000D01*
X136652000Y-83058000D02*
X135128000Y-80772000D01*
X135128000Y-80772000D02*
X131064000Y-80772000D01*
X131064000Y-80772000D02*
X129540000Y-83058000D01*
X129540000Y-83058000D02*
X129540000Y-83820000D01*
X121285000Y-72263000D02*
G75*
G03X121285000Y-72263000I-127000J0D01*
G01*
X121793000Y-71628000D02*
X121793000Y-76708000D01*
X118491000Y-71628000D02*
X118491000Y-76708000D01*
X122301000Y-71628000D02*
X122301000Y-76708000D01*
X122301000Y-71628000D02*
X118491000Y-71628000D01*
X122301000Y-76708000D02*
X118491000Y-76708000D01*
X125908000Y-73319000D02*
X126908000Y-73319000D01*
X126908000Y-71969000D02*
X125908000Y-71969000D01*
X125908000Y-75859000D02*
X126908000Y-75859000D01*
X126908000Y-74509000D02*
X125908000Y-74509000D01*
X130278500Y-77505000D02*
X130278500Y-76505000D01*
X128928500Y-76505000D02*
X128928500Y-77505000D01*
X132247000Y-77482500D02*
X132247000Y-76482500D01*
X130897000Y-76482500D02*
X130897000Y-77482500D01*
X136424000Y-74002000D02*
X136974000Y-74002000D01*
X136974000Y-74002000D02*
X136974000Y-72302000D01*
X136974000Y-72302000D02*
X136424000Y-72302000D01*
X133324000Y-71402000D02*
X133324000Y-74902000D01*
X136424000Y-74902000D02*
X136424000Y-71402000D01*
X127797000Y-86899000D02*
X127797000Y-87599000D01*
X128997000Y-87599000D02*
X128997000Y-86899000D01*
X125849000Y-87717000D02*
X124849000Y-87717000D01*
X124849000Y-89067000D02*
X125849000Y-89067000D01*
X124863519Y-79822040D02*
G75*
G03X124863519Y-79822040I-141899J0D01*
G01*
X125923040Y-78922880D02*
X124520960Y-78922880D01*
X124520960Y-82621120D02*
X125923040Y-82621120D01*
X135163000Y-77430000D02*
X134163000Y-77430000D01*
X134163000Y-78780000D02*
X135163000Y-78780000D01*
X124119000Y-98544000D02*
X124119000Y-97544000D01*
X122769000Y-97544000D02*
X122769000Y-98544000D01*
X125488000Y-85178000D02*
X124488000Y-85178000D01*
X124488000Y-83478000D02*
X125488000Y-83478000D01*
X117260000Y-90035000D02*
X117260000Y-89035000D01*
X118960000Y-89035000D02*
X118960000Y-90035000D01*
X124872000Y-87214000D02*
X125572000Y-87214000D01*
X125572000Y-86014000D02*
X124872000Y-86014000D01*
X120304000Y-89182500D02*
X120304000Y-89882500D01*
X121504000Y-89882500D02*
X121504000Y-89182500D01*
X129960000Y-97782000D02*
X129960000Y-96782000D01*
X131660000Y-96782000D02*
X131660000Y-97782000D01*
X122336000Y-93376000D02*
X122336000Y-94076000D01*
X123536000Y-94076000D02*
X123536000Y-93376000D01*
X125690000Y-92845000D02*
X125690000Y-93845000D01*
X127040000Y-93845000D02*
X127040000Y-92845000D01*
X125262000Y-93845000D02*
X125262000Y-92845000D01*
X123912000Y-92845000D02*
X123912000Y-93845000D01*
X118427405Y-77747881D02*
X118427405Y-78557405D01*
X118379786Y-78652643D01*
X118332167Y-78700262D01*
X118236929Y-78747881D01*
X118046452Y-78747881D01*
X117951214Y-78700262D01*
X117903595Y-78652643D01*
X117855976Y-78557405D01*
X117855976Y-77747881D01*
X117427405Y-77843119D02*
X117379786Y-77795500D01*
X117284548Y-77747881D01*
X117046452Y-77747881D01*
X116951214Y-77795500D01*
X116903595Y-77843119D01*
X116855976Y-77938357D01*
X116855976Y-78033595D01*
X116903595Y-78176452D01*
X117475024Y-78747881D01*
X116855976Y-78747881D01*
X128055666Y-76684143D02*
X128103285Y-76731762D01*
X128246142Y-76779381D01*
X128341380Y-76779381D01*
X128484238Y-76731762D01*
X128579476Y-76636524D01*
X128627095Y-76541286D01*
X128674714Y-76350810D01*
X128674714Y-76207952D01*
X128627095Y-76017476D01*
X128579476Y-75922238D01*
X128484238Y-75827000D01*
X128341380Y-75779381D01*
X128246142Y-75779381D01*
X128103285Y-75827000D01*
X128055666Y-75874619D01*
X127674714Y-75874619D02*
X127627095Y-75827000D01*
X127531857Y-75779381D01*
X127293761Y-75779381D01*
X127198523Y-75827000D01*
X127150904Y-75874619D01*
X127103285Y-75969857D01*
X127103285Y-76065095D01*
X127150904Y-76207952D01*
X127722333Y-76779381D01*
X127103285Y-76779381D01*
X120181666Y-78081143D02*
X120229285Y-78128762D01*
X120372142Y-78176381D01*
X120467380Y-78176381D01*
X120610238Y-78128762D01*
X120705476Y-78033524D01*
X120753095Y-77938286D01*
X120800714Y-77747810D01*
X120800714Y-77604952D01*
X120753095Y-77414476D01*
X120705476Y-77319238D01*
X120610238Y-77224000D01*
X120467380Y-77176381D01*
X120372142Y-77176381D01*
X120229285Y-77224000D01*
X120181666Y-77271619D01*
X119848333Y-77176381D02*
X119229285Y-77176381D01*
X119562619Y-77557333D01*
X119419761Y-77557333D01*
X119324523Y-77604952D01*
X119276904Y-77652571D01*
X119229285Y-77747810D01*
X119229285Y-77985905D01*
X119276904Y-78081143D01*
X119324523Y-78128762D01*
X119419761Y-78176381D01*
X119705476Y-78176381D01*
X119800714Y-78128762D01*
X119848333Y-78081143D01*
X128690666Y-90400143D02*
X128738285Y-90447762D01*
X128881142Y-90495381D01*
X128976380Y-90495381D01*
X129119238Y-90447762D01*
X129214476Y-90352524D01*
X129262095Y-90257286D01*
X129309714Y-90066810D01*
X129309714Y-89923952D01*
X129262095Y-89733476D01*
X129214476Y-89638238D01*
X129119238Y-89543000D01*
X128976380Y-89495381D01*
X128881142Y-89495381D01*
X128738285Y-89543000D01*
X128690666Y-89590619D01*
X127833523Y-89828714D02*
X127833523Y-90495381D01*
X128071619Y-89447762D02*
X128309714Y-90162048D01*
X127690666Y-90162048D01*
X130309881Y-101306334D02*
X129833690Y-100973000D01*
X130309881Y-100734905D02*
X129309881Y-100734905D01*
X129309881Y-101115858D01*
X129357500Y-101211096D01*
X129405119Y-101258715D01*
X129500357Y-101306334D01*
X129643214Y-101306334D01*
X129738452Y-101258715D01*
X129786071Y-101211096D01*
X129833690Y-101115858D01*
X129833690Y-100734905D01*
X130309881Y-102258715D02*
X130309881Y-101687286D01*
X130309881Y-101973000D02*
X129309881Y-101973000D01*
X129452738Y-101877762D01*
X129547976Y-101782524D01*
X129595595Y-101687286D01*
X124975881Y-101115834D02*
X124499690Y-100782500D01*
X124975881Y-100544405D02*
X123975881Y-100544405D01*
X123975881Y-100925358D01*
X124023500Y-101020596D01*
X124071119Y-101068215D01*
X124166357Y-101115834D01*
X124309214Y-101115834D01*
X124404452Y-101068215D01*
X124452071Y-101020596D01*
X124499690Y-100925358D01*
X124499690Y-100544405D01*
X124071119Y-101496786D02*
X124023500Y-101544405D01*
X123975881Y-101639643D01*
X123975881Y-101877739D01*
X124023500Y-101972977D01*
X124071119Y-102020596D01*
X124166357Y-102068215D01*
X124261595Y-102068215D01*
X124404452Y-102020596D01*
X124975881Y-101449167D01*
X124975881Y-102068215D01*
X133167381Y-91400334D02*
X132691190Y-91067000D01*
X133167381Y-90828905D02*
X132167381Y-90828905D01*
X132167381Y-91209858D01*
X132215000Y-91305096D01*
X132262619Y-91352715D01*
X132357857Y-91400334D01*
X132500714Y-91400334D01*
X132595952Y-91352715D01*
X132643571Y-91305096D01*
X132691190Y-91209858D01*
X132691190Y-90828905D01*
X132167381Y-91733667D02*
X132167381Y-92352715D01*
X132548333Y-92019381D01*
X132548333Y-92162239D01*
X132595952Y-92257477D01*
X132643571Y-92305096D01*
X132738810Y-92352715D01*
X132976905Y-92352715D01*
X133072143Y-92305096D01*
X133119762Y-92257477D01*
X133167381Y-92162239D01*
X133167381Y-91876524D01*
X133119762Y-91781286D01*
X133072143Y-91733667D01*
X136270905Y-90447881D02*
X136270905Y-91257405D01*
X136223286Y-91352643D01*
X136175667Y-91400262D01*
X136080429Y-91447881D01*
X135889952Y-91447881D01*
X135794714Y-91400262D01*
X135747095Y-91352643D01*
X135699476Y-91257405D01*
X135699476Y-90447881D01*
X134747095Y-90447881D02*
X135223286Y-90447881D01*
X135270905Y-90924071D01*
X135223286Y-90876452D01*
X135128048Y-90828833D01*
X134889952Y-90828833D01*
X134794714Y-90876452D01*
X134747095Y-90924071D01*
X134699476Y-91019310D01*
X134699476Y-91257405D01*
X134747095Y-91352643D01*
X134794714Y-91400262D01*
X134889952Y-91447881D01*
X135128048Y-91447881D01*
X135223286Y-91400262D01*
X135270905Y-91352643D01*
X120943619Y-74072762D02*
X120896000Y-73977524D01*
X120800762Y-73882286D01*
X120657905Y-73739429D01*
X120610286Y-73644190D01*
X120610286Y-73548952D01*
X120848381Y-73596571D02*
X120800762Y-73501333D01*
X120705524Y-73406095D01*
X120515048Y-73358476D01*
X120181714Y-73358476D01*
X119991238Y-73406095D01*
X119896000Y-73501333D01*
X119848381Y-73596571D01*
X119848381Y-73787048D01*
X119896000Y-73882286D01*
X119991238Y-73977524D01*
X120181714Y-74025143D01*
X120515048Y-74025143D01*
X120705524Y-73977524D01*
X120800762Y-73882286D01*
X120848381Y-73787048D01*
X120848381Y-73596571D01*
X120848381Y-74977524D02*
X120848381Y-74406095D01*
X120848381Y-74691809D02*
X119848381Y-74691809D01*
X119991238Y-74596571D01*
X120086476Y-74501333D01*
X120134095Y-74406095D01*
X129579666Y-73096381D02*
X129913000Y-72620190D01*
X130151095Y-73096381D02*
X130151095Y-72096381D01*
X129770142Y-72096381D01*
X129674904Y-72144000D01*
X129627285Y-72191619D01*
X129579666Y-72286857D01*
X129579666Y-72429714D01*
X129627285Y-72524952D01*
X129674904Y-72572571D01*
X129770142Y-72620190D01*
X130151095Y-72620190D01*
X128722523Y-72096381D02*
X128913000Y-72096381D01*
X129008238Y-72144000D01*
X129055857Y-72191619D01*
X129151095Y-72334476D01*
X129198714Y-72524952D01*
X129198714Y-72905905D01*
X129151095Y-73001143D01*
X129103476Y-73048762D01*
X129008238Y-73096381D01*
X128817761Y-73096381D01*
X128722523Y-73048762D01*
X128674904Y-73001143D01*
X128627285Y-72905905D01*
X128627285Y-72667810D01*
X128674904Y-72572571D01*
X128722523Y-72524952D01*
X128817761Y-72477333D01*
X129008238Y-72477333D01*
X129103476Y-72524952D01*
X129151095Y-72572571D01*
X129198714Y-72667810D01*
X129706666Y-74747381D02*
X130040000Y-74271190D01*
X130278095Y-74747381D02*
X130278095Y-73747381D01*
X129897142Y-73747381D01*
X129801904Y-73795000D01*
X129754285Y-73842619D01*
X129706666Y-73937857D01*
X129706666Y-74080714D01*
X129754285Y-74175952D01*
X129801904Y-74223571D01*
X129897142Y-74271190D01*
X130278095Y-74271190D01*
X129373333Y-73747381D02*
X128706666Y-73747381D01*
X129135238Y-74747381D01*
X130182881Y-79652834D02*
X129706690Y-79319500D01*
X130182881Y-79081405D02*
X129182881Y-79081405D01*
X129182881Y-79462358D01*
X129230500Y-79557596D01*
X129278119Y-79605215D01*
X129373357Y-79652834D01*
X129516214Y-79652834D01*
X129611452Y-79605215D01*
X129659071Y-79557596D01*
X129706690Y-79462358D01*
X129706690Y-79081405D01*
X129611452Y-80224262D02*
X129563833Y-80129024D01*
X129516214Y-80081405D01*
X129420976Y-80033786D01*
X129373357Y-80033786D01*
X129278119Y-80081405D01*
X129230500Y-80129024D01*
X129182881Y-80224262D01*
X129182881Y-80414739D01*
X129230500Y-80509977D01*
X129278119Y-80557596D01*
X129373357Y-80605215D01*
X129420976Y-80605215D01*
X129516214Y-80557596D01*
X129563833Y-80509977D01*
X129611452Y-80414739D01*
X129611452Y-80224262D01*
X129659071Y-80129024D01*
X129706690Y-80081405D01*
X129801929Y-80033786D01*
X129992405Y-80033786D01*
X130087643Y-80081405D01*
X130135262Y-80129024D01*
X130182881Y-80224262D01*
X130182881Y-80414739D01*
X130135262Y-80509977D01*
X130087643Y-80557596D01*
X129992405Y-80605215D01*
X129801929Y-80605215D01*
X129706690Y-80557596D01*
X129659071Y-80509977D01*
X129611452Y-80414739D01*
X132151381Y-79652834D02*
X131675190Y-79319500D01*
X132151381Y-79081405D02*
X131151381Y-79081405D01*
X131151381Y-79462358D01*
X131199000Y-79557596D01*
X131246619Y-79605215D01*
X131341857Y-79652834D01*
X131484714Y-79652834D01*
X131579952Y-79605215D01*
X131627571Y-79557596D01*
X131675190Y-79462358D01*
X131675190Y-79081405D01*
X132151381Y-80129024D02*
X132151381Y-80319500D01*
X132103762Y-80414739D01*
X132056143Y-80462358D01*
X131913286Y-80557596D01*
X131722810Y-80605215D01*
X131341857Y-80605215D01*
X131246619Y-80557596D01*
X131199000Y-80509977D01*
X131151381Y-80414739D01*
X131151381Y-80224262D01*
X131199000Y-80129024D01*
X131246619Y-80081405D01*
X131341857Y-80033786D01*
X131579952Y-80033786D01*
X131675190Y-80081405D01*
X131722810Y-80129024D01*
X131770429Y-80224262D01*
X131770429Y-80414739D01*
X131722810Y-80509977D01*
X131675190Y-80557596D01*
X131579952Y-80605215D01*
X136207333Y-70000762D02*
X136064476Y-70048381D01*
X135826380Y-70048381D01*
X135731142Y-70000762D01*
X135683523Y-69953143D01*
X135635904Y-69857905D01*
X135635904Y-69762667D01*
X135683523Y-69667429D01*
X135731142Y-69619810D01*
X135826380Y-69572190D01*
X136016857Y-69524571D01*
X136112095Y-69476952D01*
X136159714Y-69429333D01*
X136207333Y-69334095D01*
X136207333Y-69238857D01*
X136159714Y-69143619D01*
X136112095Y-69096000D01*
X136016857Y-69048381D01*
X135778761Y-69048381D01*
X135635904Y-69096000D01*
X135302571Y-69048381D02*
X135064476Y-70048381D01*
X134873999Y-69334095D01*
X134683523Y-70048381D01*
X134445428Y-69048381D01*
X133540666Y-70048381D02*
X134112095Y-70048381D01*
X133826381Y-70048381D02*
X133826381Y-69048381D01*
X133921619Y-69191238D01*
X134016857Y-69286476D01*
X134112095Y-69334095D01*
X128754143Y-84034334D02*
X128801762Y-83986715D01*
X128849381Y-83843858D01*
X128849381Y-83748620D01*
X128801762Y-83605762D01*
X128706524Y-83510524D01*
X128611286Y-83462905D01*
X128420810Y-83415286D01*
X128277952Y-83415286D01*
X128087476Y-83462905D01*
X127992238Y-83510524D01*
X127897000Y-83605762D01*
X127849381Y-83748620D01*
X127849381Y-83843858D01*
X127897000Y-83986715D01*
X127944619Y-84034334D01*
X127849381Y-84367667D02*
X127849381Y-85034334D01*
X128849381Y-84605762D01*
X126753857Y-90431881D02*
X127087191Y-89955690D01*
X127325286Y-90431881D02*
X127325286Y-89431881D01*
X126944333Y-89431881D01*
X126849095Y-89479500D01*
X126801476Y-89527119D01*
X126753857Y-89622357D01*
X126753857Y-89765214D01*
X126801476Y-89860452D01*
X126849095Y-89908071D01*
X126944333Y-89955690D01*
X127325286Y-89955690D01*
X125801476Y-90431881D02*
X126372905Y-90431881D01*
X126087191Y-90431881D02*
X126087191Y-89431881D01*
X126182429Y-89574738D01*
X126277667Y-89669976D01*
X126372905Y-89717595D01*
X125182429Y-89431881D02*
X125087190Y-89431881D01*
X124991952Y-89479500D01*
X124944333Y-89527119D01*
X124896714Y-89622357D01*
X124849095Y-89812833D01*
X124849095Y-90050929D01*
X124896714Y-90241405D01*
X124944333Y-90336643D01*
X124991952Y-90384262D01*
X125087190Y-90431881D01*
X125182429Y-90431881D01*
X125277667Y-90384262D01*
X125325286Y-90336643D01*
X125372905Y-90241405D01*
X125420524Y-90050929D01*
X125420524Y-89812833D01*
X125372905Y-89622357D01*
X125325286Y-89527119D01*
X125277667Y-89479500D01*
X125182429Y-89431881D01*
X125761691Y-80875190D02*
X125761691Y-81351381D01*
X126095024Y-80351381D02*
X125761691Y-80875190D01*
X125428357Y-80351381D01*
X124571214Y-81351381D02*
X125142643Y-81351381D01*
X124856929Y-81351381D02*
X124856929Y-80351381D01*
X124952167Y-80494238D01*
X125047405Y-80589476D01*
X125142643Y-80637095D01*
X135580357Y-77160381D02*
X135913691Y-76684190D01*
X136151786Y-77160381D02*
X136151786Y-76160381D01*
X135770833Y-76160381D01*
X135675595Y-76208000D01*
X135627976Y-76255619D01*
X135580357Y-76350857D01*
X135580357Y-76493714D01*
X135627976Y-76588952D01*
X135675595Y-76636571D01*
X135770833Y-76684190D01*
X136151786Y-76684190D01*
X134627976Y-77160381D02*
X135199405Y-77160381D01*
X134913691Y-77160381D02*
X134913691Y-76160381D01*
X135008929Y-76303238D01*
X135104167Y-76398476D01*
X135199405Y-76446095D01*
X133770833Y-76493714D02*
X133770833Y-77160381D01*
X134008929Y-76112762D02*
X134247024Y-76827048D01*
X133627976Y-76827048D01*
X123642381Y-100830143D02*
X123166190Y-100496809D01*
X123642381Y-100258714D02*
X122642381Y-100258714D01*
X122642381Y-100639667D01*
X122690000Y-100734905D01*
X122737619Y-100782524D01*
X122832857Y-100830143D01*
X122975714Y-100830143D01*
X123070952Y-100782524D01*
X123118571Y-100734905D01*
X123166190Y-100639667D01*
X123166190Y-100258714D01*
X123642381Y-101782524D02*
X123642381Y-101211095D01*
X123642381Y-101496809D02*
X122642381Y-101496809D01*
X122785238Y-101401571D01*
X122880476Y-101306333D01*
X122928095Y-101211095D01*
X122642381Y-102687286D02*
X122642381Y-102211095D01*
X123118571Y-102163476D01*
X123070952Y-102211095D01*
X123023333Y-102306333D01*
X123023333Y-102544429D01*
X123070952Y-102639667D01*
X123118571Y-102687286D01*
X123213810Y-102734905D01*
X123451905Y-102734905D01*
X123547143Y-102687286D01*
X123594762Y-102639667D01*
X123642381Y-102544429D01*
X123642381Y-102306333D01*
X123594762Y-102211095D01*
X123547143Y-102163476D01*
X126658666Y-82843643D02*
X126706285Y-82891262D01*
X126849142Y-82938881D01*
X126944380Y-82938881D01*
X127087238Y-82891262D01*
X127182476Y-82796024D01*
X127230095Y-82700786D01*
X127277714Y-82510310D01*
X127277714Y-82367452D01*
X127230095Y-82176976D01*
X127182476Y-82081738D01*
X127087238Y-81986500D01*
X126944380Y-81938881D01*
X126849142Y-81938881D01*
X126706285Y-81986500D01*
X126658666Y-82034119D01*
X125753904Y-81938881D02*
X126230095Y-81938881D01*
X126277714Y-82415071D01*
X126230095Y-82367452D01*
X126134857Y-82319833D01*
X125896761Y-82319833D01*
X125801523Y-82367452D01*
X125753904Y-82415071D01*
X125706285Y-82510310D01*
X125706285Y-82748405D01*
X125753904Y-82843643D01*
X125801523Y-82891262D01*
X125896761Y-82938881D01*
X126134857Y-82938881D01*
X126230095Y-82891262D01*
X126277714Y-82843643D01*
X117324143Y-91654334D02*
X117371762Y-91606715D01*
X117419381Y-91463858D01*
X117419381Y-91368620D01*
X117371762Y-91225762D01*
X117276524Y-91130524D01*
X117181286Y-91082905D01*
X116990810Y-91035286D01*
X116847952Y-91035286D01*
X116657476Y-91082905D01*
X116562238Y-91130524D01*
X116467000Y-91225762D01*
X116419381Y-91368620D01*
X116419381Y-91463858D01*
X116467000Y-91606715D01*
X116514619Y-91654334D01*
X116419381Y-92511477D02*
X116419381Y-92321000D01*
X116467000Y-92225762D01*
X116514619Y-92178143D01*
X116657476Y-92082905D01*
X116847952Y-92035286D01*
X117228905Y-92035286D01*
X117324143Y-92082905D01*
X117371762Y-92130524D01*
X117419381Y-92225762D01*
X117419381Y-92416239D01*
X117371762Y-92511477D01*
X117324143Y-92559096D01*
X117228905Y-92606715D01*
X116990810Y-92606715D01*
X116895571Y-92559096D01*
X116847952Y-92511477D01*
X116800333Y-92416239D01*
X116800333Y-92225762D01*
X116847952Y-92130524D01*
X116895571Y-92082905D01*
X116990810Y-92035286D01*
X122594666Y-87034643D02*
X122642285Y-87082262D01*
X122785142Y-87129881D01*
X122880380Y-87129881D01*
X123023238Y-87082262D01*
X123118476Y-86987024D01*
X123166095Y-86891786D01*
X123213714Y-86701310D01*
X123213714Y-86558452D01*
X123166095Y-86367976D01*
X123118476Y-86272738D01*
X123023238Y-86177500D01*
X122880380Y-86129881D01*
X122785142Y-86129881D01*
X122642285Y-86177500D01*
X122594666Y-86225119D01*
X122023238Y-86558452D02*
X122118476Y-86510833D01*
X122166095Y-86463214D01*
X122213714Y-86367976D01*
X122213714Y-86320357D01*
X122166095Y-86225119D01*
X122118476Y-86177500D01*
X122023238Y-86129881D01*
X121832761Y-86129881D01*
X121737523Y-86177500D01*
X121689904Y-86225119D01*
X121642285Y-86320357D01*
X121642285Y-86367976D01*
X121689904Y-86463214D01*
X121737523Y-86510833D01*
X121832761Y-86558452D01*
X122023238Y-86558452D01*
X122118476Y-86606071D01*
X122166095Y-86653690D01*
X122213714Y-86748929D01*
X122213714Y-86939405D01*
X122166095Y-87034643D01*
X122118476Y-87082262D01*
X122023238Y-87129881D01*
X121832761Y-87129881D01*
X121737523Y-87082262D01*
X121689904Y-87034643D01*
X121642285Y-86939405D01*
X121642285Y-86748929D01*
X121689904Y-86653690D01*
X121737523Y-86606071D01*
X121832761Y-86558452D01*
X120118143Y-90670143D02*
X120165762Y-90622524D01*
X120213381Y-90479667D01*
X120213381Y-90384429D01*
X120165762Y-90241571D01*
X120070524Y-90146333D01*
X119975286Y-90098714D01*
X119784810Y-90051095D01*
X119641952Y-90051095D01*
X119451476Y-90098714D01*
X119356238Y-90146333D01*
X119261000Y-90241571D01*
X119213381Y-90384429D01*
X119213381Y-90479667D01*
X119261000Y-90622524D01*
X119308619Y-90670143D01*
X120213381Y-91622524D02*
X120213381Y-91051095D01*
X120213381Y-91336809D02*
X119213381Y-91336809D01*
X119356238Y-91241571D01*
X119451476Y-91146333D01*
X119499095Y-91051095D01*
X119546714Y-92479667D02*
X120213381Y-92479667D01*
X119165762Y-92241571D02*
X119880048Y-92003476D01*
X119880048Y-92622524D01*
X132183143Y-100449143D02*
X132230762Y-100401524D01*
X132278381Y-100258667D01*
X132278381Y-100163429D01*
X132230762Y-100020571D01*
X132135524Y-99925333D01*
X132040286Y-99877714D01*
X131849810Y-99830095D01*
X131706952Y-99830095D01*
X131516476Y-99877714D01*
X131421238Y-99925333D01*
X131326000Y-100020571D01*
X131278381Y-100163429D01*
X131278381Y-100258667D01*
X131326000Y-100401524D01*
X131373619Y-100449143D01*
X132278381Y-101401524D02*
X132278381Y-100830095D01*
X132278381Y-101115809D02*
X131278381Y-101115809D01*
X131421238Y-101020571D01*
X131516476Y-100925333D01*
X131564095Y-100830095D01*
X131278381Y-102258667D02*
X131278381Y-102068190D01*
X131326000Y-101972952D01*
X131373619Y-101925333D01*
X131516476Y-101830095D01*
X131706952Y-101782476D01*
X132087905Y-101782476D01*
X132183143Y-101830095D01*
X132230762Y-101877714D01*
X132278381Y-101972952D01*
X132278381Y-102163429D01*
X132230762Y-102258667D01*
X132183143Y-102306286D01*
X132087905Y-102353905D01*
X131849810Y-102353905D01*
X131754571Y-102306286D01*
X131706952Y-102258667D01*
X131659333Y-102163429D01*
X131659333Y-101972952D01*
X131706952Y-101877714D01*
X131754571Y-101830095D01*
X131849810Y-101782476D01*
X123420143Y-89717643D02*
X123467762Y-89670024D01*
X123515381Y-89527167D01*
X123515381Y-89431929D01*
X123467762Y-89289071D01*
X123372524Y-89193833D01*
X123277286Y-89146214D01*
X123086810Y-89098595D01*
X122943952Y-89098595D01*
X122753476Y-89146214D01*
X122658238Y-89193833D01*
X122563000Y-89289071D01*
X122515381Y-89431929D01*
X122515381Y-89527167D01*
X122563000Y-89670024D01*
X122610619Y-89717643D01*
X123515381Y-90670024D02*
X123515381Y-90098595D01*
X123515381Y-90384309D02*
X122515381Y-90384309D01*
X122658238Y-90289071D01*
X122753476Y-90193833D01*
X122801095Y-90098595D01*
X122515381Y-91003357D02*
X122515381Y-91622405D01*
X122896333Y-91289071D01*
X122896333Y-91431929D01*
X122943952Y-91527167D01*
X122991571Y-91574786D01*
X123086810Y-91622405D01*
X123324905Y-91622405D01*
X123420143Y-91574786D01*
X123467762Y-91527167D01*
X123515381Y-91431929D01*
X123515381Y-91146214D01*
X123467762Y-91050976D01*
X123420143Y-91003357D01*
X126880881Y-96067643D02*
X126404690Y-95734309D01*
X126880881Y-95496214D02*
X125880881Y-95496214D01*
X125880881Y-95877167D01*
X125928500Y-95972405D01*
X125976119Y-96020024D01*
X126071357Y-96067643D01*
X126214214Y-96067643D01*
X126309452Y-96020024D01*
X126357071Y-95972405D01*
X126404690Y-95877167D01*
X126404690Y-95496214D01*
X126880881Y-97020024D02*
X126880881Y-96448595D01*
X126880881Y-96734309D02*
X125880881Y-96734309D01*
X126023738Y-96639071D01*
X126118976Y-96543833D01*
X126166595Y-96448595D01*
X125880881Y-97877167D02*
X125880881Y-97686690D01*
X125928500Y-97591452D01*
X125976119Y-97543833D01*
X126118976Y-97448595D01*
X126309452Y-97400976D01*
X126690405Y-97400976D01*
X126785643Y-97448595D01*
X126833262Y-97496214D01*
X126880881Y-97591452D01*
X126880881Y-97781929D01*
X126833262Y-97877167D01*
X126785643Y-97924786D01*
X126690405Y-97972405D01*
X126452310Y-97972405D01*
X126357071Y-97924786D01*
X126309452Y-97877167D01*
X126261833Y-97781929D01*
X126261833Y-97591452D01*
X126309452Y-97496214D01*
X126357071Y-97448595D01*
X126452310Y-97400976D01*
X125420381Y-96067643D02*
X124944190Y-95734309D01*
X125420381Y-95496214D02*
X124420381Y-95496214D01*
X124420381Y-95877167D01*
X124468000Y-95972405D01*
X124515619Y-96020024D01*
X124610857Y-96067643D01*
X124753714Y-96067643D01*
X124848952Y-96020024D01*
X124896571Y-95972405D01*
X124944190Y-95877167D01*
X124944190Y-95496214D01*
X125420381Y-97020024D02*
X125420381Y-96448595D01*
X125420381Y-96734309D02*
X124420381Y-96734309D01*
X124563238Y-96639071D01*
X124658476Y-96543833D01*
X124706095Y-96448595D01*
X124420381Y-97353357D02*
X124420381Y-98020024D01*
X125420381Y-97591452D01*
M02*
