G04 #@! TF.FileFunction,Copper,L2,Inr,Plane*
%FSLAX46Y46*%
G04 Gerber Fmt 4.6, Leading zero omitted, Abs format (unit mm)*
G04 Created by KiCad (PCBNEW 4.0.1-stable) date Monday, February 15, 2016 'PMt' 09:43:10 PM*
%MOMM*%
G01*
G04 APERTURE LIST*
%ADD10C,0.100000*%
%ADD11C,3.500120*%
%ADD12R,2.999740X2.999740*%
%ADD13C,2.999740*%
%ADD14R,1.727200X1.727200*%
%ADD15O,1.727200X1.727200*%
%ADD16C,0.700000*%
%ADD17C,0.870000*%
%ADD18C,0.200000*%
%ADD19C,0.254000*%
G04 APERTURE END LIST*
D10*
D11*
X134366000Y-93726000D03*
X134366000Y-98806000D03*
D12*
X121412000Y-68072000D03*
D13*
X126492000Y-68072000D03*
X131572000Y-68072000D03*
D14*
X120650000Y-99060000D03*
D15*
X118110000Y-99060000D03*
X120650000Y-96520000D03*
X118110000Y-96520000D03*
X120650000Y-93980000D03*
X118110000Y-93980000D03*
D16*
X133096000Y-82042000D03*
X122863621Y-90227048D03*
X125835352Y-76432418D03*
X127658877Y-85003515D03*
X134302500Y-76517500D03*
X131953000Y-85344000D03*
X133096000Y-80264000D03*
D17*
X123190000Y-102425500D03*
D16*
X127000000Y-98552000D03*
X125730000Y-102870000D03*
X128270000Y-102870000D03*
X124606919Y-81721775D03*
X123022360Y-79573120D03*
X135128000Y-79692500D03*
X125107773Y-83305582D03*
X118110000Y-88285000D03*
X119231507Y-76665014D03*
X133096000Y-79363997D03*
X134323002Y-85140009D03*
X134288378Y-83805369D03*
X130810000Y-90170000D03*
X129674137Y-80191118D03*
X125984000Y-97790000D03*
X120509661Y-73972773D03*
X120283739Y-82986390D03*
X125843717Y-82072420D03*
X135128000Y-73533000D03*
X124972209Y-73907800D03*
X127202229Y-89486612D03*
X127471998Y-86719998D03*
X126492000Y-73914000D03*
X130601999Y-80170155D03*
X127508000Y-97790000D03*
X118403780Y-82975135D03*
X118196027Y-84335750D03*
X117294191Y-84490279D03*
X122302808Y-87469595D03*
D17*
X124998250Y-96940462D03*
D16*
X121475756Y-73958354D03*
X119634000Y-77470000D03*
X128583381Y-76207274D03*
X128994579Y-90205134D03*
X129032000Y-85090000D03*
X130952147Y-74314698D03*
X128100559Y-84219334D03*
X129894021Y-90173131D03*
X126103481Y-89465246D03*
X124714000Y-95758000D03*
X119327437Y-82986399D03*
X123234049Y-91524188D03*
X128826402Y-83687193D03*
X128677466Y-97739310D03*
X130810000Y-102997000D03*
X124714000Y-98552000D03*
X124645392Y-89714760D03*
D18*
X129674137Y-80191118D02*
X129848118Y-80191118D01*
X130600490Y-85168809D02*
X130600490Y-87114257D01*
X129848118Y-80191118D02*
X129951998Y-80294998D01*
X129951998Y-80294998D02*
X129951998Y-80482156D01*
X131240989Y-84528311D02*
X130600490Y-85168809D01*
X129951998Y-80482156D02*
X131240989Y-81771147D01*
X131240989Y-81771147D02*
X131240989Y-84528311D01*
X130600490Y-87114257D02*
X125984000Y-91730747D01*
X125984000Y-91730747D02*
X125984000Y-97790000D01*
X120509661Y-82265494D02*
X120509661Y-73972773D01*
X120283739Y-82491416D02*
X120509661Y-82265494D01*
X120283739Y-82986390D02*
X120283739Y-82491416D01*
X125493718Y-81722421D02*
X125843717Y-82072420D01*
X125841999Y-74000012D02*
X125172225Y-74669786D01*
X125841999Y-73601999D02*
X125841999Y-74000012D01*
X126260997Y-73183001D02*
X125841999Y-73601999D01*
X134778001Y-73183001D02*
X126260997Y-73183001D01*
X125172225Y-81400928D02*
X125493718Y-81722421D01*
X135128000Y-73533000D02*
X134778001Y-73183001D01*
X125172225Y-74669786D02*
X125172225Y-81400928D01*
X124972209Y-73907800D02*
X124606164Y-74273845D01*
X123698000Y-82425228D02*
X124457772Y-83185000D01*
X124606164Y-74273845D02*
X124606164Y-79756000D01*
X124606164Y-79756000D02*
X124460000Y-79756000D01*
X124460000Y-79756000D02*
X123698000Y-80518000D01*
X123698000Y-80518000D02*
X123698000Y-82425228D01*
X124457772Y-83185000D02*
X124457772Y-86742155D01*
X124457772Y-86742155D02*
X127202229Y-89486612D01*
X127121999Y-86369999D02*
X127471998Y-86719998D01*
X125984000Y-85232000D02*
X127121999Y-86369999D01*
X125984000Y-84455000D02*
X125984000Y-85232000D01*
X126492000Y-83947000D02*
X125984000Y-84455000D01*
X126493719Y-82129119D02*
X126493719Y-83947000D01*
X126841999Y-81780839D02*
X126493719Y-82129119D01*
X126493719Y-83947000D02*
X126492000Y-83947000D01*
X126841999Y-74263999D02*
X126841999Y-81780839D01*
X126492000Y-73914000D02*
X126841999Y-74263999D01*
X130601999Y-80170155D02*
X130951998Y-80520154D01*
X127508000Y-90772447D02*
X127508000Y-97790000D01*
X130951998Y-80520154D02*
X130951998Y-80532998D01*
X130951998Y-80532998D02*
X131640999Y-81221999D01*
X131000500Y-85334498D02*
X131000500Y-87279947D01*
X131640999Y-81221999D02*
X131640999Y-84693999D01*
X131640999Y-84693999D02*
X131000500Y-85334498D01*
X131000500Y-87279947D02*
X127508000Y-90772447D01*
X129476403Y-83375192D02*
X129476403Y-84645597D01*
X128716719Y-83037192D02*
X129138403Y-83037192D01*
X129476403Y-84645597D02*
X129381999Y-84740001D01*
X129138403Y-83037192D02*
X129476403Y-83375192D01*
X127949815Y-76840840D02*
X127949815Y-82270288D01*
X127949815Y-82270288D02*
X128716719Y-83037192D01*
X129381999Y-84740001D02*
X129032000Y-85090000D01*
X128583381Y-76207274D02*
X127949815Y-76840840D01*
X130952147Y-74314698D02*
X129513955Y-74314698D01*
X129513955Y-74314698D02*
X127549805Y-76278848D01*
X127549805Y-76278848D02*
X127549805Y-83668580D01*
X127549805Y-83668580D02*
X127750560Y-83869335D01*
X127750560Y-83869335D02*
X128100559Y-84219334D01*
D19*
G36*
X136200000Y-92594604D02*
X136170286Y-92522691D01*
X135572456Y-91923817D01*
X134790955Y-91599310D01*
X133944758Y-91598571D01*
X133162691Y-91921714D01*
X132563817Y-92519544D01*
X132239310Y-93301045D01*
X132238571Y-94147242D01*
X132561714Y-94929309D01*
X133159544Y-95528183D01*
X133941045Y-95852690D01*
X134787242Y-95853429D01*
X135569309Y-95530286D01*
X136168183Y-94932456D01*
X136200000Y-94855832D01*
X136200000Y-95885000D01*
X127985000Y-95885000D01*
X127985000Y-90970027D01*
X128366414Y-90588613D01*
X128377899Y-90616409D01*
X128582229Y-90821095D01*
X128849335Y-90932008D01*
X129138554Y-90932260D01*
X129405854Y-90821814D01*
X129460189Y-90767573D01*
X129481671Y-90789092D01*
X129748777Y-90900005D01*
X130037996Y-90900257D01*
X130305296Y-90789811D01*
X130509982Y-90585481D01*
X130620895Y-90318375D01*
X130621147Y-90029156D01*
X130510701Y-89761856D01*
X130306371Y-89557170D01*
X130039265Y-89446257D01*
X129750046Y-89446005D01*
X129482746Y-89556451D01*
X129428411Y-89610692D01*
X129406929Y-89589173D01*
X129377906Y-89577121D01*
X131337790Y-87617237D01*
X131441191Y-87462487D01*
X131477500Y-87279947D01*
X131477500Y-85896701D01*
X131540650Y-85959961D01*
X131807756Y-86070874D01*
X132096975Y-86071126D01*
X132364275Y-85960680D01*
X132568961Y-85756350D01*
X132679874Y-85489244D01*
X132680126Y-85200025D01*
X132569680Y-84932725D01*
X132365350Y-84728039D01*
X132117999Y-84625329D01*
X132117999Y-82185975D01*
X132368874Y-82185975D01*
X132479320Y-82453275D01*
X132683650Y-82657961D01*
X132950756Y-82768874D01*
X133239975Y-82769126D01*
X133507275Y-82658680D01*
X133711961Y-82454350D01*
X133822874Y-82187244D01*
X133823126Y-81898025D01*
X133712680Y-81630725D01*
X133508350Y-81426039D01*
X133241244Y-81315126D01*
X132952025Y-81314874D01*
X132684725Y-81425320D01*
X132480039Y-81629650D01*
X132369126Y-81896756D01*
X132368874Y-82185975D01*
X132117999Y-82185975D01*
X132117999Y-81221999D01*
X132081690Y-81039459D01*
X131978289Y-80884709D01*
X131501555Y-80407975D01*
X132368874Y-80407975D01*
X132479320Y-80675275D01*
X132683650Y-80879961D01*
X132950756Y-80990874D01*
X133239975Y-80991126D01*
X133507275Y-80880680D01*
X133711961Y-80676350D01*
X133822874Y-80409244D01*
X133823126Y-80120025D01*
X133712680Y-79852725D01*
X133508350Y-79648039D01*
X133241244Y-79537126D01*
X132952025Y-79536874D01*
X132684725Y-79647320D01*
X132480039Y-79851650D01*
X132369126Y-80118756D01*
X132368874Y-80407975D01*
X131501555Y-80407975D01*
X131328943Y-80235363D01*
X131329125Y-80026180D01*
X131218679Y-79758880D01*
X131014349Y-79554194D01*
X130747243Y-79443281D01*
X130458024Y-79443029D01*
X130190724Y-79553475D01*
X130127674Y-79616416D01*
X130086487Y-79575157D01*
X129819381Y-79464244D01*
X129530162Y-79463992D01*
X129262862Y-79574438D01*
X129058176Y-79778768D01*
X128947263Y-80045874D01*
X128947011Y-80335093D01*
X129057457Y-80602393D01*
X129261787Y-80807079D01*
X129528893Y-80917992D01*
X129713415Y-80918153D01*
X130763989Y-81968727D01*
X130763989Y-84330732D01*
X130263200Y-84831519D01*
X130159799Y-84986268D01*
X130159799Y-84986269D01*
X130123490Y-85168809D01*
X130123490Y-86916677D01*
X127861574Y-89178593D01*
X127818909Y-89075337D01*
X127614579Y-88870651D01*
X127347473Y-88759738D01*
X127149763Y-88759566D01*
X124934772Y-86544575D01*
X124934772Y-83185000D01*
X124898463Y-83002460D01*
X124795062Y-82847710D01*
X124349366Y-82402014D01*
X124461675Y-82448649D01*
X124750894Y-82448901D01*
X125018194Y-82338455D01*
X125123563Y-82233269D01*
X125227037Y-82483695D01*
X125431367Y-82688381D01*
X125698473Y-82799294D01*
X125987692Y-82799546D01*
X126016719Y-82787552D01*
X126016719Y-83747701D01*
X125646710Y-84117710D01*
X125543309Y-84272460D01*
X125507000Y-84455000D01*
X125507000Y-85232000D01*
X125543309Y-85414540D01*
X125646710Y-85569290D01*
X126745043Y-86667623D01*
X126744872Y-86863973D01*
X126855318Y-87131273D01*
X127059648Y-87335959D01*
X127326754Y-87446872D01*
X127615973Y-87447124D01*
X127883273Y-87336678D01*
X128087959Y-87132348D01*
X128198872Y-86865242D01*
X128199124Y-86576023D01*
X128088678Y-86308723D01*
X127884348Y-86104037D01*
X127617242Y-85993124D01*
X127419532Y-85992952D01*
X126461000Y-85034420D01*
X126461000Y-84652580D01*
X126825828Y-84287752D01*
X126831009Y-84284290D01*
X126934410Y-84129540D01*
X126970719Y-83947000D01*
X126970719Y-82326699D01*
X127072805Y-82224613D01*
X127072805Y-83668580D01*
X127109114Y-83851120D01*
X127212515Y-84005870D01*
X127373604Y-84166959D01*
X127373458Y-84334832D01*
X127247602Y-84386835D01*
X127042916Y-84591165D01*
X126932003Y-84858271D01*
X126931751Y-85147490D01*
X127042197Y-85414790D01*
X127246527Y-85619476D01*
X127513633Y-85730389D01*
X127802852Y-85730641D01*
X128070152Y-85620195D01*
X128274838Y-85415865D01*
X128327564Y-85288888D01*
X128415320Y-85501275D01*
X128619650Y-85705961D01*
X128886756Y-85816874D01*
X129175975Y-85817126D01*
X129443275Y-85706680D01*
X129647961Y-85502350D01*
X129758874Y-85235244D01*
X129759046Y-85037534D01*
X129813693Y-84982887D01*
X129917094Y-84828138D01*
X129953403Y-84645597D01*
X129953403Y-83375192D01*
X129917094Y-83192652D01*
X129813693Y-83037902D01*
X129475693Y-82699902D01*
X129320943Y-82596501D01*
X129138403Y-82560192D01*
X128914299Y-82560192D01*
X128426815Y-82072708D01*
X128426815Y-77038420D01*
X128531006Y-76934229D01*
X128727356Y-76934400D01*
X128994656Y-76823954D01*
X129157418Y-76661475D01*
X133575374Y-76661475D01*
X133685820Y-76928775D01*
X133890150Y-77133461D01*
X134157256Y-77244374D01*
X134446475Y-77244626D01*
X134713775Y-77134180D01*
X134918461Y-76929850D01*
X135029374Y-76662744D01*
X135029626Y-76373525D01*
X134919180Y-76106225D01*
X134714850Y-75901539D01*
X134447744Y-75790626D01*
X134158525Y-75790374D01*
X133891225Y-75900820D01*
X133686539Y-76105150D01*
X133575626Y-76372256D01*
X133575374Y-76661475D01*
X129157418Y-76661475D01*
X129199342Y-76619624D01*
X129310255Y-76352518D01*
X129310507Y-76063299D01*
X129200061Y-75795999D01*
X128995731Y-75591313D01*
X128936511Y-75566722D01*
X129711535Y-74791698D01*
X130401078Y-74791698D01*
X130539797Y-74930659D01*
X130806903Y-75041572D01*
X131096122Y-75041824D01*
X131363422Y-74931378D01*
X131568108Y-74727048D01*
X131679021Y-74459942D01*
X131679273Y-74170723D01*
X131568827Y-73903423D01*
X131364497Y-73698737D01*
X131271211Y-73660001D01*
X134400889Y-73660001D01*
X134400874Y-73676975D01*
X134511320Y-73944275D01*
X134715650Y-74148961D01*
X134982756Y-74259874D01*
X135271975Y-74260126D01*
X135539275Y-74149680D01*
X135743961Y-73945350D01*
X135854874Y-73678244D01*
X135855126Y-73389025D01*
X135744680Y-73121725D01*
X135540350Y-72917039D01*
X135273244Y-72806126D01*
X135055764Y-72805937D01*
X134960541Y-72742310D01*
X134778001Y-72706001D01*
X126260997Y-72706001D01*
X126078457Y-72742310D01*
X125923707Y-72845711D01*
X125504709Y-73264709D01*
X125445674Y-73353061D01*
X125384559Y-73291839D01*
X125117453Y-73180926D01*
X124828234Y-73180674D01*
X124560934Y-73291120D01*
X124356248Y-73495450D01*
X124245335Y-73762556D01*
X124245152Y-73972057D01*
X124165473Y-74091305D01*
X124129164Y-74273845D01*
X124129164Y-79414398D01*
X124122710Y-79418710D01*
X123696813Y-79844607D01*
X123749234Y-79718364D01*
X123749486Y-79429145D01*
X123639040Y-79161845D01*
X123434710Y-78957159D01*
X123167604Y-78846246D01*
X122878385Y-78845994D01*
X122611085Y-78956440D01*
X122406399Y-79160770D01*
X122295486Y-79427876D01*
X122295234Y-79717095D01*
X122405680Y-79984395D01*
X122610010Y-80189081D01*
X122877116Y-80299994D01*
X123166335Y-80300246D01*
X123324508Y-80234890D01*
X123257309Y-80335460D01*
X123221000Y-80518000D01*
X123221000Y-82425228D01*
X123257309Y-82607768D01*
X123360710Y-82762518D01*
X123980772Y-83382580D01*
X123980772Y-86742155D01*
X124017081Y-86924695D01*
X124120482Y-87079445D01*
X125831888Y-88790851D01*
X125692206Y-88848566D01*
X125487520Y-89052896D01*
X125376607Y-89320002D01*
X125376355Y-89609221D01*
X125486801Y-89876521D01*
X125691131Y-90081207D01*
X125958237Y-90192120D01*
X126247456Y-90192372D01*
X126514756Y-90081926D01*
X126642233Y-89954670D01*
X126789879Y-90102573D01*
X126894254Y-90145913D01*
X125646710Y-91393457D01*
X125543309Y-91548207D01*
X125507000Y-91730747D01*
X125507000Y-92075000D01*
X123711307Y-92075000D01*
X123850010Y-91936538D01*
X123960923Y-91669432D01*
X123961175Y-91380213D01*
X123850729Y-91112913D01*
X123646399Y-90908227D01*
X123379293Y-90797314D01*
X123321441Y-90797264D01*
X123479582Y-90639398D01*
X123590495Y-90372292D01*
X123590747Y-90083073D01*
X123498053Y-89858735D01*
X123918266Y-89858735D01*
X124028712Y-90126035D01*
X124233042Y-90330721D01*
X124500148Y-90441634D01*
X124789367Y-90441886D01*
X125056667Y-90331440D01*
X125261353Y-90127110D01*
X125372266Y-89860004D01*
X125372518Y-89570785D01*
X125262072Y-89303485D01*
X125057742Y-89098799D01*
X124790636Y-88987886D01*
X124501417Y-88987634D01*
X124234117Y-89098080D01*
X124029431Y-89302410D01*
X123918518Y-89569516D01*
X123918266Y-89858735D01*
X123498053Y-89858735D01*
X123480301Y-89815773D01*
X123275971Y-89611087D01*
X123008865Y-89500174D01*
X122719646Y-89499922D01*
X122452346Y-89610368D01*
X122247660Y-89814698D01*
X122136747Y-90081804D01*
X122136495Y-90371023D01*
X122246941Y-90638323D01*
X122451271Y-90843009D01*
X122718377Y-90953922D01*
X122776229Y-90953972D01*
X122618088Y-91111838D01*
X122507175Y-91378944D01*
X122506923Y-91668163D01*
X122617369Y-91935463D01*
X122756663Y-92075000D01*
X122555000Y-92075000D01*
X122505590Y-92085006D01*
X122463965Y-92113447D01*
X122436685Y-92155841D01*
X122428000Y-92202000D01*
X122428000Y-100711000D01*
X121131739Y-100711000D01*
X121076973Y-100674406D01*
X120904000Y-100640000D01*
X116784000Y-100640000D01*
X116784000Y-99301336D01*
X116893100Y-99301336D01*
X116893372Y-99302723D01*
X117078868Y-99749830D01*
X117421345Y-100091917D01*
X117868663Y-100276904D01*
X118062000Y-100205425D01*
X118062000Y-99108000D01*
X118158000Y-99108000D01*
X118158000Y-100205425D01*
X118351337Y-100276904D01*
X118798655Y-100091917D01*
X119141132Y-99749830D01*
X119326628Y-99302723D01*
X119326900Y-99301336D01*
X119255345Y-99108000D01*
X118158000Y-99108000D01*
X118062000Y-99108000D01*
X116964655Y-99108000D01*
X116893100Y-99301336D01*
X116784000Y-99301336D01*
X116784000Y-98818664D01*
X116893100Y-98818664D01*
X116964655Y-99012000D01*
X118062000Y-99012000D01*
X118062000Y-97914575D01*
X118158000Y-97914575D01*
X118158000Y-99012000D01*
X119255345Y-99012000D01*
X119326900Y-98818664D01*
X119326628Y-98817277D01*
X119141132Y-98370170D01*
X118967164Y-98196400D01*
X119402015Y-98196400D01*
X119402015Y-99923600D01*
X119428303Y-100063308D01*
X119510870Y-100191620D01*
X119636853Y-100277701D01*
X119786400Y-100307985D01*
X121513600Y-100307985D01*
X121653308Y-100281697D01*
X121781620Y-100199130D01*
X121867701Y-100073147D01*
X121897985Y-99923600D01*
X121897985Y-98196400D01*
X121871697Y-98056692D01*
X121789130Y-97928380D01*
X121663147Y-97842299D01*
X121513600Y-97812015D01*
X119786400Y-97812015D01*
X119646692Y-97838303D01*
X119518380Y-97920870D01*
X119432299Y-98046853D01*
X119402015Y-98196400D01*
X118967164Y-98196400D01*
X118798655Y-98028083D01*
X118351337Y-97843096D01*
X118158000Y-97914575D01*
X118062000Y-97914575D01*
X117868663Y-97843096D01*
X117421345Y-98028083D01*
X117078868Y-98370170D01*
X116893372Y-98817277D01*
X116893100Y-98818664D01*
X116784000Y-98818664D01*
X116784000Y-96520000D01*
X116845095Y-96520000D01*
X116939530Y-96994757D01*
X117208458Y-97397237D01*
X117610938Y-97666165D01*
X118085695Y-97760600D01*
X118134305Y-97760600D01*
X118609062Y-97666165D01*
X119011542Y-97397237D01*
X119280470Y-96994757D01*
X119374905Y-96520000D01*
X119385095Y-96520000D01*
X119479530Y-96994757D01*
X119748458Y-97397237D01*
X120150938Y-97666165D01*
X120625695Y-97760600D01*
X120674305Y-97760600D01*
X121149062Y-97666165D01*
X121551542Y-97397237D01*
X121820470Y-96994757D01*
X121914905Y-96520000D01*
X121820470Y-96045243D01*
X121551542Y-95642763D01*
X121149062Y-95373835D01*
X120674305Y-95279400D01*
X120625695Y-95279400D01*
X120150938Y-95373835D01*
X119748458Y-95642763D01*
X119479530Y-96045243D01*
X119385095Y-96520000D01*
X119374905Y-96520000D01*
X119280470Y-96045243D01*
X119011542Y-95642763D01*
X118609062Y-95373835D01*
X118134305Y-95279400D01*
X118085695Y-95279400D01*
X117610938Y-95373835D01*
X117208458Y-95642763D01*
X116939530Y-96045243D01*
X116845095Y-96520000D01*
X116784000Y-96520000D01*
X116784000Y-93980000D01*
X116845095Y-93980000D01*
X116939530Y-94454757D01*
X117208458Y-94857237D01*
X117610938Y-95126165D01*
X118085695Y-95220600D01*
X118134305Y-95220600D01*
X118609062Y-95126165D01*
X119011542Y-94857237D01*
X119280470Y-94454757D01*
X119374905Y-93980000D01*
X119385095Y-93980000D01*
X119479530Y-94454757D01*
X119748458Y-94857237D01*
X120150938Y-95126165D01*
X120625695Y-95220600D01*
X120674305Y-95220600D01*
X121149062Y-95126165D01*
X121551542Y-94857237D01*
X121820470Y-94454757D01*
X121914905Y-93980000D01*
X121820470Y-93505243D01*
X121551542Y-93102763D01*
X121149062Y-92833835D01*
X120674305Y-92739400D01*
X120625695Y-92739400D01*
X120150938Y-92833835D01*
X119748458Y-93102763D01*
X119479530Y-93505243D01*
X119385095Y-93980000D01*
X119374905Y-93980000D01*
X119280470Y-93505243D01*
X119011542Y-93102763D01*
X118609062Y-92833835D01*
X118134305Y-92739400D01*
X118085695Y-92739400D01*
X117610938Y-92833835D01*
X117208458Y-93102763D01*
X116939530Y-93505243D01*
X116845095Y-93980000D01*
X116784000Y-93980000D01*
X116784000Y-87613570D01*
X121575682Y-87613570D01*
X121686128Y-87880870D01*
X121890458Y-88085556D01*
X122157564Y-88196469D01*
X122446783Y-88196721D01*
X122714083Y-88086275D01*
X122918769Y-87881945D01*
X123029682Y-87614839D01*
X123029934Y-87325620D01*
X122919488Y-87058320D01*
X122715158Y-86853634D01*
X122448052Y-86742721D01*
X122158833Y-86742469D01*
X121891533Y-86852915D01*
X121686847Y-87057245D01*
X121575934Y-87324351D01*
X121575682Y-87613570D01*
X116784000Y-87613570D01*
X116784000Y-85008229D01*
X116881841Y-85106240D01*
X117148947Y-85217153D01*
X117438166Y-85217405D01*
X117705466Y-85106959D01*
X117838274Y-84974382D01*
X118050783Y-85062624D01*
X118340002Y-85062876D01*
X118607302Y-84952430D01*
X118811988Y-84748100D01*
X118922901Y-84480994D01*
X118923153Y-84191775D01*
X118812707Y-83924475D01*
X118608377Y-83719789D01*
X118556983Y-83698448D01*
X118815055Y-83591815D01*
X118859886Y-83547062D01*
X118915087Y-83602360D01*
X119182193Y-83713273D01*
X119471412Y-83713525D01*
X119738712Y-83603079D01*
X119805530Y-83536377D01*
X119871389Y-83602351D01*
X120138495Y-83713264D01*
X120427714Y-83713516D01*
X120695014Y-83603070D01*
X120899700Y-83398740D01*
X121010613Y-83131634D01*
X121010865Y-82842415D01*
X120900419Y-82575115D01*
X120879465Y-82554124D01*
X120950352Y-82448034D01*
X120986661Y-82265494D01*
X120986661Y-74523842D01*
X120999864Y-74510662D01*
X121063406Y-74574315D01*
X121330512Y-74685228D01*
X121619731Y-74685480D01*
X121887031Y-74575034D01*
X122091717Y-74370704D01*
X122202630Y-74103598D01*
X122202882Y-73814379D01*
X122092436Y-73547079D01*
X121888106Y-73342393D01*
X121621000Y-73231480D01*
X121331781Y-73231228D01*
X121064481Y-73341674D01*
X120985553Y-73420465D01*
X120922011Y-73356812D01*
X120654905Y-73245899D01*
X120365686Y-73245647D01*
X120098386Y-73356093D01*
X119893700Y-73560423D01*
X119782787Y-73827529D01*
X119782535Y-74116748D01*
X119892981Y-74384048D01*
X120032661Y-74523971D01*
X120032661Y-76848355D01*
X119779244Y-76743126D01*
X119490025Y-76742874D01*
X119222725Y-76853320D01*
X119018039Y-77057650D01*
X118907126Y-77324756D01*
X118906874Y-77613975D01*
X119017320Y-77881275D01*
X119221650Y-78085961D01*
X119488756Y-78196874D01*
X119777975Y-78197126D01*
X120032661Y-78091892D01*
X120032661Y-82067914D01*
X119946449Y-82154126D01*
X119843048Y-82308876D01*
X119820661Y-82421423D01*
X119805646Y-82436412D01*
X119739787Y-82370438D01*
X119472681Y-82259525D01*
X119183462Y-82259273D01*
X118916162Y-82369719D01*
X118871331Y-82414472D01*
X118816130Y-82359174D01*
X118549024Y-82248261D01*
X118259805Y-82248009D01*
X117992505Y-82358455D01*
X117787819Y-82562785D01*
X117676906Y-82829891D01*
X117676654Y-83119110D01*
X117787100Y-83386410D01*
X117991430Y-83591096D01*
X118042824Y-83612437D01*
X117784752Y-83719070D01*
X117651944Y-83851647D01*
X117439435Y-83763405D01*
X117150216Y-83763153D01*
X116882916Y-83873599D01*
X116784000Y-83972343D01*
X116784000Y-66572130D01*
X119527745Y-66572130D01*
X119527745Y-69571870D01*
X119554033Y-69711578D01*
X119636600Y-69839890D01*
X119762583Y-69925971D01*
X119912130Y-69956255D01*
X122911870Y-69956255D01*
X123051578Y-69929967D01*
X123179890Y-69847400D01*
X123265971Y-69721417D01*
X123296255Y-69571870D01*
X123296255Y-68443695D01*
X124614805Y-68443695D01*
X124899939Y-69133772D01*
X125427450Y-69662205D01*
X126117030Y-69948543D01*
X126863695Y-69949195D01*
X127553772Y-69664061D01*
X128082205Y-69136550D01*
X128368543Y-68446970D01*
X128368545Y-68443695D01*
X129694805Y-68443695D01*
X129979939Y-69133772D01*
X130507450Y-69662205D01*
X131197030Y-69948543D01*
X131943695Y-69949195D01*
X132633772Y-69664061D01*
X133162205Y-69136550D01*
X133448543Y-68446970D01*
X133449195Y-67700305D01*
X133164061Y-67010228D01*
X132636550Y-66481795D01*
X131946970Y-66195457D01*
X131200305Y-66194805D01*
X130510228Y-66479939D01*
X129981795Y-67007450D01*
X129695457Y-67697030D01*
X129694805Y-68443695D01*
X128368545Y-68443695D01*
X128369195Y-67700305D01*
X128084061Y-67010228D01*
X127556550Y-66481795D01*
X126866970Y-66195457D01*
X126120305Y-66194805D01*
X125430228Y-66479939D01*
X124901795Y-67007450D01*
X124615457Y-67697030D01*
X124614805Y-68443695D01*
X123296255Y-68443695D01*
X123296255Y-66572130D01*
X123269967Y-66432422D01*
X123187400Y-66304110D01*
X123061417Y-66218029D01*
X122911870Y-66187745D01*
X119912130Y-66187745D01*
X119772422Y-66214033D01*
X119644110Y-66296600D01*
X119558029Y-66422583D01*
X119527745Y-66572130D01*
X116784000Y-66572130D01*
X116784000Y-65730000D01*
X136200000Y-65730000D01*
X136200000Y-92594604D01*
X136200000Y-92594604D01*
G37*
X136200000Y-92594604D02*
X136170286Y-92522691D01*
X135572456Y-91923817D01*
X134790955Y-91599310D01*
X133944758Y-91598571D01*
X133162691Y-91921714D01*
X132563817Y-92519544D01*
X132239310Y-93301045D01*
X132238571Y-94147242D01*
X132561714Y-94929309D01*
X133159544Y-95528183D01*
X133941045Y-95852690D01*
X134787242Y-95853429D01*
X135569309Y-95530286D01*
X136168183Y-94932456D01*
X136200000Y-94855832D01*
X136200000Y-95885000D01*
X127985000Y-95885000D01*
X127985000Y-90970027D01*
X128366414Y-90588613D01*
X128377899Y-90616409D01*
X128582229Y-90821095D01*
X128849335Y-90932008D01*
X129138554Y-90932260D01*
X129405854Y-90821814D01*
X129460189Y-90767573D01*
X129481671Y-90789092D01*
X129748777Y-90900005D01*
X130037996Y-90900257D01*
X130305296Y-90789811D01*
X130509982Y-90585481D01*
X130620895Y-90318375D01*
X130621147Y-90029156D01*
X130510701Y-89761856D01*
X130306371Y-89557170D01*
X130039265Y-89446257D01*
X129750046Y-89446005D01*
X129482746Y-89556451D01*
X129428411Y-89610692D01*
X129406929Y-89589173D01*
X129377906Y-89577121D01*
X131337790Y-87617237D01*
X131441191Y-87462487D01*
X131477500Y-87279947D01*
X131477500Y-85896701D01*
X131540650Y-85959961D01*
X131807756Y-86070874D01*
X132096975Y-86071126D01*
X132364275Y-85960680D01*
X132568961Y-85756350D01*
X132679874Y-85489244D01*
X132680126Y-85200025D01*
X132569680Y-84932725D01*
X132365350Y-84728039D01*
X132117999Y-84625329D01*
X132117999Y-82185975D01*
X132368874Y-82185975D01*
X132479320Y-82453275D01*
X132683650Y-82657961D01*
X132950756Y-82768874D01*
X133239975Y-82769126D01*
X133507275Y-82658680D01*
X133711961Y-82454350D01*
X133822874Y-82187244D01*
X133823126Y-81898025D01*
X133712680Y-81630725D01*
X133508350Y-81426039D01*
X133241244Y-81315126D01*
X132952025Y-81314874D01*
X132684725Y-81425320D01*
X132480039Y-81629650D01*
X132369126Y-81896756D01*
X132368874Y-82185975D01*
X132117999Y-82185975D01*
X132117999Y-81221999D01*
X132081690Y-81039459D01*
X131978289Y-80884709D01*
X131501555Y-80407975D01*
X132368874Y-80407975D01*
X132479320Y-80675275D01*
X132683650Y-80879961D01*
X132950756Y-80990874D01*
X133239975Y-80991126D01*
X133507275Y-80880680D01*
X133711961Y-80676350D01*
X133822874Y-80409244D01*
X133823126Y-80120025D01*
X133712680Y-79852725D01*
X133508350Y-79648039D01*
X133241244Y-79537126D01*
X132952025Y-79536874D01*
X132684725Y-79647320D01*
X132480039Y-79851650D01*
X132369126Y-80118756D01*
X132368874Y-80407975D01*
X131501555Y-80407975D01*
X131328943Y-80235363D01*
X131329125Y-80026180D01*
X131218679Y-79758880D01*
X131014349Y-79554194D01*
X130747243Y-79443281D01*
X130458024Y-79443029D01*
X130190724Y-79553475D01*
X130127674Y-79616416D01*
X130086487Y-79575157D01*
X129819381Y-79464244D01*
X129530162Y-79463992D01*
X129262862Y-79574438D01*
X129058176Y-79778768D01*
X128947263Y-80045874D01*
X128947011Y-80335093D01*
X129057457Y-80602393D01*
X129261787Y-80807079D01*
X129528893Y-80917992D01*
X129713415Y-80918153D01*
X130763989Y-81968727D01*
X130763989Y-84330732D01*
X130263200Y-84831519D01*
X130159799Y-84986268D01*
X130159799Y-84986269D01*
X130123490Y-85168809D01*
X130123490Y-86916677D01*
X127861574Y-89178593D01*
X127818909Y-89075337D01*
X127614579Y-88870651D01*
X127347473Y-88759738D01*
X127149763Y-88759566D01*
X124934772Y-86544575D01*
X124934772Y-83185000D01*
X124898463Y-83002460D01*
X124795062Y-82847710D01*
X124349366Y-82402014D01*
X124461675Y-82448649D01*
X124750894Y-82448901D01*
X125018194Y-82338455D01*
X125123563Y-82233269D01*
X125227037Y-82483695D01*
X125431367Y-82688381D01*
X125698473Y-82799294D01*
X125987692Y-82799546D01*
X126016719Y-82787552D01*
X126016719Y-83747701D01*
X125646710Y-84117710D01*
X125543309Y-84272460D01*
X125507000Y-84455000D01*
X125507000Y-85232000D01*
X125543309Y-85414540D01*
X125646710Y-85569290D01*
X126745043Y-86667623D01*
X126744872Y-86863973D01*
X126855318Y-87131273D01*
X127059648Y-87335959D01*
X127326754Y-87446872D01*
X127615973Y-87447124D01*
X127883273Y-87336678D01*
X128087959Y-87132348D01*
X128198872Y-86865242D01*
X128199124Y-86576023D01*
X128088678Y-86308723D01*
X127884348Y-86104037D01*
X127617242Y-85993124D01*
X127419532Y-85992952D01*
X126461000Y-85034420D01*
X126461000Y-84652580D01*
X126825828Y-84287752D01*
X126831009Y-84284290D01*
X126934410Y-84129540D01*
X126970719Y-83947000D01*
X126970719Y-82326699D01*
X127072805Y-82224613D01*
X127072805Y-83668580D01*
X127109114Y-83851120D01*
X127212515Y-84005870D01*
X127373604Y-84166959D01*
X127373458Y-84334832D01*
X127247602Y-84386835D01*
X127042916Y-84591165D01*
X126932003Y-84858271D01*
X126931751Y-85147490D01*
X127042197Y-85414790D01*
X127246527Y-85619476D01*
X127513633Y-85730389D01*
X127802852Y-85730641D01*
X128070152Y-85620195D01*
X128274838Y-85415865D01*
X128327564Y-85288888D01*
X128415320Y-85501275D01*
X128619650Y-85705961D01*
X128886756Y-85816874D01*
X129175975Y-85817126D01*
X129443275Y-85706680D01*
X129647961Y-85502350D01*
X129758874Y-85235244D01*
X129759046Y-85037534D01*
X129813693Y-84982887D01*
X129917094Y-84828138D01*
X129953403Y-84645597D01*
X129953403Y-83375192D01*
X129917094Y-83192652D01*
X129813693Y-83037902D01*
X129475693Y-82699902D01*
X129320943Y-82596501D01*
X129138403Y-82560192D01*
X128914299Y-82560192D01*
X128426815Y-82072708D01*
X128426815Y-77038420D01*
X128531006Y-76934229D01*
X128727356Y-76934400D01*
X128994656Y-76823954D01*
X129157418Y-76661475D01*
X133575374Y-76661475D01*
X133685820Y-76928775D01*
X133890150Y-77133461D01*
X134157256Y-77244374D01*
X134446475Y-77244626D01*
X134713775Y-77134180D01*
X134918461Y-76929850D01*
X135029374Y-76662744D01*
X135029626Y-76373525D01*
X134919180Y-76106225D01*
X134714850Y-75901539D01*
X134447744Y-75790626D01*
X134158525Y-75790374D01*
X133891225Y-75900820D01*
X133686539Y-76105150D01*
X133575626Y-76372256D01*
X133575374Y-76661475D01*
X129157418Y-76661475D01*
X129199342Y-76619624D01*
X129310255Y-76352518D01*
X129310507Y-76063299D01*
X129200061Y-75795999D01*
X128995731Y-75591313D01*
X128936511Y-75566722D01*
X129711535Y-74791698D01*
X130401078Y-74791698D01*
X130539797Y-74930659D01*
X130806903Y-75041572D01*
X131096122Y-75041824D01*
X131363422Y-74931378D01*
X131568108Y-74727048D01*
X131679021Y-74459942D01*
X131679273Y-74170723D01*
X131568827Y-73903423D01*
X131364497Y-73698737D01*
X131271211Y-73660001D01*
X134400889Y-73660001D01*
X134400874Y-73676975D01*
X134511320Y-73944275D01*
X134715650Y-74148961D01*
X134982756Y-74259874D01*
X135271975Y-74260126D01*
X135539275Y-74149680D01*
X135743961Y-73945350D01*
X135854874Y-73678244D01*
X135855126Y-73389025D01*
X135744680Y-73121725D01*
X135540350Y-72917039D01*
X135273244Y-72806126D01*
X135055764Y-72805937D01*
X134960541Y-72742310D01*
X134778001Y-72706001D01*
X126260997Y-72706001D01*
X126078457Y-72742310D01*
X125923707Y-72845711D01*
X125504709Y-73264709D01*
X125445674Y-73353061D01*
X125384559Y-73291839D01*
X125117453Y-73180926D01*
X124828234Y-73180674D01*
X124560934Y-73291120D01*
X124356248Y-73495450D01*
X124245335Y-73762556D01*
X124245152Y-73972057D01*
X124165473Y-74091305D01*
X124129164Y-74273845D01*
X124129164Y-79414398D01*
X124122710Y-79418710D01*
X123696813Y-79844607D01*
X123749234Y-79718364D01*
X123749486Y-79429145D01*
X123639040Y-79161845D01*
X123434710Y-78957159D01*
X123167604Y-78846246D01*
X122878385Y-78845994D01*
X122611085Y-78956440D01*
X122406399Y-79160770D01*
X122295486Y-79427876D01*
X122295234Y-79717095D01*
X122405680Y-79984395D01*
X122610010Y-80189081D01*
X122877116Y-80299994D01*
X123166335Y-80300246D01*
X123324508Y-80234890D01*
X123257309Y-80335460D01*
X123221000Y-80518000D01*
X123221000Y-82425228D01*
X123257309Y-82607768D01*
X123360710Y-82762518D01*
X123980772Y-83382580D01*
X123980772Y-86742155D01*
X124017081Y-86924695D01*
X124120482Y-87079445D01*
X125831888Y-88790851D01*
X125692206Y-88848566D01*
X125487520Y-89052896D01*
X125376607Y-89320002D01*
X125376355Y-89609221D01*
X125486801Y-89876521D01*
X125691131Y-90081207D01*
X125958237Y-90192120D01*
X126247456Y-90192372D01*
X126514756Y-90081926D01*
X126642233Y-89954670D01*
X126789879Y-90102573D01*
X126894254Y-90145913D01*
X125646710Y-91393457D01*
X125543309Y-91548207D01*
X125507000Y-91730747D01*
X125507000Y-92075000D01*
X123711307Y-92075000D01*
X123850010Y-91936538D01*
X123960923Y-91669432D01*
X123961175Y-91380213D01*
X123850729Y-91112913D01*
X123646399Y-90908227D01*
X123379293Y-90797314D01*
X123321441Y-90797264D01*
X123479582Y-90639398D01*
X123590495Y-90372292D01*
X123590747Y-90083073D01*
X123498053Y-89858735D01*
X123918266Y-89858735D01*
X124028712Y-90126035D01*
X124233042Y-90330721D01*
X124500148Y-90441634D01*
X124789367Y-90441886D01*
X125056667Y-90331440D01*
X125261353Y-90127110D01*
X125372266Y-89860004D01*
X125372518Y-89570785D01*
X125262072Y-89303485D01*
X125057742Y-89098799D01*
X124790636Y-88987886D01*
X124501417Y-88987634D01*
X124234117Y-89098080D01*
X124029431Y-89302410D01*
X123918518Y-89569516D01*
X123918266Y-89858735D01*
X123498053Y-89858735D01*
X123480301Y-89815773D01*
X123275971Y-89611087D01*
X123008865Y-89500174D01*
X122719646Y-89499922D01*
X122452346Y-89610368D01*
X122247660Y-89814698D01*
X122136747Y-90081804D01*
X122136495Y-90371023D01*
X122246941Y-90638323D01*
X122451271Y-90843009D01*
X122718377Y-90953922D01*
X122776229Y-90953972D01*
X122618088Y-91111838D01*
X122507175Y-91378944D01*
X122506923Y-91668163D01*
X122617369Y-91935463D01*
X122756663Y-92075000D01*
X122555000Y-92075000D01*
X122505590Y-92085006D01*
X122463965Y-92113447D01*
X122436685Y-92155841D01*
X122428000Y-92202000D01*
X122428000Y-100711000D01*
X121131739Y-100711000D01*
X121076973Y-100674406D01*
X120904000Y-100640000D01*
X116784000Y-100640000D01*
X116784000Y-99301336D01*
X116893100Y-99301336D01*
X116893372Y-99302723D01*
X117078868Y-99749830D01*
X117421345Y-100091917D01*
X117868663Y-100276904D01*
X118062000Y-100205425D01*
X118062000Y-99108000D01*
X118158000Y-99108000D01*
X118158000Y-100205425D01*
X118351337Y-100276904D01*
X118798655Y-100091917D01*
X119141132Y-99749830D01*
X119326628Y-99302723D01*
X119326900Y-99301336D01*
X119255345Y-99108000D01*
X118158000Y-99108000D01*
X118062000Y-99108000D01*
X116964655Y-99108000D01*
X116893100Y-99301336D01*
X116784000Y-99301336D01*
X116784000Y-98818664D01*
X116893100Y-98818664D01*
X116964655Y-99012000D01*
X118062000Y-99012000D01*
X118062000Y-97914575D01*
X118158000Y-97914575D01*
X118158000Y-99012000D01*
X119255345Y-99012000D01*
X119326900Y-98818664D01*
X119326628Y-98817277D01*
X119141132Y-98370170D01*
X118967164Y-98196400D01*
X119402015Y-98196400D01*
X119402015Y-99923600D01*
X119428303Y-100063308D01*
X119510870Y-100191620D01*
X119636853Y-100277701D01*
X119786400Y-100307985D01*
X121513600Y-100307985D01*
X121653308Y-100281697D01*
X121781620Y-100199130D01*
X121867701Y-100073147D01*
X121897985Y-99923600D01*
X121897985Y-98196400D01*
X121871697Y-98056692D01*
X121789130Y-97928380D01*
X121663147Y-97842299D01*
X121513600Y-97812015D01*
X119786400Y-97812015D01*
X119646692Y-97838303D01*
X119518380Y-97920870D01*
X119432299Y-98046853D01*
X119402015Y-98196400D01*
X118967164Y-98196400D01*
X118798655Y-98028083D01*
X118351337Y-97843096D01*
X118158000Y-97914575D01*
X118062000Y-97914575D01*
X117868663Y-97843096D01*
X117421345Y-98028083D01*
X117078868Y-98370170D01*
X116893372Y-98817277D01*
X116893100Y-98818664D01*
X116784000Y-98818664D01*
X116784000Y-96520000D01*
X116845095Y-96520000D01*
X116939530Y-96994757D01*
X117208458Y-97397237D01*
X117610938Y-97666165D01*
X118085695Y-97760600D01*
X118134305Y-97760600D01*
X118609062Y-97666165D01*
X119011542Y-97397237D01*
X119280470Y-96994757D01*
X119374905Y-96520000D01*
X119385095Y-96520000D01*
X119479530Y-96994757D01*
X119748458Y-97397237D01*
X120150938Y-97666165D01*
X120625695Y-97760600D01*
X120674305Y-97760600D01*
X121149062Y-97666165D01*
X121551542Y-97397237D01*
X121820470Y-96994757D01*
X121914905Y-96520000D01*
X121820470Y-96045243D01*
X121551542Y-95642763D01*
X121149062Y-95373835D01*
X120674305Y-95279400D01*
X120625695Y-95279400D01*
X120150938Y-95373835D01*
X119748458Y-95642763D01*
X119479530Y-96045243D01*
X119385095Y-96520000D01*
X119374905Y-96520000D01*
X119280470Y-96045243D01*
X119011542Y-95642763D01*
X118609062Y-95373835D01*
X118134305Y-95279400D01*
X118085695Y-95279400D01*
X117610938Y-95373835D01*
X117208458Y-95642763D01*
X116939530Y-96045243D01*
X116845095Y-96520000D01*
X116784000Y-96520000D01*
X116784000Y-93980000D01*
X116845095Y-93980000D01*
X116939530Y-94454757D01*
X117208458Y-94857237D01*
X117610938Y-95126165D01*
X118085695Y-95220600D01*
X118134305Y-95220600D01*
X118609062Y-95126165D01*
X119011542Y-94857237D01*
X119280470Y-94454757D01*
X119374905Y-93980000D01*
X119385095Y-93980000D01*
X119479530Y-94454757D01*
X119748458Y-94857237D01*
X120150938Y-95126165D01*
X120625695Y-95220600D01*
X120674305Y-95220600D01*
X121149062Y-95126165D01*
X121551542Y-94857237D01*
X121820470Y-94454757D01*
X121914905Y-93980000D01*
X121820470Y-93505243D01*
X121551542Y-93102763D01*
X121149062Y-92833835D01*
X120674305Y-92739400D01*
X120625695Y-92739400D01*
X120150938Y-92833835D01*
X119748458Y-93102763D01*
X119479530Y-93505243D01*
X119385095Y-93980000D01*
X119374905Y-93980000D01*
X119280470Y-93505243D01*
X119011542Y-93102763D01*
X118609062Y-92833835D01*
X118134305Y-92739400D01*
X118085695Y-92739400D01*
X117610938Y-92833835D01*
X117208458Y-93102763D01*
X116939530Y-93505243D01*
X116845095Y-93980000D01*
X116784000Y-93980000D01*
X116784000Y-87613570D01*
X121575682Y-87613570D01*
X121686128Y-87880870D01*
X121890458Y-88085556D01*
X122157564Y-88196469D01*
X122446783Y-88196721D01*
X122714083Y-88086275D01*
X122918769Y-87881945D01*
X123029682Y-87614839D01*
X123029934Y-87325620D01*
X122919488Y-87058320D01*
X122715158Y-86853634D01*
X122448052Y-86742721D01*
X122158833Y-86742469D01*
X121891533Y-86852915D01*
X121686847Y-87057245D01*
X121575934Y-87324351D01*
X121575682Y-87613570D01*
X116784000Y-87613570D01*
X116784000Y-85008229D01*
X116881841Y-85106240D01*
X117148947Y-85217153D01*
X117438166Y-85217405D01*
X117705466Y-85106959D01*
X117838274Y-84974382D01*
X118050783Y-85062624D01*
X118340002Y-85062876D01*
X118607302Y-84952430D01*
X118811988Y-84748100D01*
X118922901Y-84480994D01*
X118923153Y-84191775D01*
X118812707Y-83924475D01*
X118608377Y-83719789D01*
X118556983Y-83698448D01*
X118815055Y-83591815D01*
X118859886Y-83547062D01*
X118915087Y-83602360D01*
X119182193Y-83713273D01*
X119471412Y-83713525D01*
X119738712Y-83603079D01*
X119805530Y-83536377D01*
X119871389Y-83602351D01*
X120138495Y-83713264D01*
X120427714Y-83713516D01*
X120695014Y-83603070D01*
X120899700Y-83398740D01*
X121010613Y-83131634D01*
X121010865Y-82842415D01*
X120900419Y-82575115D01*
X120879465Y-82554124D01*
X120950352Y-82448034D01*
X120986661Y-82265494D01*
X120986661Y-74523842D01*
X120999864Y-74510662D01*
X121063406Y-74574315D01*
X121330512Y-74685228D01*
X121619731Y-74685480D01*
X121887031Y-74575034D01*
X122091717Y-74370704D01*
X122202630Y-74103598D01*
X122202882Y-73814379D01*
X122092436Y-73547079D01*
X121888106Y-73342393D01*
X121621000Y-73231480D01*
X121331781Y-73231228D01*
X121064481Y-73341674D01*
X120985553Y-73420465D01*
X120922011Y-73356812D01*
X120654905Y-73245899D01*
X120365686Y-73245647D01*
X120098386Y-73356093D01*
X119893700Y-73560423D01*
X119782787Y-73827529D01*
X119782535Y-74116748D01*
X119892981Y-74384048D01*
X120032661Y-74523971D01*
X120032661Y-76848355D01*
X119779244Y-76743126D01*
X119490025Y-76742874D01*
X119222725Y-76853320D01*
X119018039Y-77057650D01*
X118907126Y-77324756D01*
X118906874Y-77613975D01*
X119017320Y-77881275D01*
X119221650Y-78085961D01*
X119488756Y-78196874D01*
X119777975Y-78197126D01*
X120032661Y-78091892D01*
X120032661Y-82067914D01*
X119946449Y-82154126D01*
X119843048Y-82308876D01*
X119820661Y-82421423D01*
X119805646Y-82436412D01*
X119739787Y-82370438D01*
X119472681Y-82259525D01*
X119183462Y-82259273D01*
X118916162Y-82369719D01*
X118871331Y-82414472D01*
X118816130Y-82359174D01*
X118549024Y-82248261D01*
X118259805Y-82248009D01*
X117992505Y-82358455D01*
X117787819Y-82562785D01*
X117676906Y-82829891D01*
X117676654Y-83119110D01*
X117787100Y-83386410D01*
X117991430Y-83591096D01*
X118042824Y-83612437D01*
X117784752Y-83719070D01*
X117651944Y-83851647D01*
X117439435Y-83763405D01*
X117150216Y-83763153D01*
X116882916Y-83873599D01*
X116784000Y-83972343D01*
X116784000Y-66572130D01*
X119527745Y-66572130D01*
X119527745Y-69571870D01*
X119554033Y-69711578D01*
X119636600Y-69839890D01*
X119762583Y-69925971D01*
X119912130Y-69956255D01*
X122911870Y-69956255D01*
X123051578Y-69929967D01*
X123179890Y-69847400D01*
X123265971Y-69721417D01*
X123296255Y-69571870D01*
X123296255Y-68443695D01*
X124614805Y-68443695D01*
X124899939Y-69133772D01*
X125427450Y-69662205D01*
X126117030Y-69948543D01*
X126863695Y-69949195D01*
X127553772Y-69664061D01*
X128082205Y-69136550D01*
X128368543Y-68446970D01*
X128368545Y-68443695D01*
X129694805Y-68443695D01*
X129979939Y-69133772D01*
X130507450Y-69662205D01*
X131197030Y-69948543D01*
X131943695Y-69949195D01*
X132633772Y-69664061D01*
X133162205Y-69136550D01*
X133448543Y-68446970D01*
X133449195Y-67700305D01*
X133164061Y-67010228D01*
X132636550Y-66481795D01*
X131946970Y-66195457D01*
X131200305Y-66194805D01*
X130510228Y-66479939D01*
X129981795Y-67007450D01*
X129695457Y-67697030D01*
X129694805Y-68443695D01*
X128368545Y-68443695D01*
X128369195Y-67700305D01*
X128084061Y-67010228D01*
X127556550Y-66481795D01*
X126866970Y-66195457D01*
X126120305Y-66194805D01*
X125430228Y-66479939D01*
X124901795Y-67007450D01*
X124615457Y-67697030D01*
X124614805Y-68443695D01*
X123296255Y-68443695D01*
X123296255Y-66572130D01*
X123269967Y-66432422D01*
X123187400Y-66304110D01*
X123061417Y-66218029D01*
X122911870Y-66187745D01*
X119912130Y-66187745D01*
X119772422Y-66214033D01*
X119644110Y-66296600D01*
X119558029Y-66422583D01*
X119527745Y-66572130D01*
X116784000Y-66572130D01*
X116784000Y-65730000D01*
X136200000Y-65730000D01*
X136200000Y-92594604D01*
G36*
X125407000Y-95281634D02*
X125183070Y-95057312D01*
X124879222Y-94931144D01*
X124550221Y-94930857D01*
X124246154Y-95056495D01*
X124013312Y-95288930D01*
X123887144Y-95592778D01*
X123886857Y-95921779D01*
X124012495Y-96225846D01*
X124220827Y-96434543D01*
X124086409Y-96758258D01*
X124086092Y-97121074D01*
X124224643Y-97456394D01*
X124480969Y-97713167D01*
X124816046Y-97852303D01*
X125156945Y-97852601D01*
X125156857Y-97953779D01*
X125282495Y-98257846D01*
X125514930Y-98490688D01*
X125818778Y-98616856D01*
X126147779Y-98617143D01*
X126172952Y-98606742D01*
X126172857Y-98715779D01*
X126298495Y-99019846D01*
X126530930Y-99252688D01*
X126834778Y-99378856D01*
X127163779Y-99379143D01*
X127467846Y-99253505D01*
X127700688Y-99021070D01*
X127826856Y-98717222D01*
X127826999Y-98553007D01*
X127975846Y-98491505D01*
X128208688Y-98259070D01*
X128334856Y-97955222D01*
X128335143Y-97626221D01*
X128209505Y-97322154D01*
X128085000Y-97197431D01*
X128085000Y-96647000D01*
X131826000Y-96647000D01*
X131826000Y-103632000D01*
X129794000Y-103632000D01*
X129794000Y-100838000D01*
X129783994Y-100788590D01*
X129755553Y-100746965D01*
X129713159Y-100719685D01*
X129667000Y-100711000D01*
X123444000Y-100711000D01*
X123444000Y-92964000D01*
X125407000Y-92964000D01*
X125407000Y-95281634D01*
X125407000Y-95281634D01*
G37*
X125407000Y-95281634D02*
X125183070Y-95057312D01*
X124879222Y-94931144D01*
X124550221Y-94930857D01*
X124246154Y-95056495D01*
X124013312Y-95288930D01*
X123887144Y-95592778D01*
X123886857Y-95921779D01*
X124012495Y-96225846D01*
X124220827Y-96434543D01*
X124086409Y-96758258D01*
X124086092Y-97121074D01*
X124224643Y-97456394D01*
X124480969Y-97713167D01*
X124816046Y-97852303D01*
X125156945Y-97852601D01*
X125156857Y-97953779D01*
X125282495Y-98257846D01*
X125514930Y-98490688D01*
X125818778Y-98616856D01*
X126147779Y-98617143D01*
X126172952Y-98606742D01*
X126172857Y-98715779D01*
X126298495Y-99019846D01*
X126530930Y-99252688D01*
X126834778Y-99378856D01*
X127163779Y-99379143D01*
X127467846Y-99253505D01*
X127700688Y-99021070D01*
X127826856Y-98717222D01*
X127826999Y-98553007D01*
X127975846Y-98491505D01*
X128208688Y-98259070D01*
X128334856Y-97955222D01*
X128335143Y-97626221D01*
X128209505Y-97322154D01*
X128085000Y-97197431D01*
X128085000Y-96647000D01*
X131826000Y-96647000D01*
X131826000Y-103632000D01*
X129794000Y-103632000D01*
X129794000Y-100838000D01*
X129783994Y-100788590D01*
X129755553Y-100746965D01*
X129713159Y-100719685D01*
X129667000Y-100711000D01*
X123444000Y-100711000D01*
X123444000Y-92964000D01*
X125407000Y-92964000D01*
X125407000Y-95281634D01*
M02*
