M48
;DRILL file {KiCad 4.0.1-stable} date Monday, February 15, 2016 'PMt' 09:43:14 PM
;FORMAT={-:-/ absolute / inch / decimal}
FMAT,2
INCH,TZ
T1C0.014
T2C0.020
T3C0.040
T4C0.055
T5C0.059
%
G90
G05
M72
T1
X4.6179Y-3.3264
X4.65Y-3.4758
X4.6534Y-3.3203
X4.6616Y-3.2667
X4.6942Y-3.0183
X4.6979Y-3.2672
X4.71Y-3.05
X4.7356Y-3.2672
X4.7445Y-2.9123
X4.7825Y-2.9117
X4.8151Y-3.4437
X4.8372Y-3.5522
X4.8434Y-3.1328
X4.8517Y-3.6033
X4.9058Y-3.2174
X4.9073Y-3.5321
X4.91Y-3.77
X4.91Y-3.88
X4.9202Y-2.9098
X4.9255Y-3.2797
X4.95Y-4.05
X4.9541Y-3.0092
X4.9545Y-3.2312
X4.96Y-3.85
X4.9647Y-3.5223
X4.98Y-2.91
X5.Y-3.88
X5.008Y-3.5231
X5.0186Y-3.4142
X5.02Y-3.85
X5.0259Y-3.3466
X5.0433Y-3.3157
X5.05Y-4.05
X5.0623Y-3.0003
X5.066Y-3.848
X5.0719Y-3.2948
X5.0785Y-3.5514
X5.08Y-3.35
X5.1053Y-3.1571
X5.1139Y-3.5501
X5.1418Y-3.1563
X5.15Y-3.55
X5.15Y-4.055
X5.1556Y-2.9258
X5.195Y-3.36
X5.24Y-3.1246
X5.24Y-3.16
X5.24Y-3.23
X5.2869Y-3.2994
X5.2875Y-3.0125
X5.2883Y-3.352
X5.32Y-2.895
X5.32Y-3.1375
T2
X4.85Y-4.0325
X4.9212Y-3.8166
T3
X4.65Y-3.7
X4.65Y-3.8
X4.65Y-3.9
X4.75Y-3.7
X4.75Y-3.8
X4.75Y-3.9
T4
X4.78Y-2.68
X4.98Y-2.68
X5.18Y-2.68
T5
X5.29Y-3.69
X5.29Y-3.89
T0
M30
