G04 #@! TF.FileFunction,Other,Fab,Bot*
%FSLAX46Y46*%
G04 Gerber Fmt 4.6, Leading zero omitted, Abs format (unit mm)*
G04 Created by KiCad (PCBNEW 4.0.1-stable) date Monday, February 15, 2016 'PMt' 09:43:10 PM*
%MOMM*%
G01*
G04 APERTURE LIST*
%ADD10C,0.100000*%
%ADD11C,0.150000*%
G04 APERTURE END LIST*
D10*
D11*
X128937925Y-85389981D02*
X128937925Y-84389981D01*
X128699830Y-84389981D01*
X128556972Y-84437600D01*
X128461734Y-84532838D01*
X128414115Y-84628076D01*
X128366496Y-84818552D01*
X128366496Y-84961410D01*
X128414115Y-85151886D01*
X128461734Y-85247124D01*
X128556972Y-85342362D01*
X128699830Y-85389981D01*
X128937925Y-85389981D01*
X127509353Y-85389981D02*
X127509353Y-84866171D01*
X127556972Y-84770933D01*
X127652210Y-84723314D01*
X127842687Y-84723314D01*
X127937925Y-84770933D01*
X127509353Y-85342362D02*
X127604591Y-85389981D01*
X127842687Y-85389981D01*
X127937925Y-85342362D01*
X127985544Y-85247124D01*
X127985544Y-85151886D01*
X127937925Y-85056648D01*
X127842687Y-85009029D01*
X127604591Y-85009029D01*
X127509353Y-84961410D01*
X127176020Y-84723314D02*
X126795068Y-84723314D01*
X127033163Y-84389981D02*
X127033163Y-85247124D01*
X126985544Y-85342362D01*
X126890306Y-85389981D01*
X126795068Y-85389981D01*
X126033162Y-85389981D02*
X126033162Y-84866171D01*
X126080781Y-84770933D01*
X126176019Y-84723314D01*
X126366496Y-84723314D01*
X126461734Y-84770933D01*
X126033162Y-85342362D02*
X126128400Y-85389981D01*
X126366496Y-85389981D01*
X126461734Y-85342362D01*
X126509353Y-85247124D01*
X126509353Y-85151886D01*
X126461734Y-85056648D01*
X126366496Y-85009029D01*
X126128400Y-85009029D01*
X126033162Y-84961410D01*
X125699829Y-84723314D02*
X125318877Y-84723314D01*
X125556972Y-85389981D02*
X125556972Y-84532838D01*
X125509353Y-84437600D01*
X125414115Y-84389981D01*
X125318877Y-84389981D01*
X124842686Y-85389981D02*
X124937924Y-85342362D01*
X124985543Y-85247124D01*
X124985543Y-84389981D01*
X124033161Y-85389981D02*
X124033161Y-84866171D01*
X124080780Y-84770933D01*
X124176018Y-84723314D01*
X124366495Y-84723314D01*
X124461733Y-84770933D01*
X124033161Y-85342362D02*
X124128399Y-85389981D01*
X124366495Y-85389981D01*
X124461733Y-85342362D01*
X124509352Y-85247124D01*
X124509352Y-85151886D01*
X124461733Y-85056648D01*
X124366495Y-85009029D01*
X124128399Y-85009029D01*
X124033161Y-84961410D01*
X123604590Y-85342362D02*
X123509352Y-85389981D01*
X123318876Y-85389981D01*
X123223637Y-85342362D01*
X123176018Y-85247124D01*
X123176018Y-85199505D01*
X123223637Y-85104267D01*
X123318876Y-85056648D01*
X123461733Y-85056648D01*
X123556971Y-85009029D01*
X123604590Y-84913790D01*
X123604590Y-84866171D01*
X123556971Y-84770933D01*
X123461733Y-84723314D01*
X123318876Y-84723314D01*
X123223637Y-84770933D01*
X122747447Y-85389981D02*
X122747447Y-84389981D01*
X122318875Y-85389981D02*
X122318875Y-84866171D01*
X122366494Y-84770933D01*
X122461732Y-84723314D01*
X122604590Y-84723314D01*
X122699828Y-84770933D01*
X122747447Y-84818552D01*
X127894286Y-75244619D02*
X127846667Y-75197000D01*
X127751429Y-75149381D01*
X127513333Y-75149381D01*
X127418095Y-75197000D01*
X127370476Y-75244619D01*
X127322857Y-75339857D01*
X127322857Y-75435095D01*
X127370476Y-75577952D01*
X127941905Y-76149381D01*
X127322857Y-76149381D01*
X126941905Y-75244619D02*
X126894286Y-75197000D01*
X126799048Y-75149381D01*
X126560952Y-75149381D01*
X126465714Y-75197000D01*
X126418095Y-75244619D01*
X126370476Y-75339857D01*
X126370476Y-75435095D01*
X126418095Y-75577952D01*
X126989524Y-76149381D01*
X126370476Y-76149381D01*
X125941905Y-75482714D02*
X125941905Y-76482714D01*
X125941905Y-75530333D02*
X125846667Y-75482714D01*
X125656190Y-75482714D01*
X125560952Y-75530333D01*
X125513333Y-75577952D01*
X125465714Y-75673190D01*
X125465714Y-75958905D01*
X125513333Y-76054143D01*
X125560952Y-76101762D01*
X125656190Y-76149381D01*
X125846667Y-76149381D01*
X125941905Y-76101762D01*
X124023286Y-79044619D02*
X123975667Y-78997000D01*
X123880429Y-78949381D01*
X123642333Y-78949381D01*
X123547095Y-78997000D01*
X123499476Y-79044619D01*
X123451857Y-79139857D01*
X123451857Y-79235095D01*
X123499476Y-79377952D01*
X124070905Y-79949381D01*
X123451857Y-79949381D01*
X123070905Y-79044619D02*
X123023286Y-78997000D01*
X122928048Y-78949381D01*
X122689952Y-78949381D01*
X122594714Y-78997000D01*
X122547095Y-79044619D01*
X122499476Y-79139857D01*
X122499476Y-79235095D01*
X122547095Y-79377952D01*
X123118524Y-79949381D01*
X122499476Y-79949381D01*
X122070905Y-79282714D02*
X122070905Y-80282714D01*
X122070905Y-79330333D02*
X121975667Y-79282714D01*
X121785190Y-79282714D01*
X121689952Y-79330333D01*
X121642333Y-79377952D01*
X121594714Y-79473190D01*
X121594714Y-79758905D01*
X121642333Y-79854143D01*
X121689952Y-79901762D01*
X121785190Y-79949381D01*
X121975667Y-79949381D01*
X122070905Y-79901762D01*
X130276381Y-92480000D02*
X130276381Y-93099048D01*
X130657333Y-92765714D01*
X130657333Y-92908572D01*
X130704952Y-93003810D01*
X130752571Y-93051429D01*
X130847810Y-93099048D01*
X131085905Y-93099048D01*
X131181143Y-93051429D01*
X131228762Y-93003810D01*
X131276381Y-92908572D01*
X131276381Y-92622857D01*
X131228762Y-92527619D01*
X131181143Y-92480000D01*
X131181143Y-93527619D02*
X131228762Y-93575238D01*
X131276381Y-93527619D01*
X131228762Y-93480000D01*
X131181143Y-93527619D01*
X131276381Y-93527619D01*
X130276381Y-93908571D02*
X130276381Y-94527619D01*
X130657333Y-94194285D01*
X130657333Y-94337143D01*
X130704952Y-94432381D01*
X130752571Y-94480000D01*
X130847810Y-94527619D01*
X131085905Y-94527619D01*
X131181143Y-94480000D01*
X131228762Y-94432381D01*
X131276381Y-94337143D01*
X131276381Y-94051428D01*
X131228762Y-93956190D01*
X131181143Y-93908571D01*
X130609714Y-95384762D02*
X131276381Y-95384762D01*
X130609714Y-94956190D02*
X131133524Y-94956190D01*
X131228762Y-95003809D01*
X131276381Y-95099047D01*
X131276381Y-95241905D01*
X131228762Y-95337143D01*
X131181143Y-95384762D01*
X125822381Y-99374286D02*
X125822381Y-99183809D01*
X125870000Y-99088571D01*
X125917619Y-99040952D01*
X126060476Y-98945714D01*
X126250952Y-98898095D01*
X126631905Y-98898095D01*
X126727143Y-98945714D01*
X126774762Y-98993333D01*
X126822381Y-99088571D01*
X126822381Y-99279048D01*
X126774762Y-99374286D01*
X126727143Y-99421905D01*
X126631905Y-99469524D01*
X126393810Y-99469524D01*
X126298571Y-99421905D01*
X126250952Y-99374286D01*
X126203333Y-99279048D01*
X126203333Y-99088571D01*
X126250952Y-98993333D01*
X126298571Y-98945714D01*
X126393810Y-98898095D01*
X126250952Y-100040952D02*
X126203333Y-99945714D01*
X126155714Y-99898095D01*
X126060476Y-99850476D01*
X126012857Y-99850476D01*
X125917619Y-99898095D01*
X125870000Y-99945714D01*
X125822381Y-100040952D01*
X125822381Y-100231429D01*
X125870000Y-100326667D01*
X125917619Y-100374286D01*
X126012857Y-100421905D01*
X126060476Y-100421905D01*
X126155714Y-100374286D01*
X126203333Y-100326667D01*
X126250952Y-100231429D01*
X126250952Y-100040952D01*
X126298571Y-99945714D01*
X126346190Y-99898095D01*
X126441429Y-99850476D01*
X126631905Y-99850476D01*
X126727143Y-99898095D01*
X126774762Y-99945714D01*
X126822381Y-100040952D01*
X126822381Y-100231429D01*
X126774762Y-100326667D01*
X126727143Y-100374286D01*
X126631905Y-100421905D01*
X126441429Y-100421905D01*
X126346190Y-100374286D01*
X126298571Y-100326667D01*
X126250952Y-100231429D01*
X126822381Y-101421905D02*
X126346190Y-101088571D01*
X126822381Y-100850476D02*
X125822381Y-100850476D01*
X125822381Y-101231429D01*
X125870000Y-101326667D01*
X125917619Y-101374286D01*
X126012857Y-101421905D01*
X126155714Y-101421905D01*
X126250952Y-101374286D01*
X126298571Y-101326667D01*
X126346190Y-101231429D01*
X126346190Y-100850476D01*
X123536381Y-99374286D02*
X123536381Y-99183809D01*
X123584000Y-99088571D01*
X123631619Y-99040952D01*
X123774476Y-98945714D01*
X123964952Y-98898095D01*
X124345905Y-98898095D01*
X124441143Y-98945714D01*
X124488762Y-98993333D01*
X124536381Y-99088571D01*
X124536381Y-99279048D01*
X124488762Y-99374286D01*
X124441143Y-99421905D01*
X124345905Y-99469524D01*
X124107810Y-99469524D01*
X124012571Y-99421905D01*
X123964952Y-99374286D01*
X123917333Y-99279048D01*
X123917333Y-99088571D01*
X123964952Y-98993333D01*
X124012571Y-98945714D01*
X124107810Y-98898095D01*
X123964952Y-100040952D02*
X123917333Y-99945714D01*
X123869714Y-99898095D01*
X123774476Y-99850476D01*
X123726857Y-99850476D01*
X123631619Y-99898095D01*
X123584000Y-99945714D01*
X123536381Y-100040952D01*
X123536381Y-100231429D01*
X123584000Y-100326667D01*
X123631619Y-100374286D01*
X123726857Y-100421905D01*
X123774476Y-100421905D01*
X123869714Y-100374286D01*
X123917333Y-100326667D01*
X123964952Y-100231429D01*
X123964952Y-100040952D01*
X124012571Y-99945714D01*
X124060190Y-99898095D01*
X124155429Y-99850476D01*
X124345905Y-99850476D01*
X124441143Y-99898095D01*
X124488762Y-99945714D01*
X124536381Y-100040952D01*
X124536381Y-100231429D01*
X124488762Y-100326667D01*
X124441143Y-100374286D01*
X124345905Y-100421905D01*
X124155429Y-100421905D01*
X124060190Y-100374286D01*
X124012571Y-100326667D01*
X123964952Y-100231429D01*
X124536381Y-101421905D02*
X124060190Y-101088571D01*
X124536381Y-100850476D02*
X123536381Y-100850476D01*
X123536381Y-101231429D01*
X123584000Y-101326667D01*
X123631619Y-101374286D01*
X123726857Y-101421905D01*
X123869714Y-101421905D01*
X123964952Y-101374286D01*
X124012571Y-101326667D01*
X124060190Y-101231429D01*
X124060190Y-100850476D01*
X129616381Y-92114762D02*
X129616381Y-91543333D01*
X129616381Y-91829047D02*
X128616381Y-91829047D01*
X128759238Y-91733809D01*
X128854476Y-91638571D01*
X128902095Y-91543333D01*
X129616381Y-92543333D02*
X128616381Y-92543333D01*
X129235429Y-92638571D02*
X129616381Y-92924286D01*
X128949714Y-92924286D02*
X129330667Y-92543333D01*
X128616381Y-93829048D02*
X128616381Y-93352857D01*
X129092571Y-93305238D01*
X129044952Y-93352857D01*
X128997333Y-93448095D01*
X128997333Y-93686191D01*
X129044952Y-93781429D01*
X129092571Y-93829048D01*
X129187810Y-93876667D01*
X129425905Y-93876667D01*
X129521143Y-93829048D01*
X129568762Y-93781429D01*
X129616381Y-93686191D01*
X129616381Y-93448095D01*
X129568762Y-93352857D01*
X129521143Y-93305238D01*
X138238857Y-86558381D02*
X138715048Y-86558381D01*
X138715048Y-85558381D01*
X138048381Y-85558381D02*
X137476952Y-85558381D01*
X137762667Y-86558381D02*
X137762667Y-85558381D01*
X136619809Y-86558381D02*
X137191238Y-86558381D01*
X136905524Y-86558381D02*
X136905524Y-85558381D01*
X137000762Y-85701238D01*
X137096000Y-85796476D01*
X137191238Y-85844095D01*
X135667428Y-86558381D02*
X136238857Y-86558381D01*
X135953143Y-86558381D02*
X135953143Y-85558381D01*
X136048381Y-85701238D01*
X136143619Y-85796476D01*
X136238857Y-85844095D01*
X135286476Y-85653619D02*
X135238857Y-85606000D01*
X135143619Y-85558381D01*
X134905523Y-85558381D01*
X134810285Y-85606000D01*
X134762666Y-85653619D01*
X134715047Y-85748857D01*
X134715047Y-85844095D01*
X134762666Y-85986952D01*
X135334095Y-86558381D01*
X134715047Y-86558381D01*
X134238857Y-86558381D02*
X134048381Y-86558381D01*
X133953142Y-86510762D01*
X133905523Y-86463143D01*
X133810285Y-86320286D01*
X133762666Y-86129810D01*
X133762666Y-85748857D01*
X133810285Y-85653619D01*
X133857904Y-85606000D01*
X133953142Y-85558381D01*
X134143619Y-85558381D01*
X134238857Y-85606000D01*
X134286476Y-85653619D01*
X134334095Y-85748857D01*
X134334095Y-85986952D01*
X134286476Y-86082190D01*
X134238857Y-86129810D01*
X134143619Y-86177429D01*
X133953142Y-86177429D01*
X133857904Y-86129810D01*
X133810285Y-86082190D01*
X133762666Y-85986952D01*
X132762666Y-86463143D02*
X132810285Y-86510762D01*
X132953142Y-86558381D01*
X133048380Y-86558381D01*
X133191238Y-86510762D01*
X133286476Y-86415524D01*
X133334095Y-86320286D01*
X133381714Y-86129810D01*
X133381714Y-85986952D01*
X133334095Y-85796476D01*
X133286476Y-85701238D01*
X133191238Y-85606000D01*
X133048380Y-85558381D01*
X132953142Y-85558381D01*
X132810285Y-85606000D01*
X132762666Y-85653619D01*
X132381714Y-86510762D02*
X132238857Y-86558381D01*
X132000761Y-86558381D01*
X131905523Y-86510762D01*
X131857904Y-86463143D01*
X131810285Y-86367905D01*
X131810285Y-86272667D01*
X131857904Y-86177429D01*
X131905523Y-86129810D01*
X132000761Y-86082190D01*
X132191238Y-86034571D01*
X132286476Y-85986952D01*
X132334095Y-85939333D01*
X132381714Y-85844095D01*
X132381714Y-85748857D01*
X132334095Y-85653619D01*
X132286476Y-85606000D01*
X132191238Y-85558381D01*
X131953142Y-85558381D01*
X131810285Y-85606000D01*
X131524571Y-85558381D02*
X130953142Y-85558381D01*
X131238857Y-86558381D02*
X131238857Y-85558381D01*
X130619809Y-86177429D02*
X129857904Y-86177429D01*
X129476952Y-85558381D02*
X128857904Y-85558381D01*
X129191238Y-85939333D01*
X129048380Y-85939333D01*
X128953142Y-85986952D01*
X128905523Y-86034571D01*
X128857904Y-86129810D01*
X128857904Y-86367905D01*
X128905523Y-86463143D01*
X128953142Y-86510762D01*
X129048380Y-86558381D01*
X129334095Y-86558381D01*
X129429333Y-86510762D01*
X129476952Y-86463143D01*
X128429333Y-86463143D02*
X128381714Y-86510762D01*
X128429333Y-86558381D01*
X128476952Y-86510762D01*
X128429333Y-86463143D01*
X128429333Y-86558381D01*
X128048381Y-85558381D02*
X127429333Y-85558381D01*
X127762667Y-85939333D01*
X127619809Y-85939333D01*
X127524571Y-85986952D01*
X127476952Y-86034571D01*
X127429333Y-86129810D01*
X127429333Y-86367905D01*
X127476952Y-86463143D01*
X127524571Y-86510762D01*
X127619809Y-86558381D01*
X127905524Y-86558381D01*
X128000762Y-86510762D01*
X128048381Y-86463143D01*
X120324571Y-71001334D02*
X120324571Y-70668000D01*
X120848381Y-70668000D02*
X119848381Y-70668000D01*
X119848381Y-71144191D01*
X120848381Y-71525143D02*
X119848381Y-71525143D01*
X119848381Y-71763238D01*
X119896000Y-71906096D01*
X119991238Y-72001334D01*
X120086476Y-72048953D01*
X120276952Y-72096572D01*
X120419810Y-72096572D01*
X120610286Y-72048953D01*
X120705524Y-72001334D01*
X120800762Y-71906096D01*
X120848381Y-71763238D01*
X120848381Y-71525143D01*
X120800762Y-72477524D02*
X120848381Y-72620381D01*
X120848381Y-72858477D01*
X120800762Y-72953715D01*
X120753143Y-73001334D01*
X120657905Y-73048953D01*
X120562667Y-73048953D01*
X120467429Y-73001334D01*
X120419810Y-72953715D01*
X120372190Y-72858477D01*
X120324571Y-72668000D01*
X120276952Y-72572762D01*
X120229333Y-72525143D01*
X120134095Y-72477524D01*
X120038857Y-72477524D01*
X119943619Y-72525143D01*
X119896000Y-72572762D01*
X119848381Y-72668000D01*
X119848381Y-72906096D01*
X119896000Y-73048953D01*
X119848381Y-73906096D02*
X119848381Y-73715619D01*
X119896000Y-73620381D01*
X119943619Y-73572762D01*
X120086476Y-73477524D01*
X120276952Y-73429905D01*
X120657905Y-73429905D01*
X120753143Y-73477524D01*
X120800762Y-73525143D01*
X120848381Y-73620381D01*
X120848381Y-73810858D01*
X120800762Y-73906096D01*
X120753143Y-73953715D01*
X120657905Y-74001334D01*
X120419810Y-74001334D01*
X120324571Y-73953715D01*
X120276952Y-73906096D01*
X120229333Y-73810858D01*
X120229333Y-73620381D01*
X120276952Y-73525143D01*
X120324571Y-73477524D01*
X120419810Y-73429905D01*
X120276952Y-74572762D02*
X120229333Y-74477524D01*
X120181714Y-74429905D01*
X120086476Y-74382286D01*
X120038857Y-74382286D01*
X119943619Y-74429905D01*
X119896000Y-74477524D01*
X119848381Y-74572762D01*
X119848381Y-74763239D01*
X119896000Y-74858477D01*
X119943619Y-74906096D01*
X120038857Y-74953715D01*
X120086476Y-74953715D01*
X120181714Y-74906096D01*
X120229333Y-74858477D01*
X120276952Y-74763239D01*
X120276952Y-74572762D01*
X120324571Y-74477524D01*
X120372190Y-74429905D01*
X120467429Y-74382286D01*
X120657905Y-74382286D01*
X120753143Y-74429905D01*
X120800762Y-74477524D01*
X120848381Y-74572762D01*
X120848381Y-74763239D01*
X120800762Y-74858477D01*
X120753143Y-74906096D01*
X120657905Y-74953715D01*
X120467429Y-74953715D01*
X120372190Y-74906096D01*
X120324571Y-74858477D01*
X120276952Y-74763239D01*
X120848381Y-75429905D02*
X120848381Y-75620381D01*
X120800762Y-75715620D01*
X120753143Y-75763239D01*
X120610286Y-75858477D01*
X120419810Y-75906096D01*
X120038857Y-75906096D01*
X119943619Y-75858477D01*
X119896000Y-75810858D01*
X119848381Y-75715620D01*
X119848381Y-75525143D01*
X119896000Y-75429905D01*
X119943619Y-75382286D01*
X120038857Y-75334667D01*
X120276952Y-75334667D01*
X120372190Y-75382286D01*
X120419810Y-75429905D01*
X120467429Y-75525143D01*
X120467429Y-75715620D01*
X120419810Y-75810858D01*
X120372190Y-75858477D01*
X120276952Y-75906096D01*
X119848381Y-76525143D02*
X119848381Y-76620382D01*
X119896000Y-76715620D01*
X119943619Y-76763239D01*
X120038857Y-76810858D01*
X120229333Y-76858477D01*
X120467429Y-76858477D01*
X120657905Y-76810858D01*
X120753143Y-76763239D01*
X120800762Y-76715620D01*
X120848381Y-76620382D01*
X120848381Y-76525143D01*
X120800762Y-76429905D01*
X120753143Y-76382286D01*
X120657905Y-76334667D01*
X120467429Y-76287048D01*
X120229333Y-76287048D01*
X120038857Y-76334667D01*
X119943619Y-76382286D01*
X119896000Y-76429905D01*
X119848381Y-76525143D01*
X120562667Y-77239429D02*
X120562667Y-77715620D01*
X120848381Y-77144191D02*
X119848381Y-77477524D01*
X120848381Y-77810858D01*
X127003238Y-74996381D02*
X127574667Y-74996381D01*
X127288953Y-74996381D02*
X127288953Y-73996381D01*
X127384191Y-74139238D01*
X127479429Y-74234476D01*
X127574667Y-74282095D01*
X126384191Y-73996381D02*
X126288952Y-73996381D01*
X126193714Y-74044000D01*
X126146095Y-74091619D01*
X126098476Y-74186857D01*
X126050857Y-74377333D01*
X126050857Y-74615429D01*
X126098476Y-74805905D01*
X126146095Y-74901143D01*
X126193714Y-74948762D01*
X126288952Y-74996381D01*
X126384191Y-74996381D01*
X126479429Y-74948762D01*
X126527048Y-74901143D01*
X126574667Y-74805905D01*
X126622286Y-74615429D01*
X126622286Y-74377333D01*
X126574667Y-74186857D01*
X126527048Y-74091619D01*
X126479429Y-74044000D01*
X126384191Y-73996381D01*
X125622286Y-74996381D02*
X125622286Y-73996381D01*
X125527048Y-74615429D02*
X125241333Y-74996381D01*
X125241333Y-74329714D02*
X125622286Y-74710667D01*
X127003238Y-77536381D02*
X127574667Y-77536381D01*
X127288953Y-77536381D02*
X127288953Y-76536381D01*
X127384191Y-76679238D01*
X127479429Y-76774476D01*
X127574667Y-76822095D01*
X126384191Y-76536381D02*
X126288952Y-76536381D01*
X126193714Y-76584000D01*
X126146095Y-76631619D01*
X126098476Y-76726857D01*
X126050857Y-76917333D01*
X126050857Y-77155429D01*
X126098476Y-77345905D01*
X126146095Y-77441143D01*
X126193714Y-77488762D01*
X126288952Y-77536381D01*
X126384191Y-77536381D01*
X126479429Y-77488762D01*
X126527048Y-77441143D01*
X126574667Y-77345905D01*
X126622286Y-77155429D01*
X126622286Y-76917333D01*
X126574667Y-76726857D01*
X126527048Y-76631619D01*
X126479429Y-76584000D01*
X126384191Y-76536381D01*
X125622286Y-77536381D02*
X125622286Y-76536381D01*
X125527048Y-77155429D02*
X125241333Y-77536381D01*
X125241333Y-76869714D02*
X125622286Y-77250667D01*
X131051119Y-75838333D02*
X131003500Y-75885952D01*
X130955881Y-75981190D01*
X130955881Y-76219286D01*
X131003500Y-76314524D01*
X131051119Y-76362143D01*
X131146357Y-76409762D01*
X131241595Y-76409762D01*
X131384452Y-76362143D01*
X131955881Y-75790714D01*
X131955881Y-76409762D01*
X131955881Y-76838333D02*
X130955881Y-76838333D01*
X131574929Y-76933571D02*
X131955881Y-77219286D01*
X131289214Y-77219286D02*
X131670167Y-76838333D01*
X131051119Y-77600238D02*
X131003500Y-77647857D01*
X130955881Y-77743095D01*
X130955881Y-77981191D01*
X131003500Y-78076429D01*
X131051119Y-78124048D01*
X131146357Y-78171667D01*
X131241595Y-78171667D01*
X131384452Y-78124048D01*
X131955881Y-77552619D01*
X131955881Y-78171667D01*
X133019619Y-75815833D02*
X132972000Y-75863452D01*
X132924381Y-75958690D01*
X132924381Y-76196786D01*
X132972000Y-76292024D01*
X133019619Y-76339643D01*
X133114857Y-76387262D01*
X133210095Y-76387262D01*
X133352952Y-76339643D01*
X133924381Y-75768214D01*
X133924381Y-76387262D01*
X133924381Y-76815833D02*
X132924381Y-76815833D01*
X133543429Y-76911071D02*
X133924381Y-77196786D01*
X133257714Y-77196786D02*
X133638667Y-76815833D01*
X133019619Y-77577738D02*
X132972000Y-77625357D01*
X132924381Y-77720595D01*
X132924381Y-77958691D01*
X132972000Y-78053929D01*
X133019619Y-78101548D01*
X133114857Y-78149167D01*
X133210095Y-78149167D01*
X133352952Y-78101548D01*
X133924381Y-77530119D01*
X133924381Y-78149167D01*
X135278762Y-69890095D02*
X135326381Y-70032952D01*
X135326381Y-70271048D01*
X135278762Y-70366286D01*
X135231143Y-70413905D01*
X135135905Y-70461524D01*
X135040667Y-70461524D01*
X134945429Y-70413905D01*
X134897810Y-70366286D01*
X134850190Y-70271048D01*
X134802571Y-70080571D01*
X134754952Y-69985333D01*
X134707333Y-69937714D01*
X134612095Y-69890095D01*
X134516857Y-69890095D01*
X134421619Y-69937714D01*
X134374000Y-69985333D01*
X134326381Y-70080571D01*
X134326381Y-70318667D01*
X134374000Y-70461524D01*
X134326381Y-70794857D02*
X135326381Y-71032952D01*
X134612095Y-71223429D01*
X135326381Y-71413905D01*
X134326381Y-71652000D01*
X135421619Y-71794857D02*
X135421619Y-72556762D01*
X135326381Y-72794857D02*
X134326381Y-72794857D01*
X134326381Y-73175810D01*
X134374000Y-73271048D01*
X134421619Y-73318667D01*
X134516857Y-73366286D01*
X134659714Y-73366286D01*
X134754952Y-73318667D01*
X134802571Y-73271048D01*
X134850190Y-73175810D01*
X134850190Y-72794857D01*
X134326381Y-73794857D02*
X135135905Y-73794857D01*
X135231143Y-73842476D01*
X135278762Y-73890095D01*
X135326381Y-73985333D01*
X135326381Y-74175810D01*
X135278762Y-74271048D01*
X135231143Y-74318667D01*
X135135905Y-74366286D01*
X134326381Y-74366286D01*
X135278762Y-74794857D02*
X135326381Y-74937714D01*
X135326381Y-75175810D01*
X135278762Y-75271048D01*
X135231143Y-75318667D01*
X135135905Y-75366286D01*
X135040667Y-75366286D01*
X134945429Y-75318667D01*
X134897810Y-75271048D01*
X134850190Y-75175810D01*
X134802571Y-74985333D01*
X134754952Y-74890095D01*
X134707333Y-74842476D01*
X134612095Y-74794857D01*
X134516857Y-74794857D01*
X134421619Y-74842476D01*
X134374000Y-74890095D01*
X134326381Y-74985333D01*
X134326381Y-75223429D01*
X134374000Y-75366286D01*
X135326381Y-75794857D02*
X134326381Y-75794857D01*
X134802571Y-75794857D02*
X134802571Y-76366286D01*
X135326381Y-76366286D02*
X134326381Y-76366286D01*
X130749381Y-86606143D02*
X130749381Y-86034714D01*
X130749381Y-86320428D02*
X129749381Y-86320428D01*
X129892238Y-86225190D01*
X129987476Y-86129952D01*
X130035095Y-86034714D01*
X129749381Y-87225190D02*
X129749381Y-87320429D01*
X129797000Y-87415667D01*
X129844619Y-87463286D01*
X129939857Y-87510905D01*
X130130333Y-87558524D01*
X130368429Y-87558524D01*
X130558905Y-87510905D01*
X130654143Y-87463286D01*
X130701762Y-87415667D01*
X130749381Y-87320429D01*
X130749381Y-87225190D01*
X130701762Y-87129952D01*
X130654143Y-87082333D01*
X130558905Y-87034714D01*
X130368429Y-86987095D01*
X130130333Y-86987095D01*
X129939857Y-87034714D01*
X129844619Y-87082333D01*
X129797000Y-87129952D01*
X129749381Y-87225190D01*
X130082714Y-87987095D02*
X130749381Y-87987095D01*
X130177952Y-87987095D02*
X130130333Y-88034714D01*
X130082714Y-88129952D01*
X130082714Y-88272810D01*
X130130333Y-88368048D01*
X130225571Y-88415667D01*
X130749381Y-88415667D01*
X126515667Y-86039619D02*
X126468048Y-85992000D01*
X126372810Y-85944381D01*
X126134714Y-85944381D01*
X126039476Y-85992000D01*
X125991857Y-86039619D01*
X125944238Y-86134857D01*
X125944238Y-86230095D01*
X125991857Y-86372952D01*
X126563286Y-86944381D01*
X125944238Y-86944381D01*
X125515667Y-86944381D02*
X125515667Y-85944381D01*
X125420429Y-86563429D02*
X125134714Y-86944381D01*
X125134714Y-86277714D02*
X125515667Y-86658667D01*
X124753762Y-86039619D02*
X124706143Y-85992000D01*
X124610905Y-85944381D01*
X124372809Y-85944381D01*
X124277571Y-85992000D01*
X124229952Y-86039619D01*
X124182333Y-86134857D01*
X124182333Y-86230095D01*
X124229952Y-86372952D01*
X124801381Y-86944381D01*
X124182333Y-86944381D01*
X126912476Y-77414381D02*
X127483905Y-77414381D01*
X127198191Y-77414381D02*
X127198191Y-76414381D01*
X127293429Y-76557238D01*
X127388667Y-76652476D01*
X127483905Y-76700095D01*
X126055333Y-76414381D02*
X126245810Y-76414381D01*
X126341048Y-76462000D01*
X126388667Y-76509619D01*
X126483905Y-76652476D01*
X126531524Y-76842952D01*
X126531524Y-77223905D01*
X126483905Y-77319143D01*
X126436286Y-77366762D01*
X126341048Y-77414381D01*
X126150571Y-77414381D01*
X126055333Y-77366762D01*
X126007714Y-77319143D01*
X125960095Y-77223905D01*
X125960095Y-76985810D01*
X126007714Y-76890571D01*
X126055333Y-76842952D01*
X126150571Y-76795333D01*
X126341048Y-76795333D01*
X126436286Y-76842952D01*
X126483905Y-76890571D01*
X126531524Y-76985810D01*
X125531524Y-77414381D02*
X125531524Y-76414381D01*
X125198190Y-77128667D01*
X124864857Y-76414381D01*
X124864857Y-77414381D01*
X124388667Y-77414381D02*
X124388667Y-76414381D01*
X124388667Y-76890571D02*
X123817238Y-76890571D01*
X123817238Y-77414381D02*
X123817238Y-76414381D01*
X123436286Y-76747714D02*
X122912476Y-76747714D01*
X123436286Y-77414381D01*
X122912476Y-77414381D01*
X135258238Y-76657381D02*
X135829667Y-76657381D01*
X135543953Y-76657381D02*
X135543953Y-75657381D01*
X135639191Y-75800238D01*
X135734429Y-75895476D01*
X135829667Y-75943095D01*
X134639191Y-75657381D02*
X134543952Y-75657381D01*
X134448714Y-75705000D01*
X134401095Y-75752619D01*
X134353476Y-75847857D01*
X134305857Y-76038333D01*
X134305857Y-76276429D01*
X134353476Y-76466905D01*
X134401095Y-76562143D01*
X134448714Y-76609762D01*
X134543952Y-76657381D01*
X134639191Y-76657381D01*
X134734429Y-76609762D01*
X134782048Y-76562143D01*
X134829667Y-76466905D01*
X134877286Y-76276429D01*
X134877286Y-76038333D01*
X134829667Y-75847857D01*
X134782048Y-75752619D01*
X134734429Y-75705000D01*
X134639191Y-75657381D01*
X133877286Y-76657381D02*
X133877286Y-75657381D01*
X133782048Y-76276429D02*
X133496333Y-76657381D01*
X133496333Y-75990714D02*
X133877286Y-76371667D01*
X125129714Y-96782096D02*
X125796381Y-96782096D01*
X124748762Y-96544000D02*
X125463048Y-96305905D01*
X125463048Y-96924953D01*
X124796381Y-97210667D02*
X124796381Y-97877334D01*
X125796381Y-97448762D01*
X124796381Y-98448762D02*
X124796381Y-98544001D01*
X124844000Y-98639239D01*
X124891619Y-98686858D01*
X124986857Y-98734477D01*
X125177333Y-98782096D01*
X125415429Y-98782096D01*
X125605905Y-98734477D01*
X125701143Y-98686858D01*
X125748762Y-98639239D01*
X125796381Y-98544001D01*
X125796381Y-98448762D01*
X125748762Y-98353524D01*
X125701143Y-98305905D01*
X125605905Y-98258286D01*
X125415429Y-98210667D01*
X125177333Y-98210667D01*
X124986857Y-98258286D01*
X124891619Y-98305905D01*
X124844000Y-98353524D01*
X124796381Y-98448762D01*
X125796381Y-99782096D02*
X125320190Y-99448762D01*
X125796381Y-99210667D02*
X124796381Y-99210667D01*
X124796381Y-99591620D01*
X124844000Y-99686858D01*
X124891619Y-99734477D01*
X124986857Y-99782096D01*
X125129714Y-99782096D01*
X125224952Y-99734477D01*
X125272571Y-99686858D01*
X125320190Y-99591620D01*
X125320190Y-99210667D01*
X125630857Y-82680381D02*
X126202286Y-82680381D01*
X125916572Y-82680381D02*
X125916572Y-81680381D01*
X126011810Y-81823238D01*
X126107048Y-81918476D01*
X126202286Y-81966095D01*
X125011810Y-81680381D02*
X124916571Y-81680381D01*
X124821333Y-81728000D01*
X124773714Y-81775619D01*
X124726095Y-81870857D01*
X124678476Y-82061333D01*
X124678476Y-82299429D01*
X124726095Y-82489905D01*
X124773714Y-82585143D01*
X124821333Y-82632762D01*
X124916571Y-82680381D01*
X125011810Y-82680381D01*
X125107048Y-82632762D01*
X125154667Y-82585143D01*
X125202286Y-82489905D01*
X125249905Y-82299429D01*
X125249905Y-82061333D01*
X125202286Y-81870857D01*
X125154667Y-81775619D01*
X125107048Y-81728000D01*
X125011810Y-81680381D01*
X123821333Y-82013714D02*
X123821333Y-82680381D01*
X124249905Y-82013714D02*
X124249905Y-82537524D01*
X124202286Y-82632762D01*
X124107048Y-82680381D01*
X123964190Y-82680381D01*
X123868952Y-82632762D01*
X123821333Y-82585143D01*
X120662381Y-88892143D02*
X120662381Y-88320714D01*
X120662381Y-88606428D02*
X119662381Y-88606428D01*
X119805238Y-88511190D01*
X119900476Y-88415952D01*
X119948095Y-88320714D01*
X119662381Y-89511190D02*
X119662381Y-89606429D01*
X119710000Y-89701667D01*
X119757619Y-89749286D01*
X119852857Y-89796905D01*
X120043333Y-89844524D01*
X120281429Y-89844524D01*
X120471905Y-89796905D01*
X120567143Y-89749286D01*
X120614762Y-89701667D01*
X120662381Y-89606429D01*
X120662381Y-89511190D01*
X120614762Y-89415952D01*
X120567143Y-89368333D01*
X120471905Y-89320714D01*
X120281429Y-89273095D01*
X120043333Y-89273095D01*
X119852857Y-89320714D01*
X119757619Y-89368333D01*
X119710000Y-89415952D01*
X119662381Y-89511190D01*
X119995714Y-90701667D02*
X120662381Y-90701667D01*
X119995714Y-90273095D02*
X120519524Y-90273095D01*
X120614762Y-90320714D01*
X120662381Y-90415952D01*
X120662381Y-90558810D01*
X120614762Y-90654048D01*
X120567143Y-90701667D01*
X126341047Y-85166381D02*
X126912476Y-85166381D01*
X126626762Y-85166381D02*
X126626762Y-84166381D01*
X126722000Y-84309238D01*
X126817238Y-84404476D01*
X126912476Y-84452095D01*
X125722000Y-84166381D02*
X125626761Y-84166381D01*
X125531523Y-84214000D01*
X125483904Y-84261619D01*
X125436285Y-84356857D01*
X125388666Y-84547333D01*
X125388666Y-84785429D01*
X125436285Y-84975905D01*
X125483904Y-85071143D01*
X125531523Y-85118762D01*
X125626761Y-85166381D01*
X125722000Y-85166381D01*
X125817238Y-85118762D01*
X125864857Y-85071143D01*
X125912476Y-84975905D01*
X125960095Y-84785429D01*
X125960095Y-84547333D01*
X125912476Y-84356857D01*
X125864857Y-84261619D01*
X125817238Y-84214000D01*
X125722000Y-84166381D01*
X124769619Y-84166381D02*
X124674380Y-84166381D01*
X124579142Y-84214000D01*
X124531523Y-84261619D01*
X124483904Y-84356857D01*
X124436285Y-84547333D01*
X124436285Y-84785429D01*
X124483904Y-84975905D01*
X124531523Y-85071143D01*
X124579142Y-85118762D01*
X124674380Y-85166381D01*
X124769619Y-85166381D01*
X124864857Y-85118762D01*
X124912476Y-85071143D01*
X124960095Y-84975905D01*
X125007714Y-84785429D01*
X125007714Y-84547333D01*
X124960095Y-84356857D01*
X124912476Y-84261619D01*
X124864857Y-84214000D01*
X124769619Y-84166381D01*
X124007714Y-84499714D02*
X124007714Y-85166381D01*
X124007714Y-84594952D02*
X123960095Y-84547333D01*
X123864857Y-84499714D01*
X123721999Y-84499714D01*
X123626761Y-84547333D01*
X123579142Y-84642571D01*
X123579142Y-85166381D01*
X123256381Y-88413453D02*
X123256381Y-87842024D01*
X123256381Y-88127738D02*
X122256381Y-88127738D01*
X122399238Y-88032500D01*
X122494476Y-87937262D01*
X122542095Y-87842024D01*
X122256381Y-89032500D02*
X122256381Y-89127739D01*
X122304000Y-89222977D01*
X122351619Y-89270596D01*
X122446857Y-89318215D01*
X122637333Y-89365834D01*
X122875429Y-89365834D01*
X123065905Y-89318215D01*
X123161143Y-89270596D01*
X123208762Y-89222977D01*
X123256381Y-89127739D01*
X123256381Y-89032500D01*
X123208762Y-88937262D01*
X123161143Y-88889643D01*
X123065905Y-88842024D01*
X122875429Y-88794405D01*
X122637333Y-88794405D01*
X122446857Y-88842024D01*
X122351619Y-88889643D01*
X122304000Y-88937262D01*
X122256381Y-89032500D01*
X122256381Y-89984881D02*
X122256381Y-90080120D01*
X122304000Y-90175358D01*
X122351619Y-90222977D01*
X122446857Y-90270596D01*
X122637333Y-90318215D01*
X122875429Y-90318215D01*
X123065905Y-90270596D01*
X123161143Y-90222977D01*
X123208762Y-90175358D01*
X123256381Y-90080120D01*
X123256381Y-89984881D01*
X123208762Y-89889643D01*
X123161143Y-89842024D01*
X123065905Y-89794405D01*
X122875429Y-89746786D01*
X122637333Y-89746786D01*
X122446857Y-89794405D01*
X122351619Y-89842024D01*
X122304000Y-89889643D01*
X122256381Y-89984881D01*
X122589714Y-90746786D02*
X123256381Y-90746786D01*
X122684952Y-90746786D02*
X122637333Y-90794405D01*
X122589714Y-90889643D01*
X122589714Y-91032501D01*
X122637333Y-91127739D01*
X122732571Y-91175358D01*
X123256381Y-91175358D01*
X133362381Y-96639143D02*
X133362381Y-96067714D01*
X133362381Y-96353428D02*
X132362381Y-96353428D01*
X132505238Y-96258190D01*
X132600476Y-96162952D01*
X132648095Y-96067714D01*
X132362381Y-97258190D02*
X132362381Y-97353429D01*
X132410000Y-97448667D01*
X132457619Y-97496286D01*
X132552857Y-97543905D01*
X132743333Y-97591524D01*
X132981429Y-97591524D01*
X133171905Y-97543905D01*
X133267143Y-97496286D01*
X133314762Y-97448667D01*
X133362381Y-97353429D01*
X133362381Y-97258190D01*
X133314762Y-97162952D01*
X133267143Y-97115333D01*
X133171905Y-97067714D01*
X132981429Y-97020095D01*
X132743333Y-97020095D01*
X132552857Y-97067714D01*
X132457619Y-97115333D01*
X132410000Y-97162952D01*
X132362381Y-97258190D01*
X132695714Y-98448667D02*
X133362381Y-98448667D01*
X132695714Y-98020095D02*
X133219524Y-98020095D01*
X133314762Y-98067714D01*
X133362381Y-98162952D01*
X133362381Y-98305810D01*
X133314762Y-98401048D01*
X133267143Y-98448667D01*
X125288381Y-92606953D02*
X125288381Y-92035524D01*
X125288381Y-92321238D02*
X124288381Y-92321238D01*
X124431238Y-92226000D01*
X124526476Y-92130762D01*
X124574095Y-92035524D01*
X124288381Y-93226000D02*
X124288381Y-93321239D01*
X124336000Y-93416477D01*
X124383619Y-93464096D01*
X124478857Y-93511715D01*
X124669333Y-93559334D01*
X124907429Y-93559334D01*
X125097905Y-93511715D01*
X125193143Y-93464096D01*
X125240762Y-93416477D01*
X125288381Y-93321239D01*
X125288381Y-93226000D01*
X125240762Y-93130762D01*
X125193143Y-93083143D01*
X125097905Y-93035524D01*
X124907429Y-92987905D01*
X124669333Y-92987905D01*
X124478857Y-93035524D01*
X124383619Y-93083143D01*
X124336000Y-93130762D01*
X124288381Y-93226000D01*
X124288381Y-94178381D02*
X124288381Y-94273620D01*
X124336000Y-94368858D01*
X124383619Y-94416477D01*
X124478857Y-94464096D01*
X124669333Y-94511715D01*
X124907429Y-94511715D01*
X125097905Y-94464096D01*
X125193143Y-94416477D01*
X125240762Y-94368858D01*
X125288381Y-94273620D01*
X125288381Y-94178381D01*
X125240762Y-94083143D01*
X125193143Y-94035524D01*
X125097905Y-93987905D01*
X124907429Y-93940286D01*
X124669333Y-93940286D01*
X124478857Y-93987905D01*
X124383619Y-94035524D01*
X124336000Y-94083143D01*
X124288381Y-94178381D01*
X124621714Y-94940286D02*
X125288381Y-94940286D01*
X124716952Y-94940286D02*
X124669333Y-94987905D01*
X124621714Y-95083143D01*
X124621714Y-95226001D01*
X124669333Y-95321239D01*
X124764571Y-95368858D01*
X125288381Y-95368858D01*
X123917381Y-91654524D02*
X123917381Y-92273572D01*
X124298333Y-91940238D01*
X124298333Y-92083096D01*
X124345952Y-92178334D01*
X124393571Y-92225953D01*
X124488810Y-92273572D01*
X124726905Y-92273572D01*
X124822143Y-92225953D01*
X124869762Y-92178334D01*
X124917381Y-92083096D01*
X124917381Y-91797381D01*
X124869762Y-91702143D01*
X124822143Y-91654524D01*
X123917381Y-92892619D02*
X123917381Y-92987858D01*
X123965000Y-93083096D01*
X124012619Y-93130715D01*
X124107857Y-93178334D01*
X124298333Y-93225953D01*
X124536429Y-93225953D01*
X124726905Y-93178334D01*
X124822143Y-93130715D01*
X124869762Y-93083096D01*
X124917381Y-92987858D01*
X124917381Y-92892619D01*
X124869762Y-92797381D01*
X124822143Y-92749762D01*
X124726905Y-92702143D01*
X124536429Y-92654524D01*
X124298333Y-92654524D01*
X124107857Y-92702143D01*
X124012619Y-92749762D01*
X123965000Y-92797381D01*
X123917381Y-92892619D01*
X123917381Y-93845000D02*
X123917381Y-93940239D01*
X123965000Y-94035477D01*
X124012619Y-94083096D01*
X124107857Y-94130715D01*
X124298333Y-94178334D01*
X124536429Y-94178334D01*
X124726905Y-94130715D01*
X124822143Y-94083096D01*
X124869762Y-94035477D01*
X124917381Y-93940239D01*
X124917381Y-93845000D01*
X124869762Y-93749762D01*
X124822143Y-93702143D01*
X124726905Y-93654524D01*
X124536429Y-93606905D01*
X124298333Y-93606905D01*
X124107857Y-93654524D01*
X124012619Y-93702143D01*
X123965000Y-93749762D01*
X123917381Y-93845000D01*
X124917381Y-94606905D02*
X123917381Y-94606905D01*
X124536429Y-94702143D02*
X124917381Y-94987858D01*
X124250714Y-94987858D02*
X124631667Y-94606905D01*
X126939381Y-92273572D02*
X126939381Y-91702143D01*
X126939381Y-91987857D02*
X125939381Y-91987857D01*
X126082238Y-91892619D01*
X126177476Y-91797381D01*
X126225095Y-91702143D01*
X125939381Y-92892619D02*
X125939381Y-92987858D01*
X125987000Y-93083096D01*
X126034619Y-93130715D01*
X126129857Y-93178334D01*
X126320333Y-93225953D01*
X126558429Y-93225953D01*
X126748905Y-93178334D01*
X126844143Y-93130715D01*
X126891762Y-93083096D01*
X126939381Y-92987858D01*
X126939381Y-92892619D01*
X126891762Y-92797381D01*
X126844143Y-92749762D01*
X126748905Y-92702143D01*
X126558429Y-92654524D01*
X126320333Y-92654524D01*
X126129857Y-92702143D01*
X126034619Y-92749762D01*
X125987000Y-92797381D01*
X125939381Y-92892619D01*
X125939381Y-93845000D02*
X125939381Y-93940239D01*
X125987000Y-94035477D01*
X126034619Y-94083096D01*
X126129857Y-94130715D01*
X126320333Y-94178334D01*
X126558429Y-94178334D01*
X126748905Y-94130715D01*
X126844143Y-94083096D01*
X126891762Y-94035477D01*
X126939381Y-93940239D01*
X126939381Y-93845000D01*
X126891762Y-93749762D01*
X126844143Y-93702143D01*
X126748905Y-93654524D01*
X126558429Y-93606905D01*
X126320333Y-93606905D01*
X126129857Y-93654524D01*
X126034619Y-93702143D01*
X125987000Y-93749762D01*
X125939381Y-93845000D01*
X126939381Y-94606905D02*
X125939381Y-94606905D01*
X126558429Y-94702143D02*
X126939381Y-94987858D01*
X126272714Y-94987858D02*
X126653667Y-94606905D01*
M02*
